<?xml version="1.0" encoding="UTF-8"?>
<!DOCTYPE svg PUBLIC "-//W3C//DTD SVG 1.1//EN" "http://www.w3.org/Graphics/SVG/1.1/DTD/svg11.dtd">
<!-- Creator: CorelDRAW 2020 (64-Bit) -->
<svg xmlns="http://www.w3.org/2000/svg" xml:space="preserve" width="64px" height="28px" version="1.1" style="shape-rendering:geometricPrecision; text-rendering:geometricPrecision; image-rendering:optimizeQuality; fill-rule:evenodd; clip-rule:evenodd"
viewBox="0 0 5.89 2.55"
 xmlns:xlink="http://www.w3.org/1999/xlink"
 xmlns:xodm="http://www.corel.com/coreldraw/odm/2003">
 <defs>
  <style type="text/css">
   <![CDATA[
    .str0 {stroke:#B8141F;stroke-width:0.03;stroke-miterlimit:22.9256}
    .fil1 {fill:none}
    .fil2 {fill:#B8141F}
    .fil0 {fill:#B8141F;fill-rule:nonzero}
   ]]>
  </style>
 </defs>
 <g id="Layer_x0020_1">
  <metadata id="CorelCorpID_0Corel-Layer"/>
  <g id="_2448536533616">
   <path class="fil0" d="M1.26 1.12l0 0.39 0.07 0c0.25,0 0.33,-0.04 0.33,-0.21 0,-0.14 -0.09,-0.18 -0.33,-0.18l-0.07 0zm-0.29 -0.18l0.31 0c0.23,0 0.4,0 0.51,0.08 0.1,0.06 0.15,0.14 0.15,0.29 0,0.14 -0.05,0.24 -0.15,0.3 -0.14,0.09 -0.28,0.09 -0.51,0.09l-0.31 0 0 -0.76z"/>
   <polygon class="fil0" points="2.91,1.71 2.08,1.71 2.08,0.94 2.91,0.94 2.91,1.11 2.37,1.11 2.37,1.21 2.79,1.21 2.79,1.4 2.37,1.4 2.37,1.51 2.91,1.51 "/>
   <polygon class="fil0" points="3.03,0.94 3.32,0.94 3.32,1.21 3.6,0.94 3.99,0.94 3.66,1.24 4.03,1.71 3.68,1.71 3.45,1.37 3.32,1.47 3.32,1.71 3.03,1.71 "/>
   <path class="fil0" d="M4.57 1.13l-0.13 0.32 0.25 0 -0.12 -0.32zm-0.19 -0.19l0.37 0 0.32 0.77 -0.29 0 -0.05 -0.11 -0.34 0 -0.04 0.11 -0.29 0 0.32 -0.77z"/>
   <circle class="fil1 str0" cx="5.13" cy="0.97" r="0.12"/>
   <path class="fil0" d="M5.06 1.05l0 -0.16 0.07 0c0.01,0 0.02,0 0.03,0.01 0.01,0 0.01,0 0.02,0.01 0,0.01 0,0.02 0,0.02 0,0.01 0,0.02 -0.01,0.03 0,0.01 -0.01,0.01 -0.03,0.02 0.01,0 0.01,0 0.01,0 0.01,0.01 0.01,0.02 0.02,0.02l0.03 0.05 -0.03 0 -0.02 -0.04c-0.01,-0.01 -0.01,-0.01 -0.01,-0.02 -0.01,0 -0.01,-0.01 -0.01,-0.01 -0.01,0 -0.01,0 -0.01,0 -0.01,0 -0.01,0 -0.02,0l-0.02 0 0 0.07 -0.02 0zm0.02 -0.09l0.05 0c0,0 0.01,0 0.02,0 0,0 0.01,-0.01 0.01,-0.01 0,-0.01 0,-0.01 0,-0.02 0,0 0,-0.01 0,-0.01 -0.01,-0.01 -0.02,-0.01 -0.03,-0.01l-0.05 0 0 0.05z"/>
   <path class="fil2" d="M2.95 0c1.63,0 2.94,0.57 2.94,1.28 0,0.7 -1.31,1.27 -2.94,1.27 -1.63,0 -2.95,-0.57 -2.95,-1.27 0,-0.71 1.32,-1.28 2.95,-1.28zm0 0.1c1.5,0 2.72,0.53 2.72,1.18 0,0.65 -1.22,1.17 -2.72,1.17 -1.5,0 -2.72,-0.52 -2.72,-1.17 0,-0.65 1.22,-1.18 2.72,-1.18z"/>
  </g>
 </g>
</svg>
