<?xml version="1.0" encoding="UTF-8"?>
<!DOCTYPE svg PUBLIC "-//W3C//DTD SVG 1.1//EN" "http://www.w3.org/Graphics/SVG/1.1/DTD/svg11.dtd">
<!-- Creator: CorelDRAW 2020 (64-Bit) -->
<svg xmlns="http://www.w3.org/2000/svg" xml:space="preserve" width="81px" height="29px" version="1.1" style="shape-rendering:geometricPrecision; text-rendering:geometricPrecision; image-rendering:optimizeQuality; fill-rule:evenodd; clip-rule:evenodd"
viewBox="0 0 7.33 2.64"
 xmlns:xlink="http://www.w3.org/1999/xlink"
 xmlns:xodm="http://www.corel.com/coreldraw/odm/2003">
 <defs>
  <style type="text/css">
   <![CDATA[
    .str0 {stroke:#FEFEFE;stroke-width:0.11;stroke-linejoin:round;stroke-miterlimit:22.9256}
    .str1 {stroke:#FEFEFE;stroke-width:0.11;stroke-linejoin:round;stroke-miterlimit:22.9256}
    .fil1 {fill:none}
    .fil3 {fill:#FEFEFE}
    .fil2 {fill:#2B2A29}
    .fil0 {fill:url(#id0)}
   ]]>
  </style>
  <linearGradient id="id0" gradientUnits="userSpaceOnUse" x1="6.61" y1="0.14" x2="6.59" y2="2.72">
   <stop offset="0" style="stop-opacity:1; stop-color:#D67C1C"/>
   <stop offset="0.541176" style="stop-opacity:1; stop-color:#D6791C"/>
   <stop offset="1" style="stop-opacity:1; stop-color:#C2081A"/>
  </linearGradient>
 </defs>
 <g id="Layer_x0020_1">
  <metadata id="CorelCorpID_0Corel-Layer"/>
  <g id="_2448589412272">
   <path class="fil0" d="M0.01 0l7.31 0c0,0 0.01,0.01 0.01,0.02l0 2.61c0,0 -0.01,0.01 -0.01,0.01l-7.31 0c-0.01,0 -0.01,-0.01 -0.01,-0.01l0 -2.61c0,-0.01 0,-0.02 0.01,-0.02z"/>
   <g>
    <polygon class="fil1 str0" points="2.91,1.09 2.21,1.09 2.21,1.94 2.91,1.95 2.91,1.74 2.53,1.74 2.53,1.62 2.79,1.62 2.79,1.41 2.53,1.41 2.53,1.31 2.91,1.31 "/>
    <polygon id="1" class="fil2" points="2.91,1.09 2.21,1.09 2.21,1.94 2.91,1.95 2.91,1.74 2.53,1.74 2.53,1.62 2.79,1.62 2.79,1.41 2.53,1.41 2.53,1.31 2.91,1.31 "/>
   </g>
   <g>
    <path class="fil1 str0" d="M3.58 1.09l-0.62 0 0 0.86 0.3 0 0 -0.26c0.12,0 0.21,0 0.32,0 0.08,0 0.2,-0.1 0.2,-0.14 0,-0.1 0,-0.21 0,-0.31 0,-0.04 -0.11,-0.15 -0.2,-0.15zm-0.32 0.22l0 0.17c0.05,0 0.1,0 0.15,0 0.06,0 0.07,-0.05 0.08,-0.08 0,-0.04 -0.02,-0.09 -0.07,-0.09l-0.16 0z"/>
    <path id="1" class="fil2" d="M3.58 1.09l-0.62 0 0 0.86 0.3 0 0 -0.26c0.12,0 0.21,0 0.32,0 0.08,0 0.2,-0.1 0.2,-0.14 0,-0.1 0,-0.21 0,-0.31 0,-0.04 -0.11,-0.15 -0.2,-0.15zm-0.32 0.22l0 0.17c0.05,0 0.1,0 0.15,0 0.06,0 0.07,-0.05 0.08,-0.08 0,-0.04 -0.02,-0.09 -0.07,-0.09l-0.16 0z"/>
   </g>
   <g>
    <polygon class="fil1 str0" points="4.16,1.94 3.83,1.94 3.83,1.09 4.26,1.09 4.4,1.38 4.54,1.09 4.94,1.09 4.94,1.94 4.62,1.95 4.62,1.53 4.46,1.83 4.31,1.83 4.16,1.54 "/>
    <polygon id="1" class="fil2" points="4.16,1.94 3.83,1.94 3.83,1.09 4.26,1.09 4.4,1.38 4.54,1.09 4.94,1.09 4.94,1.94 4.62,1.95 4.62,1.53 4.46,1.83 4.31,1.83 4.16,1.54 "/>
   </g>
   <g>
    <path class="fil1 str0" d="M5 1.79l0.21 -0.7 0.48 0 0.23 0.7 0 0.16 -0.31 0 -0.04 -0.16 -0.25 0 -0.04 0.16 -0.28 0 0 -0.16zm0.51 -0.21l-0.08 -0.23 -0.07 0.23 0.15 0z"/>
    <path id="1" class="fil2" d="M5 1.79l0.21 -0.7 0.48 0 0.23 0.7 0 0.16 -0.31 0 -0.04 -0.16 -0.25 0 -0.04 0.16 -0.28 0 0 -0.16zm0.51 -0.21l-0.08 -0.23 -0.07 0.23 0.15 0z"/>
   </g>
   <g>
    <polygon class="fil1 str0" points="6.3,1.09 5.97,1.09 5.97,1.94 6.3,1.94 6.3,1.7 6.34,1.66 6.53,1.95 6.81,1.95 6.81,1.79 6.59,1.51 6.59,1.45 6.8,1.26 6.8,1.09 6.55,1.09 6.36,1.28 6.3,1.28 "/>
    <polygon id="1" class="fil2" points="6.3,1.09 5.97,1.09 5.97,1.94 6.3,1.94 6.3,1.7 6.34,1.66 6.53,1.95 6.81,1.95 6.81,1.79 6.59,1.51 6.59,1.45 6.8,1.26 6.8,1.09 6.55,1.09 6.36,1.28 6.3,1.28 "/>
   </g>
   <g>
    <polygon class="fil1 str1" points="1.23,0.62 0.37,1.06 0.65,1.8 0.65,1.97 1.79,1.97 1.79,1.8 2.08,1.06 "/>
    <polygon id="1" class="fil3" points="1.23,0.62 0.37,1.06 0.65,1.8 0.65,1.97 1.79,1.97 1.79,1.8 2.08,1.06 "/>
   </g>
   <polygon class="fil2" points="0.49,1.24 0.43,1.08 1.23,0.69 2.03,1.09 1.76,1.76 1.23,1.49 0.69,1.76 0.63,1.6 1.23,1.3 1.23,1.17 0.59,1.49 0.53,1.34 1.23,1 1.23,0.88 "/>
   <polygon class="fil2" points="1.73,1.94 0.71,1.95 0.71,1.88 1.23,1.61 1.73,1.86 "/>
  </g>
 </g>
</svg>
