<?xml version="1.0" encoding="UTF-8"?>
<!DOCTYPE svg PUBLIC "-//W3C//DTD SVG 1.1//EN" "http://www.w3.org/Graphics/SVG/1.1/DTD/svg11.dtd">
<!-- Creator: CorelDRAW 2020 (64-Bit) -->
<svg xmlns="http://www.w3.org/2000/svg" xml:space="preserve" width="59px" height="32px" version="1.1" style="shape-rendering:geometricPrecision; text-rendering:geometricPrecision; image-rendering:optimizeQuality; fill-rule:evenodd; clip-rule:evenodd"
viewBox="0 0 11.34 6.25"
 xmlns:xlink="http://www.w3.org/1999/xlink"
 xmlns:xodm="http://www.corel.com/coreldraw/odm/2003">
 <defs>
  <style type="text/css">
   <![CDATA[
    .str0 {stroke:#2B2A29;stroke-width:0.08;stroke-miterlimit:22.9256}
    .fil2 {fill:none}
    .fil0 {fill:#2B2A29}
    .fil1 {fill:#2B2A29;fill-rule:nonzero}
   ]]>
  </style>
 </defs>
 <g id="Layer_x0020_1">
  <metadata id="CorelCorpID_0Corel-Layer"/>
  <g id="_2448788268032">
   <polygon class="fil0" points="4.06,0 11.26,0 11.26,0.54 9.25,1.88 2,1.88 2,1.4 "/>
   <polygon class="fil0" points="2.06,4.37 9.26,4.37 9.26,4.9 7.25,6.25 0,6.25 0,5.77 "/>
   <path class="fil1" d="M2.02 4.15l0 -2.06 1.5 0 0 0.24 -1.22 0 0 0.63 1.14 0 0 0.25 -1.14 0 0 0.7 1.26 0 0 0.24 -1.54 0zm1.83 -0.66l0.26 -0.02c0.01,0.1 0.04,0.19 0.08,0.25 0.05,0.07 0.12,0.12 0.21,0.16 0.1,0.04 0.2,0.07 0.32,0.07 0.1,0 0.2,-0.02 0.28,-0.05 0.07,-0.03 0.13,-0.08 0.17,-0.13 0.04,-0.05 0.06,-0.11 0.06,-0.18 0,-0.06 -0.02,-0.12 -0.05,-0.17 -0.04,-0.04 -0.1,-0.08 -0.19,-0.12 -0.06,-0.02 -0.18,-0.05 -0.37,-0.1 -0.19,-0.04 -0.32,-0.09 -0.4,-0.13 -0.1,-0.05 -0.17,-0.11 -0.22,-0.19 -0.05,-0.08 -0.07,-0.16 -0.07,-0.26 0,-0.1 0.03,-0.2 0.09,-0.29 0.06,-0.09 0.14,-0.16 0.26,-0.21 0.11,-0.04 0.24,-0.07 0.38,-0.07 0.15,0 0.29,0.03 0.4,0.08 0.12,0.05 0.21,0.12 0.27,0.21 0.07,0.1 0.1,0.21 0.1,0.33l-0.26 0.02c-0.01,-0.13 -0.06,-0.23 -0.14,-0.29 -0.08,-0.07 -0.2,-0.11 -0.36,-0.11 -0.17,0 -0.29,0.04 -0.36,0.1 -0.08,0.06 -0.12,0.13 -0.12,0.22 0,0.07 0.03,0.13 0.08,0.18 0.06,0.05 0.19,0.1 0.42,0.15 0.22,0.05 0.37,0.09 0.45,0.13 0.12,0.05 0.21,0.12 0.27,0.21 0.06,0.08 0.08,0.18 0.08,0.29 0,0.11 -0.03,0.21 -0.09,0.31 -0.06,0.1 -0.15,0.17 -0.27,0.23 -0.12,0.05 -0.25,0.08 -0.4,0.08 -0.18,0 -0.34,-0.03 -0.47,-0.08 -0.12,-0.06 -0.22,-0.14 -0.29,-0.25 -0.08,-0.11 -0.11,-0.23 -0.12,-0.37zm1.79 0.66l0.79 -2.06 0.3 0 0.84 2.06 -0.31 0 -0.24 -0.62 -0.87 0 -0.22 0.62 -0.29 0zm0.59 -0.85l0.71 0 -0.22 -0.57c-0.06,-0.17 -0.11,-0.32 -0.14,-0.43 -0.03,0.14 -0.07,0.27 -0.12,0.4l-0.23 0.6zm1.55 0.85l0 -2.06 0.77 0c0.16,0 0.29,0.02 0.38,0.06 0.1,0.04 0.17,0.11 0.23,0.19 0.05,0.09 0.08,0.18 0.08,0.28 0,0.08 -0.02,0.17 -0.07,0.24 -0.05,0.08 -0.12,0.15 -0.22,0.19 0.13,0.04 0.22,0.1 0.29,0.19 0.07,0.09 0.1,0.19 0.1,0.31 0,0.1 -0.02,0.19 -0.06,0.27 -0.04,0.09 -0.09,0.15 -0.15,0.2 -0.06,0.04 -0.14,0.08 -0.23,0.1 -0.09,0.02 -0.2,0.03 -0.33,0.03l-0.79 0zm0.27 -1.19l0.45 0c0.12,0 0.21,-0.01 0.26,-0.03 0.07,-0.02 0.12,-0.05 0.16,-0.1 0.03,-0.05 0.05,-0.11 0.05,-0.18 0,-0.07 -0.02,-0.13 -0.05,-0.18 -0.03,-0.06 -0.08,-0.09 -0.14,-0.11 -0.06,-0.02 -0.17,-0.03 -0.31,-0.03l-0.42 0 0 0.63zm0 0.95l0.52 0c0.09,0 0.15,0 0.19,-0.01 0.06,-0.01 0.11,-0.03 0.15,-0.06 0.04,-0.02 0.08,-0.06 0.11,-0.11 0.02,-0.05 0.04,-0.11 0.04,-0.18 0,-0.07 -0.02,-0.14 -0.06,-0.2 -0.04,-0.05 -0.1,-0.09 -0.17,-0.12 -0.07,-0.02 -0.17,-0.03 -0.3,-0.03l-0.48 0 0 0.71z"/>
   <path class="fil2 str0" d="M10.92 1.99c0.21,0 0.38,0.17 0.38,0.38 0,0.21 -0.17,0.38 -0.38,0.38 -0.21,0 -0.38,-0.17 -0.38,-0.38 0,-0.21 0.17,-0.38 0.38,-0.38z"/>
   <path class="fil1" d="M10.74 2.6l0 -0.48 0.21 0c0.04,0 0.08,0.01 0.1,0.02 0.02,0 0.04,0.02 0.05,0.04 0.01,0.02 0.02,0.05 0.02,0.07 0,0.04 -0.01,0.06 -0.03,0.09 -0.02,0.02 -0.06,0.03 -0.1,0.04 0.01,0.01 0.03,0.02 0.03,0.02 0.02,0.02 0.04,0.04 0.06,0.07l0.08 0.13 -0.08 0 -0.06 -0.1c-0.02,-0.03 -0.04,-0.05 -0.05,-0.07 -0.01,-0.01 -0.02,-0.02 -0.03,-0.03 -0.01,-0.01 -0.02,-0.01 -0.03,-0.01 0,0 -0.02,0 -0.03,0l-0.07 0 0 0.21 -0.07 0zm0.07 -0.27l0.13 0c0.03,0 0.05,0 0.07,-0.01 0.01,0 0.02,-0.01 0.03,-0.03 0.01,-0.01 0.02,-0.02 0.02,-0.04 0,-0.02 -0.01,-0.04 -0.03,-0.05 -0.01,-0.02 -0.04,-0.02 -0.08,-0.02l-0.14 0 0 0.15z"/>
  </g>
 </g>
</svg>
