<?xml version="1.0" encoding="UTF-8"?>
<!DOCTYPE svg PUBLIC "-//W3C//DTD SVG 1.1//EN" "http://www.w3.org/Graphics/SVG/1.1/DTD/svg11.dtd">
<!-- Creator: CorelDRAW 2020 (64-Bit) -->
<svg xmlns="http://www.w3.org/2000/svg" xml:space="preserve" width="94px" height="23px" version="1.1" style="shape-rendering:geometricPrecision; text-rendering:geometricPrecision; image-rendering:optimizeQuality; fill-rule:evenodd; clip-rule:evenodd"
viewBox="0 0 8.13 1.96"
 xmlns:xlink="http://www.w3.org/1999/xlink"
 xmlns:xodm="http://www.corel.com/coreldraw/odm/2003">
 <defs>
  <style type="text/css">
   <![CDATA[
    .fil1 {fill:#E31E24}
    .fil0 {fill:#E31E24;fill-rule:nonzero}
    .fil2 {fill:#909092;fill-rule:nonzero}
   ]]>
  </style>
 </defs>
 <g id="Layer_x0020_1">
  <metadata id="CorelCorpID_0Corel-Layer"/>
  <g id="_2448791089824">
   <polygon class="fil0" points="3.38,0.98 3.07,0.98 3.07,0.67 2.84,0.67 2.84,0.98 2.51,0.98 2.51,0.11 2.84,0.11 2.84,0.41 3.07,0.41 3.07,0.11 3.38,0.11 "/>
   <path class="fil0" d="M4.21 0.98l-0.28 0 0 -0.1 0 0c-0.04,0.08 -0.13,0.11 -0.22,0.11 -0.06,0 -0.13,-0.02 -0.17,-0.05 -0.03,-0.04 -0.05,-0.09 -0.05,-0.15 0,-0.13 0.09,-0.2 0.24,-0.22l0.21 -0.02c0,-0.08 -0.04,-0.09 -0.12,-0.09 -0.08,0 -0.22,0.03 -0.29,0.08l0 -0.18c0.03,-0.01 0.11,-0.03 0.16,-0.04 0.05,-0.02 0.11,-0.02 0.15,-0.02 0.19,0 0.37,0.09 0.37,0.28l0 0.4zm-0.27 -0.27l0 -0.05 -0.12 0.02c-0.07,0.01 -0.08,0.05 -0.08,0.08 0,0.07 0.11,0.09 0.16,0.05 0.02,-0.03 0.04,-0.06 0.04,-0.1z"/>
   <path class="fil0" d="M5.47 0.98l-0.32 0 0 -0.35c0,-0.05 0.01,-0.12 -0.05,-0.12 -0.06,0 -0.06,0.04 -0.06,0.13l0 0.34 -0.32 0 0 -0.35c0,-0.09 -0.01,-0.11 -0.04,-0.11 -0.05,0 -0.07,0.01 -0.07,0.12l0 0.34 -0.31 0 0 -0.68 0.31 0 0 0.1 0 0c0.04,-0.06 0.13,-0.1 0.2,-0.1 0.08,0 0.18,0.03 0.21,0.11 0.05,-0.08 0.12,-0.11 0.21,-0.11 0.16,0 0.24,0.14 0.24,0.3l0 0.38z"/>
   <path class="fil0" d="M7.5 0.72l-0.46 0c0.01,0.04 0.07,0.11 0.19,0.11 0.07,0 0.17,-0.01 0.23,-0.04l0 0.15c-0.07,0.03 -0.18,0.05 -0.28,0.05 -0.11,0 -0.25,-0.03 -0.31,-0.09 -0.05,-0.06 -0.1,-0.14 -0.1,-0.24 0,-0.11 0.03,-0.2 0.09,-0.26 0.07,-0.07 0.14,-0.1 0.31,-0.1 0.1,0 0.19,0.03 0.25,0.09 0.05,0.05 0.08,0.13 0.08,0.23l0 0.1zm-0.25 -0.14c0,-0.08 -0.03,-0.12 -0.09,-0.13 -0.08,0 -0.12,0.07 -0.12,0.13l0.21 0z"/>
   <path class="fil0" d="M8.13 0.57c-0.03,-0.01 -0.06,-0.02 -0.09,-0.02 -0.05,0 -0.08,0.02 -0.11,0.05 -0.02,0.03 -0.04,0.08 -0.04,0.13l0 0.25 -0.3 0 0 -0.67 0.3 0 0 0.12 0.01 0c0.03,-0.09 0.09,-0.14 0.17,-0.14 0.03,0 0.04,0.01 0.06,0.01l0 0.27z"/>
   <path class="fil0" d="M5.56 0.98l0.32 0 0 -0.35c0,-0.05 -0.01,-0.12 0.04,-0.12 0.06,0 0.06,0.04 0.06,0.13l0 0.34 0.32 0 0 -0.35c0,-0.09 0.02,-0.11 0.05,-0.11 0.05,0 0.06,0.01 0.06,0.12l0 0.34 0.32 0 0 -0.68 -0.32 0 0 0.1 0 0c-0.03,-0.06 -0.13,-0.1 -0.2,-0.1 -0.08,0 -0.18,0.03 -0.21,0.11 -0.05,-0.08 -0.12,-0.11 -0.21,-0.11 -0.16,0 -0.23,0.14 -0.23,0.3l0 0.38z"/>
   <path class="fil1" d="M0.98 0c0.54,0 0.98,0.44 0.98,0.98 0,0.54 -0.44,0.98 -0.98,0.98 -0.54,0 -0.98,-0.44 -0.98,-0.98 0,-0.54 0.44,-0.98 0.98,-0.98zm0.58 0.53l0 0.28 -0.3 0.15 0 -0.65c0.12,0.05 0.22,0.13 0.3,0.22zm0 0.38l0 0.52c-0.08,0.1 -0.18,0.17 -0.3,0.22l0 -0.48c-0.14,0.08 -0.29,0.16 -0.43,0.24l0 -0.55 -0.43 0.22 0 -0.48c0.07,-0.12 0.18,-0.21 0.3,-0.27l0 0.47 0.43 -0.23 0 0.56 0.43 -0.22zm-0.86 0.12l0 0.6c-0.12,-0.06 -0.23,-0.15 -0.3,-0.26l0 -0.19 0.3 -0.15zm0.28 -0.91c0.48,0 0.86,0.39 0.86,0.86 0,0.48 -0.38,0.86 -0.86,0.86 -0.47,0 -0.86,-0.38 -0.86,-0.86 0,-0.47 0.39,-0.86 0.86,-0.86z"/>
   <path class="fil0" d="M2.51 1.86l0 -0.57 0.42 0 0 0.06 -0.34 0 0 0.18 0.29 0 0 0.07 -0.29 0 0 0.26 -0.08 0zm0.52 0l0 -0.57 0.08 0 0 0.5 0.3 0 0 0.07 -0.38 0zm0.48 0l0 -0.57 0.45 0 0 0.06 -0.36 0 0 0.18 0.34 0 0 0.07 -0.34 0 0 0.19 0.38 0 0 0.07 -0.47 0zm0.52 0l0.24 -0.3 -0.22 -0.27 0.1 0 0.12 0.14c0.02,0.03 0.03,0.06 0.04,0.07 0.02,-0.02 0.03,-0.04 0.05,-0.06l0.13 -0.15 0.09 0 -0.22 0.27 0.23 0.3 -0.1 0 -0.15 -0.2c-0.01,-0.02 -0.02,-0.03 -0.03,-0.04 -0.01,0.02 -0.02,0.03 -0.03,0.04l-0.16 0.2 -0.09 0z"/>
   <path class="fil2" d="M4.77 1.63l0.03 0c0.01,0.01 0.01,0.02 0.01,0.03 0.01,0 0.02,0.01 0.03,0.02 0.01,0 0.02,0 0.03,0 0.02,0 0.03,0 0.04,0 0,-0.01 0.01,-0.01 0.02,-0.02 0,0 0,-0.01 0,-0.02 0,-0.01 0,-0.01 0,-0.02 -0.01,0 -0.02,-0.01 -0.03,-0.01 0,-0.01 -0.02,-0.01 -0.04,-0.01 -0.02,-0.01 -0.03,-0.01 -0.04,-0.02 -0.01,-0.01 -0.02,-0.01 -0.03,-0.02 0,-0.01 -0.01,-0.02 -0.01,-0.03 0,-0.01 0.01,-0.03 0.01,-0.04 0.01,-0.01 0.02,-0.02 0.03,-0.02 0.02,-0.01 0.03,-0.01 0.05,-0.01 0.01,0 0.03,0 0.04,0.01 0.02,0.01 0.03,0.01 0.03,0.02 0.01,0.02 0.01,0.03 0.02,0.04l-0.03 0.01c-0.01,-0.02 -0.01,-0.03 -0.02,-0.04 -0.01,-0.01 -0.02,-0.01 -0.04,-0.01 -0.02,0 -0.03,0 -0.04,0.01 -0.01,0.01 -0.02,0.02 -0.02,0.03 0,0 0.01,0.01 0.01,0.02 0.01,0 0.02,0.01 0.05,0.01 0.03,0.01 0.04,0.02 0.05,0.02 0.02,0.01 0.03,0.01 0.03,0.02 0.01,0.01 0.01,0.03 0.01,0.04 0,0.01 0,0.02 -0.01,0.04 -0.01,0.01 -0.02,0.02 -0.03,0.02 -0.01,0.01 -0.03,0.01 -0.04,0.01 -0.03,0 -0.04,0 -0.06,-0.01 -0.01,0 -0.02,-0.01 -0.03,-0.03 -0.01,-0.01 -0.01,-0.02 -0.02,-0.04zm0.21 0.08l0.09 -0.25 0.03 0 0.1 0.25 -0.04 0 -0.02 -0.08 -0.1 0 -0.03 0.08 -0.03 0zm0.07 -0.1l0.08 0 -0.03 -0.07c0,-0.02 -0.01,-0.04 -0.01,-0.05 -0.01,0.02 -0.01,0.03 -0.02,0.05l-0.02 0.07zm0.22 0.1l-0.09 -0.25 0.03 0 0.06 0.18c0.01,0.01 0.01,0.03 0.01,0.04 0.01,-0.01 0.01,-0.03 0.02,-0.04l0.06 -0.18 0.03 0 -0.09 0.25 -0.03 0zm0.15 0l0 -0.25 0.17 0 0 0.03 -0.14 0 0 0.08 0.13 0 0 0.03 -0.13 0 0 0.08 0.15 0 0 0.03 -0.18 0zm0.37 0l0 -0.11 -0.09 -0.14 0.04 0 0.05 0.08c0,0.01 0.01,0.03 0.02,0.04 0.01,-0.01 0.02,-0.03 0.03,-0.04l0.04 -0.08 0.04 0 -0.1 0.14 0 0.11 -0.03 0zm0.15 -0.12c0,-0.04 0.01,-0.07 0.03,-0.1 0.02,-0.02 0.05,-0.03 0.08,-0.03 0.02,0 0.04,0.01 0.06,0.02 0.02,0.01 0.03,0.02 0.04,0.04 0.01,0.02 0.01,0.04 0.01,0.07 0,0.02 0,0.04 -0.01,0.06 -0.01,0.02 -0.03,0.04 -0.04,0.05 -0.02,0.01 -0.04,0.01 -0.06,0.01 -0.02,0 -0.04,0 -0.06,-0.02 -0.02,-0.01 -0.03,-0.02 -0.04,-0.04 -0.01,-0.02 -0.01,-0.04 -0.01,-0.06zm0.03 0c0,0.03 0.01,0.05 0.02,0.07 0.02,0.02 0.04,0.02 0.06,0.02 0.02,0 0.04,0 0.06,-0.02 0.01,-0.02 0.02,-0.04 0.02,-0.07 0,-0.02 0,-0.04 -0.01,-0.06 -0.01,-0.01 -0.02,-0.02 -0.03,-0.03 -0.01,-0.01 -0.03,-0.01 -0.04,-0.01 -0.02,0 -0.04,0.01 -0.06,0.02 -0.01,0.02 -0.02,0.04 -0.02,0.08zm0.39 -0.13l0.03 0 0 0.14c0,0.03 0,0.05 -0.01,0.06 -0.01,0.02 -0.02,0.03 -0.03,0.04 -0.01,0.01 -0.03,0.01 -0.05,0.01 -0.03,0 -0.04,0 -0.06,-0.01 -0.01,-0.01 -0.02,-0.02 -0.03,-0.03 0,-0.02 -0.01,-0.04 -0.01,-0.07l0 -0.14 0.03 0 0 0.14c0,0.03 0.01,0.04 0.01,0.05 0,0.01 0.01,0.02 0.02,0.02 0.01,0.01 0.02,0.01 0.03,0.01 0.03,0 0.04,0 0.05,-0.01 0.01,-0.01 0.02,-0.03 0.02,-0.07l0 -0.14zm0.08 0.25l0 -0.25 0.11 0c0.02,0 0.03,0.01 0.04,0.01 0.01,0.01 0.02,0.01 0.03,0.02 0.01,0.02 0.01,0.03 0.01,0.04 0,0.02 -0.01,0.03 -0.02,0.04 -0.01,0.02 -0.02,0.02 -0.05,0.03 0.01,0 0.02,0 0.02,0.01 0.01,0.01 0.02,0.02 0.03,0.03l0.04 0.07 -0.04 0 -0.03 -0.05c-0.01,-0.02 -0.02,-0.03 -0.02,-0.04 -0.01,0 -0.02,-0.01 -0.02,-0.01 0,-0.01 -0.01,-0.01 -0.01,-0.01 -0.01,0 -0.01,0 -0.02,0l-0.04 0 0 0.11 -0.03 0zm0.03 -0.14l0.07 0c0.01,0 0.02,0 0.03,0 0.01,-0.01 0.02,-0.01 0.02,-0.02 0,0 0.01,-0.01 0.01,-0.02 0,-0.01 -0.01,-0.02 -0.02,-0.03 0,0 -0.02,-0.01 -0.03,-0.01l-0.08 0 0 0.08zm0.3 0.14l0 -0.25 0.17 0 0 0.03 -0.14 0 0 0.08 0.13 0 0 0.03 -0.13 0 0 0.08 0.15 0 0 0.03 -0.18 0zm0.22 0l0 -0.25 0.03 0 0.13 0.19 0 -0.19 0.03 0 0 0.25 -0.04 0 -0.12 -0.19 0 0.19 -0.03 0zm0.24 0l0 -0.25 0.17 0 0 0.03 -0.14 0 0 0.08 0.13 0 0 0.03 -0.13 0 0 0.08 0.14 0 0 0.03 -0.17 0zm0.22 0l0 -0.25 0.1 0c0.02,0 0.04,0.01 0.05,0.01 0.01,0.01 0.02,0.01 0.03,0.02 0,0.02 0.01,0.03 0.01,0.04 0,0.02 -0.01,0.03 -0.02,0.04 -0.01,0.02 -0.03,0.02 -0.05,0.03 0.01,0 0.01,0 0.02,0.01 0.01,0.01 0.02,0.02 0.03,0.03l0.04 0.07 -0.04 0 -0.03 -0.05c-0.01,-0.02 -0.02,-0.03 -0.03,-0.04 0,0 -0.01,-0.01 -0.01,-0.01 -0.01,-0.01 -0.01,-0.01 -0.02,-0.01 0,0 -0.01,0 -0.01,0l-0.04 0 0 0.11 -0.03 0zm0.03 -0.14l0.07 0c0.01,0 0.02,0 0.03,0 0.01,-0.01 0.01,-0.01 0.02,-0.02 0,0 0,-0.01 0,-0.02 0,-0.01 0,-0.02 -0.01,-0.03 -0.01,0 -0.02,-0.01 -0.04,-0.01l-0.07 0 0 0.08zm0.32 0.04l0 -0.03 0.1 0 0 0.09c-0.02,0.02 -0.04,0.03 -0.05,0.03 -0.02,0.01 -0.03,0.01 -0.05,0.01 -0.03,0 -0.05,0 -0.06,-0.01 -0.02,-0.01 -0.04,-0.03 -0.05,-0.05 -0.01,-0.02 -0.01,-0.04 -0.01,-0.06 0,-0.03 0,-0.05 0.01,-0.07 0.01,-0.02 0.03,-0.03 0.04,-0.04 0.02,-0.01 0.04,-0.02 0.07,-0.02 0.01,0 0.03,0 0.04,0.01 0.02,0 0.03,0.01 0.03,0.02 0.01,0.01 0.02,0.03 0.02,0.04l-0.03 0.01c0,-0.01 0,-0.02 -0.01,-0.03 0,-0.01 -0.01,-0.01 -0.02,-0.02 -0.01,0 -0.02,0 -0.03,0 -0.02,0 -0.03,0 -0.04,0 -0.01,0.01 -0.02,0.02 -0.03,0.02 0,0.01 -0.01,0.02 -0.01,0.03 -0.01,0.01 -0.01,0.03 -0.01,0.05 0,0.02 0,0.04 0.01,0.05 0.01,0.01 0.02,0.03 0.03,0.03 0.02,0.01 0.03,0.01 0.05,0.01 0.01,0 0.02,0 0.04,-0.01 0.01,0 0.02,-0.01 0.03,-0.01l0 -0.05 -0.07 0zm0.21 0.1l0 -0.11 -0.09 -0.14 0.04 0 0.04 0.08c0.01,0.01 0.02,0.03 0.03,0.04 0,-0.01 0.01,-0.03 0.02,-0.04l0.05 -0.08 0.03 0 -0.09 0.14 0 0.11 -0.03 0z"/>
   <polygon class="fil2" points="4.75,1.28 8.13,1.28 8.13,1.36 4.75,1.36 "/>
   <polygon class="fil2" points="4.75,1.78 8.13,1.78 8.13,1.85 4.75,1.85 "/>
  </g>
 </g>
</svg>
