<?xml version="1.0" encoding="UTF-8"?>
<!DOCTYPE svg PUBLIC "-//W3C//DTD SVG 1.1//EN" "http://www.w3.org/Graphics/SVG/1.1/DTD/svg11.dtd">
<!-- Creator: CorelDRAW 2020 (64-Bit) -->
<svg xmlns="http://www.w3.org/2000/svg" xml:space="preserve" width="57px" height="18px" version="1.1" style="shape-rendering:geometricPrecision; text-rendering:geometricPrecision; image-rendering:optimizeQuality; fill-rule:evenodd; clip-rule:evenodd"
viewBox="0 0 6.49 2.11"
 xmlns:xlink="http://www.w3.org/1999/xlink"
 xmlns:xodm="http://www.corel.com/coreldraw/odm/2003">
 <defs>
  <style type="text/css">
   <![CDATA[
    .fil0 {fill:#0056A6}
    .fil1 {fill:#0056A6;fill-rule:nonzero}
   ]]>
  </style>
 </defs>
 <g id="Layer_x0020_1">
  <metadata id="CorelCorpID_0Corel-Layer"/>
  <g id="_2516322328176">
   <polygon class="fil0" points="0.33,1.36 0,1.36 0,0.01 0.33,0.01 0.33,0.41 0.62,0 1.02,0 0.54,0.68 1.02,1.36 0.62,1.36 0.33,0.95 "/>
   <path class="fil0" d="M1.45 0c0.37,0 0.68,0.3 0.68,0.68 0,0.37 -0.31,0.68 -0.68,0.68 -0.38,0 -0.68,-0.31 -0.68,-0.68 0,-0.38 0.3,-0.68 0.68,-0.68zm0 0.31c0.2,0 0.36,0.17 0.36,0.37 0,0.2 -0.16,0.36 -0.36,0.36 -0.2,0 -0.37,-0.16 -0.37,-0.36 0,-0.2 0.17,-0.37 0.37,-0.37z"/>
   <path class="fil0" d="M2.7 0.01l-0.51 -0.01 0 1.36c0.18,0 0.35,0 0.53,0 0.17,0 0.35,-0.16 0.35,-0.38 0.01,-0.21 -0.09,-0.26 -0.14,-0.29 0.06,-0.03 0.14,-0.09 0.14,-0.29 0.01,-0.19 -0.13,-0.39 -0.37,-0.39zm-0.01 0.81l-0.2 0 0 0.23c0.06,0 0.12,0 0.18,0 0.05,0 0.11,-0.04 0.11,-0.11 0,-0.08 -0.05,-0.11 -0.09,-0.12zm0 -0.5l-0.2 0 0 0.23c0.06,0 0.12,0 0.18,0 0.05,0 0.11,-0.04 0.11,-0.11 0,-0.08 -0.05,-0.11 -0.09,-0.12z"/>
   <path class="fil0" d="M3.5 0l0.36 0 0 0.33 -0.34 0c-0.05,0 -0.09,0.04 -0.09,0.09l0 0.04c0,0.02 0,0.04 0,0.09 0.04,0 0.06,0 0.09,0l0.34 0 0 0.27 -0.34 0c-0.03,0 -0.05,0 -0.09,0 0,0.04 0,0.07 0,0.09l0 0.04c0,0.05 0.04,0.09 0.09,0.09l0.34 0 0 0.32 -0.36 0c-0.2,0 -0.37,-0.17 -0.37,-0.37l0 -0.61c0,-0.21 0.17,-0.38 0.37,-0.38z"/>
   <path class="fil0" d="M4.85 0l0.36 0 0 0.33 -0.31 0c-0.05,0 -0.09,0.04 -0.09,0.09l0 0.52c0,0.05 0.05,0.1 0.1,0.1l0.3 0 0 0.32 -0.36 0c-0.21,0 -0.38,-0.17 -0.38,-0.37l0 -0.61c0,-0.21 0.17,-0.38 0.38,-0.38z"/>
   <polygon class="fil0" points="3.92,0 4.22,0 4.22,1.03 4.47,1.03 4.47,1.36 4.22,1.36 4.15,1.36 3.92,1.36 "/>
   <path class="fil0" d="M5.82 0c0.37,0 0.67,0.3 0.67,0.68 0,0.37 -0.3,0.68 -0.67,0.68 -0.38,0 -0.68,-0.31 -0.68,-0.68 0,-0.38 0.3,-0.68 0.68,-0.68zm0 0.31c0.2,0 0.36,0.17 0.36,0.37 0,0.2 -0.16,0.36 -0.36,0.36 -0.21,0 -0.37,-0.16 -0.37,-0.36 0,-0.2 0.16,-0.37 0.37,-0.37z"/>
   <path class="fil1" d="M0.02 2.11l0 -0.45 0.05 0 0 0.19 0.04 0 0.19 -0.19 0.07 0 -0.22 0.21 0.25 0.24 -0.08 0 -0.21 -0.21 -0.04 0 0 0.21 -0.05 0zm0.61 -0.41l-0.03 0c-0.03,0 -0.05,0 -0.07,0 -0.01,0.01 -0.02,0.01 -0.03,0.02 -0.01,0.01 -0.02,0.02 -0.02,0.03 -0.01,0.01 -0.01,0.04 -0.01,0.07l0 0.13c0,0.03 0,0.05 0.01,0.06 0,0.01 0.01,0.03 0.02,0.03 0.01,0.01 0.02,0.02 0.03,0.02 0.02,0 0.04,0 0.07,0l0.03 0c0.03,0 0.06,0 0.07,0 0.01,0 0.03,-0.01 0.04,-0.02 0,0 0.01,-0.01 0.01,-0.03 0.01,-0.01 0.01,-0.03 0.01,-0.06l0 -0.13c0,-0.03 0,-0.06 -0.01,-0.07 0,-0.01 -0.01,-0.02 -0.01,-0.03 -0.01,-0.01 -0.03,-0.01 -0.04,-0.02 -0.01,0 -0.04,0 -0.07,0zm-0.21 0.11c0,-0.06 0.01,-0.1 0.04,-0.12 0.02,-0.03 0.06,-0.04 0.13,-0.04l0.06 0c0.06,0 0.1,0.01 0.13,0.04 0.02,0.02 0.03,0.06 0.03,0.12l0 0.15c0,0.06 -0.01,0.1 -0.03,0.12 -0.03,0.02 -0.07,0.03 -0.13,0.03l-0.06 0c-0.07,0 -0.11,-0.01 -0.13,-0.03 -0.03,-0.02 -0.04,-0.06 -0.04,-0.12l0 -0.15zm0.54 0.04l0.17 0c0.03,0 0.05,0 0.06,-0.01 0.01,-0.01 0.01,-0.03 0.01,-0.07 0,-0.03 -0.01,-0.05 -0.02,-0.05 -0.01,-0.01 -0.03,-0.02 -0.07,-0.02l-0.15 0 0 0.15zm0 0.21l0.17 0c0.03,0 0.05,-0.01 0.06,-0.01 0.02,-0.01 0.02,-0.04 0.02,-0.08 0,-0.03 -0.01,-0.05 -0.02,-0.06 -0.01,-0.01 -0.04,-0.01 -0.09,-0.01l-0.14 0 0 0.16zm-0.05 0.05l0 -0.45 0.22 0c0.05,0 0.08,0 0.1,0.02 0.01,0.01 0.02,0.04 0.02,0.09 0,0.03 0,0.06 -0.01,0.07 -0.01,0.02 -0.02,0.03 -0.04,0.03 0.02,0.01 0.04,0.02 0.05,0.03 0.01,0.02 0.01,0.04 0.01,0.08 0,0.05 -0.01,0.08 -0.03,0.1 -0.02,0.02 -0.06,0.03 -0.12,0.03l-0.2 0zm0.45 0l0 -0.45 0.33 0 0 0.04 -0.28 0 0 0.15 0.27 0 0 0.05 -0.27 0 0 0.16 0.28 0 0 0.05 -0.33 0zm0.61 -0.15l0.05 0 0 0.01c0,0.03 0.01,0.04 0.01,0.06 0.01,0.01 0.01,0.02 0.02,0.02 0.01,0.01 0.02,0.01 0.04,0.01 0.01,0 0.04,0.01 0.09,0.01 0.03,0 0.05,-0.01 0.06,-0.01 0.02,0 0.03,-0.01 0.04,-0.02 0,0 0,-0.01 0.01,-0.02 0,-0.01 0,-0.02 0,-0.04 0,-0.03 0,-0.05 -0.01,-0.06 -0.01,-0.01 -0.02,-0.01 -0.04,-0.01l-0.15 -0.01c-0.04,-0.01 -0.07,-0.02 -0.09,-0.04 -0.01,-0.01 -0.02,-0.04 -0.02,-0.08 0,-0.03 0,-0.05 0.01,-0.07 0,-0.01 0.01,-0.03 0.02,-0.04 0.01,0 0.03,-0.01 0.04,-0.01 0.02,-0.01 0.05,-0.01 0.09,-0.01l0.02 0c0.05,0 0.08,0 0.1,0.01 0.02,0 0.04,0.01 0.05,0.02 0.01,0.01 0.01,0.02 0.02,0.03 0,0.02 0.01,0.03 0.01,0.05 0,0.01 0,0.01 0,0.02 -0.01,0 -0.01,0 -0.01,0l-0.05 0 0 -0.01c0,-0.01 0,-0.03 0,-0.04 0,0 -0.01,-0.01 -0.01,-0.01 -0.01,-0.01 -0.02,-0.02 -0.03,-0.02 -0.02,0 -0.05,0 -0.1,0 -0.05,0 -0.08,0 -0.09,0.01 -0.01,0.01 -0.02,0.04 -0.02,0.07 0,0.02 0.01,0.04 0.01,0.05 0.01,0.01 0.03,0.02 0.05,0.02l0.15 0.01c0.04,0 0.06,0.01 0.08,0.03 0.01,0.02 0.02,0.05 0.02,0.09 0,0.03 0,0.05 0,0.06 -0.01,0.02 -0.02,0.03 -0.02,0.04 -0.02,0.01 -0.03,0.02 -0.05,0.03 -0.02,0 -0.05,0 -0.1,0l-0.03 0c-0.04,0 -0.07,0 -0.09,0 -0.02,-0.01 -0.03,-0.02 -0.04,-0.03 -0.01,-0.01 -0.02,-0.02 -0.03,-0.04 0,-0.01 -0.01,-0.03 -0.01,-0.06l0 -0.02zm0.41 -0.26l0 -0.04 0.35 0 0 0.04 -0.15 0 0 0.41 -0.05 0 0 -0.41 -0.15 0zm0.4 0.41l0 -0.45 0.32 0 0 0.04 -0.27 0 0 0.15 0.26 0 0 0.05 -0.26 0 0 0.16 0.27 0 0 0.05 -0.32 0zm0.41 0l0 -0.45 0.32 0 0 0.04 -0.27 0 0 0.15 0.26 0 0 0.05 -0.26 0 0 0.16 0.27 0 0 0.05 -0.32 0zm0.4 0l0 -0.45 0.06 0 0 0.4 0.26 0 0 0.05 -0.32 0zm0.59 -0.3c0,-0.06 0.01,-0.1 0.03,-0.12 0.03,-0.03 0.07,-0.04 0.13,-0.04l0.06 0c0.06,0 0.1,0.01 0.13,0.03 0.03,0.02 0.04,0.05 0.04,0.09l0 0.02 -0.05 0 0 -0.01c0,-0.03 -0.01,-0.05 -0.03,-0.06 -0.01,-0.02 -0.05,-0.02 -0.09,-0.02l-0.04 0c-0.03,0 -0.06,0 -0.07,0 -0.01,0.01 -0.03,0.01 -0.04,0.02 -0.01,0.01 -0.01,0.02 -0.02,0.03 0,0.01 0,0.04 0,0.07l0 0.13c0,0.03 0,0.05 0,0.06 0.01,0.02 0.01,0.03 0.02,0.03 0.01,0.01 0.02,0.02 0.04,0.02 0.01,0 0.04,0 0.07,0l0.04 0c0.03,0 0.05,0 0.06,0 0.01,0 0.02,-0.01 0.03,-0.01 0.01,-0.01 0.02,-0.02 0.02,-0.03 0,-0.01 0.01,-0.04 0.01,-0.06l0 -0.03 -0.13 0 0 -0.05 0.18 0 0 0.08c0,0.06 -0.01,0.1 -0.04,0.12 -0.02,0.02 -0.07,0.03 -0.13,0.03l-0.06 0c-0.06,0 -0.1,-0.01 -0.13,-0.03 -0.02,-0.02 -0.03,-0.06 -0.03,-0.12l0 -0.15zm0.68 -0.11l-0.15 0 0 0.18 0.15 0c0.04,0 0.07,0 0.08,-0.01 0.01,-0.01 0.02,-0.03 0.02,-0.05l0 -0.05c0,-0.03 -0.01,-0.04 -0.02,-0.05 -0.01,-0.01 -0.04,-0.02 -0.08,-0.02zm-0.2 0.41l0 -0.45 0.21 0c0.06,0 0.09,0 0.11,0.02 0.02,0.01 0.03,0.04 0.03,0.08l0 0.07c0,0.02 0,0.04 -0.01,0.05 -0.01,0.02 -0.03,0.02 -0.05,0.03 0.02,0 0.04,0.01 0.05,0.03 0.01,0.01 0.01,0.03 0.01,0.06l0 0.11 -0.05 0 0 -0.1c0,-0.03 -0.01,-0.05 -0.02,-0.06 -0.01,-0.01 -0.03,-0.02 -0.06,-0.02l-0.17 0 0 0.18 -0.05 0zm0.65 -0.41l-0.03 0c-0.03,0 -0.06,0 -0.07,0 -0.01,0.01 -0.03,0.01 -0.04,0.02 -0.01,0.01 -0.01,0.02 -0.02,0.03 0,0.01 0,0.04 0,0.07l0 0.13c0,0.03 0,0.05 0,0.06 0.01,0.01 0.01,0.03 0.02,0.03 0.01,0.01 0.03,0.02 0.04,0.02 0.01,0 0.04,0 0.07,0l0.03 0c0.03,0 0.05,0 0.07,0 0.01,0 0.02,-0.01 0.03,-0.02 0.01,0 0.02,-0.01 0.02,-0.03 0,-0.01 0.01,-0.03 0.01,-0.06l0 -0.13c0,-0.03 -0.01,-0.06 -0.01,-0.07 0,-0.01 -0.01,-0.02 -0.02,-0.03 -0.01,-0.01 -0.02,-0.01 -0.03,-0.02 -0.02,0 -0.04,0 -0.07,0zm-0.21 0.11c0,-0.06 0.01,-0.1 0.03,-0.12 0.03,-0.03 0.07,-0.04 0.13,-0.04l0.06 0c0.07,0 0.11,0.01 0.13,0.04 0.03,0.02 0.04,0.06 0.04,0.12l0 0.15c0,0.06 -0.01,0.1 -0.04,0.12 -0.02,0.02 -0.07,0.03 -0.13,0.03l-0.06 0c-0.06,0 -0.1,-0.01 -0.13,-0.03 -0.02,-0.02 -0.03,-0.06 -0.03,-0.12l0 -0.15zm0.48 -0.15l0.05 0 0 0.29c0,0.03 0.01,0.05 0.01,0.06 0,0.01 0.01,0.02 0.02,0.03 0,0.01 0.01,0.01 0.03,0.02 0.01,0 0.03,0 0.06,0l0.04 0c0.03,0 0.05,0 0.07,0 0.01,-0.01 0.02,-0.01 0.03,-0.02 0,-0.01 0.01,-0.02 0.01,-0.03 0,-0.01 0.01,-0.03 0.01,-0.06l0 -0.29 0.05 0 0 0.3c0,0.06 -0.01,0.1 -0.04,0.12 -0.02,0.02 -0.06,0.03 -0.12,0.03l-0.06 0c-0.06,0 -0.1,-0.01 -0.12,-0.03 -0.03,-0.02 -0.04,-0.06 -0.04,-0.12l0 -0.3zm0.77 0.17l0 -0.07c0,-0.02 -0.01,-0.04 -0.02,-0.04 -0.01,-0.01 -0.03,-0.02 -0.07,-0.02l-0.14 0 0 0.18 0.14 0c0.04,0 0.06,0 0.07,-0.01 0.01,-0.01 0.02,-0.02 0.02,-0.04zm-0.28 0.28l0 -0.45 0.19 0c0.05,0 0.09,0 0.11,0.02 0.02,0.01 0.03,0.04 0.03,0.08l0 0.07c0,0.04 -0.01,0.06 -0.03,0.08 -0.02,0.01 -0.06,0.02 -0.11,0.02l-0.14 0 0 0.18 -0.05 0z"/>
  </g>
 </g>
</svg>
