<?xml version="1.0" encoding="UTF-8"?>
<!DOCTYPE svg PUBLIC "-//W3C//DTD SVG 1.1//EN" "http://www.w3.org/Graphics/SVG/1.1/DTD/svg11.dtd">
<!-- Creator: CorelDRAW 2020 (64-Bit) -->
<svg xmlns="http://www.w3.org/2000/svg" xml:space="preserve" width="78px" height="17px" version="1.1" style="shape-rendering:geometricPrecision; text-rendering:geometricPrecision; image-rendering:optimizeQuality; fill-rule:evenodd; clip-rule:evenodd"
viewBox="0 0 49.18 10.9"
 xmlns:xlink="http://www.w3.org/1999/xlink"
 xmlns:xodm="http://www.corel.com/coreldraw/odm/2003">
 <defs>
  <style type="text/css">
   <![CDATA[
    .fil0 {fill:#0026C5}
   ]]>
  </style>
 </defs>
 <g id="Layer_x0020_1">
  <metadata id="CorelCorpID_0Corel-Layer"/>
  <g id="_2448591217104">
   <path class="fil0" d="M1.6 10.77c0.04,-1.73 -0.01,-3.32 0.05,-4.17 0.02,-0.44 0.57,-0.78 1.28,-0.76 0.62,0.02 1.2,0.38 1.22,0.81 0.04,1.09 0,2.36 0.02,4.13l1.65 0c0.01,-2.25 0,-2.87 -0.02,-4.16 0,-0.45 0.56,-0.8 1.29,-0.78 0.67,0.03 1.14,0.31 1.18,0.73 0.05,0.62 0.05,1.92 0.04,4.21l1.65 0c0.01,-1.51 0,-3.01 -0.05,-4.35 -0.02,-0.54 -0.21,-0.94 -0.57,-1.36 -0.46,-0.53 -1.25,-0.98 -2.25,-0.96 -1.15,0.02 -1.59,0.6 -2.14,1.03 -0.54,-0.38 -0.98,-1.04 -2.28,-1.03 -0.9,0.01 -1.76,0.48 -2.15,0.93 -0.39,0.46 -0.45,0.82 -0.47,1.39 -0.04,1.42 -0.05,3.26 -0.05,4.36l1.6 -0.02z"/>
   <path class="fil0" d="M14.17 9.4c-1.14,-0.01 -1.51,-0.35 -1.48,-1.98 0.01,-0.81 0,-1.87 -0.03,-3.21l-1.62 0c0,1.24 -0.01,2.44 0,3.64 0,0.31 0.01,0.57 0.04,0.79 0.19,1.47 1.75,2.23 3.11,2.26 1.25,0.03 2.99,-0.86 3.02,-2.27 0.03,-1.28 0.04,-3.22 0.06,-4.39l-1.6 -0.03c-0.04,1.05 -0.01,2.18 -0.01,3.23 0.01,0.8 0.04,1.98 -1.49,1.96z"/>
   <path class="fil0" d="M19.97 6.72c-0.01,-0.65 0.67,-1.16 1.61,-1.1 0.69,0.05 1.29,0.43 1.31,1.01 0.04,1.16 0.06,2.5 0.05,4.2l1.6 0c-0.01,-1.1 -0.02,-3.02 -0.03,-4.37 -0.33,-2.27 -3.14,-2.79 -4.88,-1.84 -0.78,0.42 -1.13,0.96 -1.25,1.81 -0.01,1.32 -0.01,3.13 0,4.38l1.55 0c0.02,-0.92 0.04,-2.38 0.04,-4.09z"/>
   <path class="fil0" d="M23.86 4.04c0.74,0.23 1.35,1 1.48,2.13 0.87,-0.72 2.8,-0.55 2.81,0.39l0.05 4.24 1.63 0c0.02,-1.97 0.02,-3.06 0.01,-4.35 -0.05,-1.59 -1.69,-2.96 -4.2,-2.24l-0.02 -4.21 -1.78 0 0.02 4.04z"/>
   <path class="fil0" d="M39.32 8.41c-0.04,0.86 -2.38,1.04 -2.49,0.04 -0.07,-1.17 -0.03,-2.46 -0.09,-4.28l-1.62 0c0.04,1.8 0.03,2.62 0.02,4.29 -0.11,0.9 -2.4,0.89 -2.52,0.05 -0.01,-1.26 0.01,-2.47 0.01,-4.33l-1.67 0.01c0.04,2.3 0.02,2.86 0.04,4.37 0.02,0.52 0.28,1.03 0.56,1.32 1.35,1.46 2.95,1.15 4.37,0.05 0.73,0.39 1.04,0.99 2.4,0.92 1.27,-0.07 2.46,-1 2.61,-2.3 0.01,-1.42 0.03,-3.05 -0.03,-4.34 -0.8,-0.01 -0.94,-0.01 -1.63,0l0.04 4.2z"/>
   <path class="fil0" d="M43.73 7.34c-0.05,-2.47 3.85,-2.52 3.74,0.02l-3.74 -0.02zm0 1.17l3.78 0 0.03 2.29 1.63 0c0.01,-1 0.04,-2.95 -0.07,-4.38 -0.04,-0.22 -0.09,-0.4 -0.16,-0.53 -1.13,-2.27 -5.41,-2.44 -6.65,0.03 -0.03,0.13 -0.2,0.33 -0.18,0.91 0.01,1.5 -0.01,2.61 0.01,3.97l1.6 0 0.01 -2.29z"/>
  </g>
 </g>
</svg>
