<?xml version="1.0" encoding="UTF-8"?>
<!DOCTYPE svg PUBLIC "-//W3C//DTD SVG 1.1//EN" "http://www.w3.org/Graphics/SVG/1.1/DTD/svg11.dtd">
<!-- Creator: CorelDRAW 2020 (64-Bit) -->
<svg xmlns="http://www.w3.org/2000/svg" xml:space="preserve" width="89px" height="14px" version="1.1" style="shape-rendering:geometricPrecision; text-rendering:geometricPrecision; image-rendering:optimizeQuality; fill-rule:evenodd; clip-rule:evenodd"
viewBox="0 0 21.29 3.32"
 xmlns:xlink="http://www.w3.org/1999/xlink"
 xmlns:xodm="http://www.corel.com/coreldraw/odm/2003">
 <defs>
  <style type="text/css">
   <![CDATA[
    .fil0 {fill:#DF1E1F}
    .fil2 {fill:#E01E1F}
    .fil1 {fill:#FDFDFD}
   ]]>
  </style>
 </defs>
 <g id="Layer_x0020_1">
  <metadata id="CorelCorpID_0Corel-Layer"/>
  <g id="_2448536524832">
   <g>
    <path class="fil0" d="M14.33 0.62c-0.12,0.02 -0.15,0 -0.3,0.04 -0.12,0.03 -0.29,0.09 -0.28,0.24 0.01,0.06 0.03,0.08 0.07,0.11 0.08,0.06 0.16,0.08 0.18,0.16 0.06,0.25 -0.12,1.18 -0.18,1.49 -0.02,0.09 -0.04,0.2 -0.1,0.25 -0.06,0.05 -0.17,0.06 -0.21,0.13 -0.02,0.04 -0.02,0.1 0.01,0.14 0.11,0.19 0.81,0.15 0.97,0.02 0.07,-0.05 0.12,-0.15 0.02,-0.21 -0.07,-0.05 -0.14,-0.06 -0.15,-0.19 -0.01,-0.13 0.03,-0.5 0.06,-0.62 0.02,-0.04 0.03,-0.09 0.06,-0.11 0.05,-0.04 0.09,0.02 0.1,0.05 0.11,0.19 0.25,0.71 0.39,0.98 0.15,0.3 0.35,-0.18 0.46,-0.36 0.09,-0.16 0.28,-0.52 0.41,-0.61 0.2,-0.14 0.08,0.41 0.07,0.48 -0.02,0.08 -0.04,0.2 -0.08,0.25 -0.05,0.06 -0.14,0.1 -0.18,0.16 -0.07,0.1 0.02,0.19 0.09,0.22 0.21,0.09 1,0.09 1.21,-0.03 0.06,-0.04 0.12,-0.13 0.06,-0.22 -0.04,-0.06 -0.14,-0.12 -0.16,-0.18 -0.03,-0.06 -0.01,-0.23 -0.01,-0.3 0.04,-0.55 0.02,-0.69 0.15,-1.23 0.02,-0.12 0.04,-0.15 0.12,-0.22 0.05,-0.05 0.15,-0.1 0.16,-0.18 0.02,-0.21 -0.25,-0.24 -0.42,-0.26 -0.19,-0.02 -0.46,0 -0.59,0.08 -0.09,0.06 -0.24,0.28 -0.31,0.38 -0.04,0.07 -0.08,0.14 -0.13,0.21 -0.06,0.11 -0.19,0.33 -0.27,0.41 -0.1,0.09 -0.15,0.02 -0.21,-0.05 -0.08,-0.12 -0.15,-0.32 -0.21,-0.47 -0.03,-0.08 -0.08,-0.17 -0.1,-0.24 -0.02,-0.06 -0.09,-0.18 -0.12,-0.23 -0.05,-0.06 -0.16,-0.08 -0.25,-0.09 -0.11,-0.01 -0.23,-0.01 -0.33,0z"/>
    <path class="fil0" d="M4.29 1.16c0.34,-0.06 0.51,0.4 0.56,0.69 0.03,0.18 0.06,0.39 0.02,0.58 -0.04,0.15 -0.14,0.3 -0.31,0.33 -0.21,0.03 -0.31,-0.09 -0.39,-0.23 -0.08,-0.12 -0.14,-0.31 -0.17,-0.47 -0.04,-0.27 -0.1,-0.56 0.08,-0.78 0.06,-0.07 0.12,-0.1 0.21,-0.12zm0.24 -0.55c-0.25,0.02 -0.36,0.02 -0.61,0.11 -0.51,0.19 -0.91,0.6 -1,1.15 -0.14,0.9 0.53,1.48 1.4,1.44 0.53,-0.02 1.11,-0.29 1.4,-0.75 0.22,-0.34 0.28,-0.74 0.13,-1.13 -0.06,-0.17 -0.15,-0.32 -0.27,-0.44 -0.03,-0.03 -0.06,-0.05 -0.09,-0.09 -0.03,-0.02 -0.07,-0.05 -0.11,-0.07 -0.24,-0.16 -0.55,-0.25 -0.85,-0.22z"/>
    <path class="fil0" d="M7.69 0.61c-0.27,0.03 -0.55,0.1 -0.78,0.24 -0.23,0.15 -0.37,0.26 -0.54,0.48 -0.34,0.45 -0.34,1.08 0.02,1.51 0.14,0.17 0.37,0.33 0.62,0.4 0.27,0.08 0.61,0.11 0.89,0.02 0.06,-0.03 0.12,-0.04 0.19,-0.07 0.06,-0.02 0.13,-0.05 0.19,-0.07 0.13,-0.04 0.18,0.01 0.34,-0.17 0.11,-0.12 0.27,-0.38 0.13,-0.54 -0.08,-0.09 -0.21,0.02 -0.32,0.1 -0.14,0.1 -0.46,0.15 -0.64,0.11 -0.22,-0.05 -0.35,-0.14 -0.46,-0.3 -0.12,-0.17 -0.15,-0.41 -0.15,-0.62 0.01,-0.29 0.18,-0.55 0.46,-0.56 0.37,-0.02 0.49,0.13 0.64,0.38 0.08,0.13 0.12,0.25 0.24,0.27 0.17,0.03 0.3,-0.04 0.38,-0.13 0.21,-0.23 0.12,-0.83 -0.15,-0.9 -0.15,-0.03 -0.11,0.1 -0.42,-0.04 -0.06,-0.03 -0.11,-0.04 -0.18,-0.07 -0.14,-0.04 -0.3,-0.06 -0.46,-0.04z"/>
    <path class="fil0" d="M1.51 1.05c0.1,-0.02 0.22,0.01 0.28,0.06 0.19,0.18 0.14,0.6 -0.09,0.73 -0.07,0.04 -0.2,0.06 -0.3,0.03 -0.06,-0.02 -0.07,-0.05 -0.06,-0.11 0.02,-0.14 0.04,-0.34 0.05,-0.48 0.02,-0.17 0,-0.22 0.12,-0.23zm-1.51 2.04l0 -0.05c0,-0.01 0,-0.01 0,-0.01 0.02,-0.02 0.02,-0.03 0.04,-0.05 0.07,-0.08 0.23,-0.1 0.27,-0.21 0.04,-0.09 0.09,-0.72 0.11,-0.84 0.02,-0.22 0.05,-0.46 0.07,-0.68 0.04,-0.3 -0.38,-0.18 -0.32,-0.43 0.06,-0.19 0.42,-0.14 0.62,-0.14 0.25,0 0.49,-0.01 0.73,-0.02 0.25,-0.02 0.4,-0.06 0.69,0.01 0.19,0.05 0.37,0.14 0.47,0.28 0.19,0.25 0.18,0.61 0.01,0.87 -0.05,0.07 -0.12,0.15 -0.18,0.2 -0.52,0.43 -1.07,0.24 -1.2,0.27 -0.05,0.02 -0.04,0.09 -0.05,0.14 0,0.06 -0.01,0.12 -0.01,0.17 -0.01,0.06 -0.01,0.13 0.01,0.18 0.04,0.15 0.29,0.14 0.22,0.33 -0.04,0.08 -0.14,0.12 -0.23,0.14 -0.25,0.06 -0.78,0.09 -1.04,0 -0.07,-0.02 -0.16,-0.05 -0.19,-0.13l-0.02 -0.03z"/>
    <path class="fil1" d="M11.32 0.86c0.26,-0.03 0.45,0.16 0.56,0.32 0.27,0.38 0.27,1.02 0.03,1.42 -0.09,0.17 -0.27,0.36 -0.51,0.38 -0.49,0.03 -0.75,-0.56 -0.76,-1.02 -0.01,-0.5 0.22,-1.05 0.68,-1.1zm0.38 -0.09c-0.23,0.03 -0.4,0.04 -0.62,0.12 -0.46,0.14 -0.83,0.33 -1.16,0.67 -0.18,0.19 -0.36,0.47 -0.32,0.76 0.06,0.63 0.86,0.79 1.44,0.75 0.78,-0.06 1.59,-0.47 1.93,-0.99 0.1,-0.16 0.18,-0.34 0.16,-0.57 -0.03,-0.38 -0.42,-0.61 -0.77,-0.69 -0.19,-0.04 -0.45,-0.07 -0.66,-0.05z"/>
    <path class="fil0" d="M11.7 0.77c0.21,-0.02 0.47,0.01 0.66,0.05 0.35,0.08 0.74,0.31 0.77,0.69 0.02,0.23 -0.06,0.41 -0.16,0.57 -0.34,0.52 -1.15,0.93 -1.93,0.99 -0.58,0.04 -1.38,-0.12 -1.44,-0.75 -0.04,-0.29 0.14,-0.57 0.32,-0.76 0.33,-0.34 0.7,-0.53 1.16,-0.67 0.22,-0.08 0.39,-0.09 0.62,-0.12zm-0.54 -0.18c-0.07,0 -0.14,0 -0.21,0.01 -0.24,0.03 -0.33,0.05 -0.57,0.11 -0.22,0.06 -0.47,0.16 -0.65,0.27 -0.18,0.11 -0.36,0.24 -0.48,0.42 -0.32,0.44 -0.21,0.9 0.19,1.26 0.53,0.46 1.38,0.63 2.13,0.6 0.52,-0.02 1.03,-0.17 1.42,-0.39 0.35,-0.2 0.76,-0.59 0.65,-1.13 -0.05,-0.22 -0.21,-0.42 -0.35,-0.55 -0.17,-0.15 -0.35,-0.25 -0.57,-0.35 -0.41,-0.18 -1.09,-0.3 -1.56,-0.25z"/>
    <path class="fil0" d="M11.32 0.86c-0.46,0.05 -0.69,0.6 -0.68,1.1 0.01,0.46 0.27,1.05 0.76,1.02 0.24,-0.02 0.42,-0.21 0.51,-0.38 0.24,-0.4 0.24,-1.04 -0.03,-1.42 -0.11,-0.16 -0.3,-0.35 -0.56,-0.32z"/>
    <path class="fil1" d="M4.29 1.16c-0.09,0.02 -0.15,0.05 -0.21,0.12 -0.18,0.22 -0.12,0.51 -0.08,0.78 0.03,0.16 0.09,0.35 0.17,0.47 0.08,0.14 0.18,0.26 0.39,0.23 0.17,-0.03 0.27,-0.18 0.31,-0.33 0.04,-0.19 0.01,-0.4 -0.02,-0.58 -0.05,-0.29 -0.22,-0.75 -0.56,-0.69z"/>
    <path class="fil1" d="M20.74 0.65l0.03 0.02c0.05,0.04 0.16,0.23 0.17,0.26l-0.2 0c-0.02,-0.05 -0.05,-0.1 -0.08,-0.15 -0.03,-0.04 -0.06,-0.12 -0.14,-0.1l0 0.25c-0.04,0 -0.16,0.02 -0.17,-0.02 0,-0.01 0,-0.01 0,-0.02 0,-0.01 0,-0.02 0,-0.04 0,-0.12 0,-0.51 0,-0.57 0.07,-0.01 0.2,0 0.27,0 0.08,0 0.17,0.01 0.22,0.05 0.08,0.06 0.11,0.2 -0.01,0.27 -0.03,0.02 -0.07,0.03 -0.09,0.05zm-0.15 -0.53c-0.16,0.02 -0.24,0.06 -0.34,0.16 -0.3,0.31 -0.04,0.87 0.45,0.81 0.26,-0.02 0.49,-0.24 0.46,-0.54 -0.03,-0.25 -0.29,-0.47 -0.57,-0.43z"/>
    <path class="fil0" d="M20.59 0.12c0.28,-0.04 0.54,0.18 0.57,0.43 0.03,0.3 -0.2,0.52 -0.46,0.54 -0.49,0.06 -0.75,-0.5 -0.45,-0.81 0.1,-0.1 0.18,-0.14 0.34,-0.16zm0.7 0.55l0 -0.11c-0.02,-0.03 -0.02,-0.09 -0.03,-0.12 -0.09,-0.27 -0.33,-0.45 -0.63,-0.44 -0.33,0.01 -0.63,0.27 -0.63,0.6 0,0.33 0.28,0.6 0.61,0.61 0.18,0.01 0.35,-0.06 0.46,-0.15 0.05,-0.05 0.09,-0.09 0.14,-0.16 0.06,-0.09 0.06,-0.2 0.08,-0.23z"/>
    <path class="fil1" d="M1.51 1.05c-0.12,0.01 -0.1,0.06 -0.12,0.23 -0.01,0.14 -0.03,0.34 -0.05,0.48 -0.01,0.06 0,0.09 0.06,0.11 0.1,0.03 0.23,0.01 0.3,-0.03 0.23,-0.13 0.28,-0.55 0.09,-0.73 -0.06,-0.05 -0.18,-0.08 -0.28,-0.06z"/>
    <path class="fil0" d="M20.52 0.55l0 -0.15c0.09,-0.01 0.2,-0.01 0.21,0.07 0.01,0.09 -0.12,0.1 -0.21,0.08zm0.22 0.1c0.02,-0.02 0.06,-0.03 0.09,-0.05 0.12,-0.07 0.09,-0.21 0.01,-0.27 -0.05,-0.04 -0.14,-0.05 -0.22,-0.05 -0.07,0 -0.2,-0.01 -0.27,0 0,0.06 0,0.45 0,0.57 0,0.02 0,0.03 0,0.04 0,0.01 0,0.01 0,0.02 0.01,0.04 0.13,0.02 0.17,0.02l0 -0.25c0.08,-0.02 0.11,0.06 0.14,0.1 0.03,0.05 0.06,0.1 0.08,0.15l0.2 0c-0.01,-0.03 -0.12,-0.22 -0.17,-0.26l-0.03 -0.02z"/>
    <path class="fil1" d="M20.52 0.55c0.09,0.02 0.22,0.01 0.21,-0.08 -0.01,-0.08 -0.12,-0.08 -0.21,-0.07l0 0.15z"/>
    <path class="fil0" d="M19.54 1.88c0,0 0,0 0,0z"/>
   </g>
   <path class="fil2" d="M17.52 0.93c-0.01,0.01 -0.03,0.04 -0.03,0.06 -0.11,0.18 -0.21,0.69 0.17,0.69 0.15,0 0.18,-0.06 0.26,-0.14 0.13,-0.11 0.25,-0.26 0.43,-0.34 0.17,-0.08 0.47,-0.12 0.63,0.01 0.06,0.05 0.13,0.16 0.09,0.27 -0.04,0.11 -0.12,0.14 -0.23,0.16 -0.26,0.06 -0.47,-0.06 -0.64,0.13 -0.08,0.08 -0.08,0.19 -0.01,0.28 0.07,0.1 0.16,0.08 0.3,0.08 0.11,0.01 0.24,0.04 0.3,0.09 0.13,0.1 0.08,0.22 0.08,0.28 -0.01,0.01 0,0 -0.01,0.01l-0.01 0.03c-0.01,0.01 -0.01,0.02 -0.03,0.03 -0.01,0.02 -0.03,0.05 -0.05,0.06 -0.03,0.03 -0.1,0.08 -0.16,0.09 -0.02,0.02 -0.13,0.04 -0.17,0.04 -0.06,0 -0.14,0 -0.2,-0.01l-0.24 -0.03c-0.01,0 -0.13,-0.04 -0.16,-0.05 -0.05,-0.02 -0.11,-0.04 -0.14,-0.06 -0.22,-0.14 -0.23,-0.31 -0.36,-0.26 -0.05,0.02 -0.08,0.06 -0.11,0.1 -0.07,0.1 -0.02,0.28 0.02,0.34 0.01,0.02 0.02,0.04 0.04,0.06 0.01,0.04 0.09,0.11 0.13,0.14 0.12,0.12 0.39,0.22 0.55,0.26 0.51,0.14 1.36,0.02 1.76,-0.31 0.41,-0.33 0.2,-0.76 0.2,-0.78 -0.03,-0.02 -0.05,-0.07 -0.08,-0.1 -0.03,-0.03 -0.06,-0.05 -0.1,-0.07 -0.07,-0.04 -0.15,-0.07 -0.22,-0.12 -0.01,-0.07 0.19,-0.11 0.24,-0.18 0.07,-0.01 0.37,-0.34 0.12,-0.69 -0.15,-0.2 -0.38,-0.31 -0.66,-0.36 -0.36,-0.07 -0.77,-0.01 -1.12,0.1 -0.19,0.06 -0.19,-0.08 -0.42,0.03 -0.06,0.03 -0.09,0.07 -0.13,0.11l-0.04 0.05z"/>
  </g>
 </g>
</svg>
