<?xml version="1.0" encoding="UTF-8"?>
<!DOCTYPE svg PUBLIC "-//W3C//DTD SVG 1.1//EN" "http://www.w3.org/Graphics/SVG/1.1/DTD/svg11.dtd">
<!-- Creator: CorelDRAW 2020 (64-Bit) -->
<svg xmlns="http://www.w3.org/2000/svg" xml:space="preserve" width="110px" height="23px" version="1.1" style="shape-rendering:geometricPrecision; text-rendering:geometricPrecision; image-rendering:optimizeQuality; fill-rule:evenodd; clip-rule:evenodd"
viewBox="0 0 10.78 2.25"
 xmlns:xlink="http://www.w3.org/1999/xlink"
 xmlns:xodm="http://www.corel.com/coreldraw/odm/2003">
 <defs>
  <style type="text/css">
   <![CDATA[
    .fil2 {fill:#FFED00}
    .fil0 {fill:#3F3E3E}
    .fil1 {fill:#FEFEFE;fill-rule:nonzero}
   ]]>
  </style>
 </defs>
 <g id="Layer_x0020_1">
  <metadata id="CorelCorpID_0Corel-Layer"/>
  <g id="_2448762232704">
   <path class="fil0" d="M0.01 0l10.76 0c0,0 0.01,0.01 0.01,0.01l0 2.23c0,0.01 -0.01,0.01 -0.01,0.01l-10.76 0c0,0 -0.01,0 -0.01,-0.01l0 -2.23c0,0 0.01,-0.01 0.01,-0.01z"/>
   <g>
    <path class="fil1" d="M0.71 1.27c0.01,0.04 0.03,0.08 0.04,0.09 0.03,0.03 0.08,0.05 0.13,0.05 0.06,0 0.1,-0.01 0.13,-0.04 0.02,-0.01 0.02,-0.03 0.02,-0.05 0,-0.09 -0.14,-0.11 -0.2,-0.12 -0.1,-0.03 -0.17,-0.06 -0.21,-0.09 -0.05,-0.06 -0.08,-0.12 -0.08,-0.19 0,-0.05 0.01,-0.1 0.04,-0.14 0.03,-0.04 0.06,-0.07 0.11,-0.09 0.05,-0.02 0.11,-0.03 0.18,-0.03 0.11,0 0.2,0.02 0.25,0.07 0.04,0.04 0.07,0.08 0.08,0.13 -0.07,0.03 -0.1,0.06 -0.17,0.09 -0.02,-0.04 -0.03,-0.05 -0.05,-0.07 -0.03,-0.02 -0.06,-0.04 -0.11,-0.04 -0.05,0 -0.09,0.03 -0.1,0.06 -0.01,0.03 0,0.05 0.02,0.06 0.02,0.02 0.03,0.04 0.12,0.06 0.09,0.03 0.15,0.05 0.2,0.07 0.04,0.02 0.07,0.06 0.1,0.1 0.02,0.04 0.03,0.09 0.03,0.14 0,0.06 -0.01,0.11 -0.04,0.16 -0.03,0.04 -0.07,0.08 -0.12,0.1 -0.06,0.02 -0.12,0.03 -0.2,0.03 -0.11,0 -0.2,-0.02 -0.26,-0.08 -0.05,-0.04 -0.08,-0.09 -0.1,-0.16 0.07,-0.05 0.11,-0.08 0.19,-0.11z"/>
    <polygon class="fil1" points="1.96,0.66 1.96,0.87 1.72,0.87 1.72,1.6 1.5,1.6 1.5,0.87 1.27,0.87 1.27,0.66 "/>
    <path class="fil1" d="M2.87 1.6l-0.21 0 -0.07 -0.16 -0.34 0 -0.06 0.16 -0.23 0 0.33 -0.95 0.26 0 0.32 0.95zm-0.32 -0.35l-0.13 -0.35 -0.12 0.35 0.25 0z"/>
    <path class="fil1" d="M3.16 1.28l0 0.33 -0.22 0 0 -0.96 0.3 0c0.06,0 0.12,0.01 0.16,0.02 0.11,0.03 0.17,0.09 0.21,0.2 0.02,0.03 0.02,0.07 0.02,0.11 0,0.03 0,0.06 -0.01,0.09 -0.02,0.08 -0.08,0.15 -0.16,0.18 0.08,0.1 0.17,0.28 0.22,0.36l-0.17 0c-0.01,0 -0.04,0 -0.07,0 -0.08,-0.14 -0.08,-0.15 -0.18,-0.33 -0.01,0 -0.05,0 -0.05,0l-0.05 0zm0 -0.17l0.08 0c0.03,0 0.08,0 0.1,-0.01 0.04,-0.02 0.09,-0.04 0.09,-0.12 0,-0.04 -0.02,-0.07 -0.05,-0.09 -0.02,-0.03 -0.08,-0.04 -0.14,-0.04l-0.08 0 0 0.26z"/>
    <polygon class="fil1" points="4.38,0.66 4.38,0.87 4.14,0.87 4.14,1.6 3.93,1.6 3.93,0.87 3.69,0.87 3.69,0.66 "/>
    <polygon class="fil1" points="4.67,1.6 4.41,0.65 4.64,0.65 4.78,1.31 4.96,0.65 5.14,0.65 5.32,1.32 5.48,0.65 5.7,0.65 5.45,1.6 5.21,1.6 5.05,1.04 4.9,1.6 "/>
    <polygon class="fil1" points="5.79,1.61 5.79,0.66 6.37,0.66 6.37,0.87 6.01,0.87 6.01,1.03 6.34,1.03 6.34,1.22 6.01,1.22 6.01,1.39 6.39,1.39 6.39,1.61 "/>
    <polygon class="fil1" points="6.71,1.38 7.04,1.38 7.04,1.61 6.5,1.61 6.5,0.66 6.71,0.66 "/>
    <path class="fil1" d="M7.96 1.13c0,0.07 -0.01,0.13 -0.04,0.19 -0.02,0.06 -0.05,0.11 -0.09,0.15 -0.04,0.04 -0.09,0.08 -0.15,0.1 -0.06,0.02 -0.12,0.03 -0.2,0.03l-0.35 0 0 -0.94 0.35 0c0.08,0 0.14,0.01 0.2,0.03 0.06,0.03 0.11,0.06 0.15,0.1 0.04,0.04 0.07,0.09 0.09,0.15 0.03,0.06 0.04,0.12 0.04,0.19zm-0.22 0c0,-0.06 0,-0.11 -0.05,-0.18 -0.03,-0.03 -0.06,-0.05 -0.09,-0.06 -0.03,-0.02 -0.07,-0.03 -0.12,-0.03l-0.14 0 0 0.53 0.14 0c0.05,0 0.09,-0.01 0.12,-0.02 0.03,-0.02 0.06,-0.04 0.09,-0.07 0.05,-0.06 0.05,-0.11 0.05,-0.17z"/>
    <path class="fil1" d="M8.94 1.28l0 0.33 -0.22 0 0 -0.96 0.3 0c0.06,0 0.12,0.01 0.16,0.02 0.11,0.03 0.17,0.09 0.21,0.2 0.02,0.03 0.02,0.07 0.02,0.11 0,0.03 0,0.06 -0.01,0.09 -0.02,0.08 -0.08,0.15 -0.16,0.18 0.08,0.1 0.17,0.28 0.22,0.36l-0.17 0c-0.01,0 -0.05,0 -0.07,0 -0.08,-0.14 -0.08,-0.15 -0.18,-0.33 -0.01,0 -0.05,0 -0.05,0l-0.05 0zm0 -0.17l0.08 0c0.03,0 0.08,0 0.1,-0.01 0.04,-0.02 0.09,-0.04 0.09,-0.12 0,-0.04 -0.02,-0.07 -0.05,-0.09 -0.02,-0.03 -0.08,-0.04 -0.14,-0.04l-0.08 0 0 0.26z"/>
    <path class="fil1" d="M9.54 0.66l0.21 0 0 0.46c0,0.08 0,0.14 0.01,0.16 0.01,0.08 0.07,0.13 0.14,0.13 0.07,0 0.13,-0.05 0.14,-0.12 0,-0.03 0.01,-0.08 0.01,-0.16l0 -0.47 0.21 0 0 0.49c0,0.11 -0.01,0.19 -0.02,0.23 -0.01,0.05 -0.02,0.09 -0.05,0.12 -0.03,0.03 -0.06,0.06 -0.11,0.08 -0.04,0.02 -0.1,0.03 -0.17,0.03 -0.09,0 -0.15,-0.01 -0.2,-0.03 -0.04,-0.03 -0.07,-0.05 -0.1,-0.09 -0.03,-0.03 -0.04,-0.06 -0.05,-0.1 -0.01,-0.05 -0.02,-0.13 -0.02,-0.24l0 -0.49z"/>
    <rect class="fil2" x="8.21" y="0.34" width="0.23" height="1.57"/>
   </g>
  </g>
 </g>
</svg>
