<?xml version="1.0" standalone="no"?>
<!DOCTYPE svg PUBLIC "-//W3C//DTD SVG 20010904//EN"
 "http://www.w3.org/TR/2001/REC-SVG-20010904/DTD/svg10.dtd">
<svg version="1.0" xmlns="http://www.w3.org/2000/svg"
 width="560.000000pt" height="560.000000pt" viewBox="0 0 560.000000 560.000000"
 preserveAspectRatio="xMidYMid meet">
<metadata>
Created by potrace 1.14, written by Peter Selinger 2001-2017
</metadata>
<g transform="translate(0.000000,560.000000) scale(0.100000,-0.100000)"
fill="#000000" stroke="none">
<path d="M2636 5273 c-40 -21 -67 -44 -99 -83 -18 -21 -167 -277 -167 -286 0
-3 -5 -10 -10 -17 -11 -12 -230 -388 -230 -393 0 -2 -25 -44 -55 -94 -30 -50
-55 -92 -55 -94 0 -3 -206 -359 -229 -396 -6 -8 -32 -53 -59 -100 -27 -47
-129 -224 -228 -393 -98 -170 -190 -327 -203 -350 -13 -23 -47 -82 -76 -132
-29 -49 -102 -175 -163 -280 -60 -104 -119 -206 -130 -225 -12 -19 -27 -46
-35 -60 -28 -50 -431 -743 -466 -800 -11 -19 -24 -41 -28 -49 -3 -8 -36 -64
-71 -125 -36 -61 -78 -136 -95 -166 -16 -30 -45 -81 -63 -112 -18 -32 -31 -58
-27 -58 3 0 0 -6 -6 -13 -15 -19 -41 -92 -55 -157 -17 -73 -10 -165 15 -211 7
-13 12 -26 12 -29 0 -8 21 -54 27 -60 3 -3 18 -25 32 -50 36 -62 125 -172 151
-187 58 -32 117 10 187 134 24 43 49 81 55 85 5 4 7 8 3 8 -7 0 28 58 50 85 5
6 11 15 13 21 11 27 114 199 121 202 4 2 8 8 8 13 0 5 64 119 142 252 77 133
146 251 152 262 6 11 18 31 27 45 9 14 45 75 80 135 35 61 67 111 71 113 5 2
8 8 8 13 0 10 115 211 165 289 12 19 44 73 71 120 28 47 88 149 134 228 47 78
95 160 108 182 52 93 74 130 201 347 74 125 146 248 160 273 14 25 29 47 33
48 4 2 8 9 8 16 0 8 8 24 18 37 11 13 31 45 45 72 84 151 215 368 246 407 139
173 269 232 381 174 25 -13 54 -31 65 -41 37 -32 114 -133 135 -176 11 -23 25
-49 30 -57 32 -50 100 -173 100 -181 0 -5 5 -9 10 -9 6 0 10 -5 10 -11 0 -6 8
-23 19 -37 10 -15 33 -54 51 -87 18 -33 42 -76 55 -95 12 -19 44 -73 71 -120
27 -46 54 -94 61 -105 7 -11 15 -27 19 -35 4 -8 22 -39 41 -68 18 -29 33 -54
33 -56 0 -3 100 -175 120 -206 5 -8 19 -33 31 -55 12 -22 26 -43 31 -46 5 -3
9 -9 9 -13 -1 -6 5 -18 36 -71 16 -27 98 -167 138 -235 17 -30 65 -111 105
-180 40 -68 82 -140 93 -160 11 -19 28 -48 38 -65 10 -16 29 -48 41 -70 12
-22 27 -48 33 -57 71 -120 161 -276 163 -286 2 -6 8 -12 13 -12 5 0 9 -5 9
-12 0 -6 13 -32 29 -57 46 -73 81 -135 88 -153 3 -10 9 -18 14 -18 5 0 9 -6 9
-14 0 -8 6 -21 13 -28 20 -23 59 -99 53 -105 -3 -3 -108 -6 -233 -7 -245 0
-305 9 -414 64 -164 83 -369 264 -586 516 -190 221 -338 367 -428 421 -115 70
-184 98 -281 117 -235 44 -440 -70 -599 -333 -5 -9 -38 -63 -73 -119 -73 -118
-98 -185 -76 -203 16 -13 93 -16 179 -5 33 4 79 9 103 12 24 2 60 6 80 9 67 9
148 7 204 -4 62 -13 171 -74 250 -141 71 -61 252 -242 368 -370 179 -196 374
-388 465 -455 22 -17 42 -33 43 -37 2 -5 8 -8 12 -8 5 0 35 -16 67 -35 66 -40
143 -71 223 -91 76 -18 1484 -21 1527 -2 51 22 101 84 109 136 11 65 11 60 -3
129 -14 72 -33 119 -71 183 -14 25 -27 47 -27 50 0 3 -8 16 -17 30 -14 22 -50
83 -108 185 -9 17 -32 55 -50 85 -18 30 -41 69 -50 85 -58 102 -94 163 -108
185 -9 14 -17 27 -17 30 -1 5 -56 100 -87 148 -9 15 -29 49 -44 77 -15 27 -46
81 -69 120 -23 38 -68 115 -100 170 -32 55 -65 111 -74 125 -10 14 -20 32 -23
41 -4 9 -27 48 -52 88 -25 39 -43 71 -39 71 3 0 -1 8 -9 18 -8 9 -18 24 -22
32 -3 8 -15 29 -26 45 -11 17 -24 39 -30 50 -5 11 -20 37 -32 57 -20 33 -107
182 -170 293 -13 22 -26 42 -30 43 -5 2 -8 9 -8 17 0 7 -7 18 -15 25 -9 7 -13
15 -11 17 2 3 -15 36 -40 73 -24 38 -44 71 -44 74 0 2 -22 41 -50 86 -27 45
-52 91 -55 101 -4 11 -11 19 -16 19 -5 0 -9 4 -9 10 0 5 -14 33 -31 62 -18 29
-45 78 -62 108 -16 30 -35 62 -41 70 -10 14 -24 36 -50 85 -6 11 -16 27 -22
35 -6 8 -25 40 -41 70 -17 30 -47 84 -68 120 -40 69 -188 321 -223 380 -11 19
-41 71 -66 115 -26 44 -57 98 -71 120 -14 22 -30 51 -37 65 -7 14 -27 48 -44
75 -17 28 -42 70 -56 95 -14 25 -49 86 -78 135 -29 50 -61 104 -71 122 -10 17
-28 49 -41 70 -13 21 -35 61 -48 88 -98 200 -224 293 -324 238z"/>
</g>
</svg>
