<svg xmlns="http://www.w3.org/2000/svg" xml:space="preserve" width="20" height="15" style="shape-rendering:geometricPrecision;text-rendering:geometricPrecision;image-rendering:optimizeQuality;fill-rule:evenodd;clip-rule:evenodd"><path d="M6.8 7.5.64 2.19V12.8L6.8 7.5zm5.73.59-1.67 1.42c-.12.11-.25.19-.39.24-.15.05-.3.08-.46.08-.17 0-.32-.03-.47-.08-.14-.05-.27-.13-.39-.24h-.01L7.48 8.09l-6.13 5.27h17.3l-6.12-5.27zm.68-.59 6.15 5.3V2.19L13.21 7.5zM1.35 1.64l8.43 7.25c.03.03.06.05.1.06.04.01.08.02.13.02.04 0 .09-.01.12-.02.04-.01.07-.03.1-.05l8.43-7.26H1.35z" style="fill:gray"/></svg>