<?xml version="1.0" encoding="UTF-8"?>
<!DOCTYPE svg PUBLIC "-//W3C//DTD SVG 1.1//EN" "http://www.w3.org/Graphics/SVG/1.1/DTD/svg11.dtd">
<!-- Creator: CorelDRAW 2020 (64-Bit) -->
<svg xmlns="http://www.w3.org/2000/svg" xml:space="preserve" width="105px" height="21px" version="1.1" style="shape-rendering:geometricPrecision; text-rendering:geometricPrecision; image-rendering:optimizeQuality; fill-rule:evenodd; clip-rule:evenodd"
viewBox="0 0 17.17 3.41"
 xmlns:xlink="http://www.w3.org/1999/xlink"
 xmlns:xodm="http://www.corel.com/coreldraw/odm/2003">
 <defs>
  <style type="text/css">
   <![CDATA[
    .fil3 {fill:#FEFEFE}
    .fil2 {fill:#2B2A29}
    .fil0 {fill:#FFE001}
    .fil1 {fill:#2B2A29;fill-rule:nonzero}
   ]]>
  </style>
 </defs>
 <g id="Layer_x0020_1">
  <metadata id="CorelCorpID_0Corel-Layer"/>
  <g id="_2448784174112">
   <rect class="fil0" width="17.17" height="3.41"/>
   <g>
    <g>
     <path class="fil1" d="M5.84 2.56l-0.44 0 -0.52 -0.69c-0.01,-0.01 -0.03,-0.04 -0.05,-0.09l0 0 0 0.78 -0.35 0 0 -1.58 0.35 0 0 0.66 0 0c0.01,-0.02 0.02,-0.06 0.05,-0.09l0.46 -0.57 0.42 0 -0.58 0.75 0.66 0.83z"/>
     <polygon class="fil1" points="6.95,2.56 5.99,2.56 5.99,0.98 6.34,0.98 6.34,2.27 6.95,2.27 "/>
     <polygon class="fil1" points="7.47,0.98 7.47,1.25 7.47,2.28 7.47,2.56 7.12,2.56 7.12,2.28 7.12,1.25 7.12,0.98 "/>
     <path class="fil1" d="M9.15 2.56l-0.41 0 -0.58 -1c-0.03,-0.06 -0.06,-0.1 -0.08,-0.13l0 0c0,0.06 0.01,0.14 0.01,0.26l0 0.87 -0.33 0 0 -1.58 0.44 0 0.55 0.96c0.02,0.04 0.05,0.08 0.08,0.13l0 0c0,-0.04 -0.01,-0.11 -0.01,-0.22l0 -0.87 0.33 0 0 1.58z"/>
     <path class="fil1" d="M10.78 2.45c-0.15,0.09 -0.34,0.13 -0.56,0.13 -0.25,0 -0.45,-0.07 -0.59,-0.21 -0.15,-0.14 -0.22,-0.33 -0.22,-0.58 0,-0.25 0.08,-0.45 0.24,-0.61 0.15,-0.15 0.36,-0.23 0.63,-0.23 0.16,0 0.3,0.02 0.43,0.07l0 0.33c-0.12,-0.07 -0.27,-0.1 -0.44,-0.1 -0.14,0 -0.26,0.04 -0.35,0.14 -0.1,0.1 -0.14,0.22 -0.14,0.38 0,0.17 0.04,0.29 0.12,0.38 0.08,0.09 0.19,0.14 0.33,0.14 0.09,0 0.15,-0.02 0.2,-0.04l0 -0.31 -0.31 0 0 -0.28 0.66 0 0 0.79z"/>
     <path class="fil1" d="M11.01 2.5l0 -0.36c0.07,0.06 0.13,0.1 0.21,0.12 0.07,0.03 0.15,0.04 0.22,0.04 0.05,0 0.08,0 0.12,-0.01 0.03,-0.01 0.06,-0.02 0.08,-0.03 0.02,-0.02 0.04,-0.03 0.05,-0.05 0.01,-0.02 0.01,-0.04 0.01,-0.07 0,-0.03 0,-0.05 -0.02,-0.08 -0.02,-0.02 -0.04,-0.05 -0.07,-0.07 -0.03,-0.02 -0.07,-0.04 -0.11,-0.06 -0.04,-0.01 -0.08,-0.03 -0.13,-0.05 -0.12,-0.06 -0.21,-0.12 -0.27,-0.19 -0.06,-0.08 -0.09,-0.17 -0.09,-0.27 0,-0.08 0.01,-0.15 0.05,-0.21 0.03,-0.06 0.07,-0.11 0.13,-0.15 0.05,-0.04 0.12,-0.07 0.19,-0.08 0.08,-0.02 0.15,-0.03 0.24,-0.03 0.08,0 0.15,0 0.21,0.01 0.06,0.01 0.12,0.03 0.17,0.05l0 0.33c-0.02,-0.02 -0.05,-0.04 -0.08,-0.05 -0.03,-0.01 -0.06,-0.02 -0.1,-0.03 -0.03,-0.01 -0.06,-0.02 -0.09,-0.02 -0.03,-0.01 -0.06,-0.01 -0.09,-0.01 -0.04,0 -0.08,0 -0.11,0.01 -0.03,0.01 -0.06,0.02 -0.08,0.03 -0.03,0.02 -0.04,0.03 -0.06,0.05 -0.01,0.02 -0.01,0.04 -0.01,0.07 0,0.03 0,0.05 0.02,0.07 0.01,0.02 0.03,0.04 0.05,0.06 0.03,0.02 0.06,0.04 0.1,0.05 0.03,0.02 0.07,0.04 0.12,0.06 0.06,0.03 0.12,0.05 0.17,0.08 0.05,0.03 0.09,0.07 0.12,0.11 0.04,0.03 0.07,0.08 0.08,0.12 0.02,0.05 0.03,0.11 0.03,0.17 0,0.09 -0.01,0.16 -0.05,0.22 -0.03,0.06 -0.07,0.11 -0.13,0.15 -0.06,0.04 -0.12,0.06 -0.2,0.08 -0.07,0.02 -0.15,0.02 -0.23,0.02 -0.09,0 -0.17,0 -0.25,-0.02 -0.07,-0.01 -0.14,-0.03 -0.2,-0.06z"/>
     <path class="fil1" d="M12.68 2.01l0 0.55 -0.35 0 0 -1.58 0.55 0c0.39,0 0.58,0.16 0.58,0.5 0,0.16 -0.05,0.29 -0.17,0.38 -0.11,0.1 -0.26,0.15 -0.44,0.15l-0.17 0zm0 -0.76l0 0.49 0.14 0c0.18,0 0.28,-0.08 0.28,-0.25 0,-0.16 -0.1,-0.24 -0.28,-0.24l-0.14 0z"/>
     <path class="fil1" d="M14.35 2.58c-0.22,0 -0.41,-0.07 -0.55,-0.22 -0.14,-0.14 -0.21,-0.34 -0.21,-0.57 0,-0.25 0.07,-0.46 0.22,-0.61 0.14,-0.15 0.33,-0.23 0.56,-0.23 0.22,0 0.4,0.07 0.54,0.22 0.14,0.15 0.21,0.34 0.21,0.58 0,0.25 -0.08,0.45 -0.22,0.61 -0.14,0.15 -0.32,0.22 -0.55,0.22zm0.01 -1.32c-0.12,0 -0.22,0.04 -0.29,0.14 -0.07,0.09 -0.11,0.21 -0.11,0.37 0,0.15 0.04,0.28 0.11,0.37 0.07,0.09 0.17,0.14 0.28,0.14 0.12,0 0.22,-0.05 0.29,-0.14 0.07,-0.09 0.11,-0.21 0.11,-0.37 0,-0.16 -0.04,-0.29 -0.11,-0.38 -0.06,-0.09 -0.16,-0.13 -0.28,-0.13z"/>
     <path class="fil1" d="M16.62 2.56l-0.4 0 -0.19 -0.49c-0.01,-0.04 -0.03,-0.06 -0.05,-0.09 -0.02,-0.02 -0.03,-0.04 -0.05,-0.06 -0.02,-0.02 -0.03,-0.03 -0.05,-0.04 -0.02,-0.01 -0.04,-0.01 -0.06,-0.01l-0.1 0 0 0.69 -0.35 0 0 -1.58 0.56 0c0.37,0 0.56,0.08 0.56,0.37 0,0.06 -0.01,0.11 -0.02,0.15 -0.05,0.15 -0.18,0.22 -0.33,0.26l0 0.01c0.03,0 0.05,0.02 0.07,0.03 0.02,0.02 0.04,0.04 0.06,0.06 0.02,0.02 0.04,0.05 0.06,0.07 0.02,0.03 0.04,0.05 0.05,0.08l0.24 0.55zm-0.9 -1.37l0 0.44 0.15 0c0.08,0 0.14,-0.03 0.19,-0.07 0.04,-0.04 0.07,-0.1 0.07,-0.17 0,-0.13 -0.09,-0.2 -0.25,-0.2l-0.16 0z"/>
    </g>
    <g>
     <path class="fil2" d="M3.37 2.69c0.03,-0.8 -0.33,-1.82 -1.41,-2.41 -1.07,0.57 -1.42,1.56 -1.41,2.42 0.47,0.29 0.92,0.42 1.41,0.42 0.49,0 1.12,-0.2 1.41,-0.43z"/>
     <path class="fil3" d="M3.2 2.63c0.03,-0.71 -0.29,-1.66 -1.24,-2.18 -0.94,0.5 -1.25,1.43 -1.24,2.19 0.41,0.26 0.81,0.33 1.24,0.33 0.43,0 0.98,-0.14 1.24,-0.34z"/>
     <path class="fil2" d="M2.13 1.39c0.34,0.12 0.59,0.58 0.59,1.14 0,0.05 0,0.09 0,0.13l-0.15 0.1 -0.16 -0.07c0,-0.05 0,-0.1 0,-0.16 0,-0.46 -0.2,-0.83 -0.45,-0.83 -0.25,0 -0.46,0.37 -0.46,0.83 0,0.05 0.01,0.1 0.01,0.15l-0.15 0.08 -0.16 -0.1c-0.01,-0.04 -0.01,-0.08 -0.01,-0.13 0,-0.56 0.26,-1.03 0.61,-1.15 0.06,-0.02 0.06,-0.08 0.06,-0.12l0.01 -0.07 0.18 0 0.01 0.07c0,0.03 0,0.1 0.07,0.13z"/>
     <path class="fil3" d="M1.97 1.53c-0.01,0 -0.03,0 -0.04,0 -0.36,0.05 -0.61,0.53 -0.57,1.09 0,0.03 0.01,0.06 0.01,0.09l-0.11 -0.07c0,-0.04 0,-0.08 0,-0.12 0,-0.51 0.22,-0.94 0.52,-1.07 0.02,-0.01 0.03,-0.01 0.05,-0.02 0.07,-0.03 0.07,-0.12 0.07,-0.19l0.07 0c0,0.06 0,0.19 0,0.29z"/>
     <path class="fil3" d="M1.97 1.54c0.3,0.01 0.57,0.39 0.6,0.87 0,0.09 0,0.18 -0.01,0.27l-0.09 -0.04c0.01,-0.08 0.01,-0.16 0,-0.25 -0.03,-0.41 -0.25,-0.73 -0.51,-0.76l0.01 -0.09z"/>
     <path class="fil2" d="M1.96 0.61c0.05,0.14 0.05,0.14 0.15,0.25 -0.01,0.03 -0.03,0.08 -0.03,0.11l0 0.14c-0.04,-0.01 -0.08,-0.03 -0.12,-0.03 -0.04,0 -0.07,0.02 -0.11,0.03 0,-0.05 0.01,-0.1 -0.01,-0.15l-0.03 -0.11c0.09,-0.1 0.1,-0.11 0.15,-0.24z"/>
     <path class="fil3" d="M1.96 1.03l0 0c-0.03,0 -0.05,0.01 -0.07,0.02 0,-0.04 0.01,-0.07 -0.01,-0.1l-0.02 -0.07c0.06,-0.07 0.06,-0.08 0.1,-0.16l0 0.31z"/>
    </g>
   </g>
  </g>
 </g>
</svg>
