<?xml version="1.0" encoding="UTF-8"?>
<!DOCTYPE svg PUBLIC "-//W3C//DTD SVG 1.1//EN" "">
<!-- Creator: CorelDRAW 2020 (64-Bit) -->
<svg xmlns="http://www.w3.org/2000/svg" xml:space="preserve" width="96px" height="14px" version="1.1" style="shape-rendering:geometricPrecision; text-rendering:geometricPrecision; image-rendering:optimizeQuality; fill-rule:evenodd; clip-rule:evenodd"
viewBox="0 0 6.8 1.03">
 <defs>
  <style type="text/css">
   <![CDATA[
    .str0 {stroke:#2B2A29;stroke-width:0.03;stroke-miterlimit:22.9256}
    .fil4 {fill:none;fill-rule:nonzero}
    .fil3 {fill:#FEFEFE}
    .fil0 {fill:#2B2A29}
    .fil1 {fill:#ED6D6C}
    .fil2 {fill:#E31E24}
    .fil5 {fill:#E31E24;fill-rule:nonzero}
   ]]>
  </style>
 </defs>
 <g id="Layer_x0020_1">
  <metadata id="CorelCorpID_0Corel-Layer"/>
  <g id="_2448583656416">
   <path class="fil0" d="M0.57 0.03l-0.05 -0.03 0.85 0 0 1.01 -0.44 0c-0.05,0 -0.18,0 -0.24,0l-0.5 0 0 -0.28 0.02 0.01c0.04,0.01 0.09,0.02 0.14,0.02 0.22,0 0.4,-0.18 0.4,-0.4 0,-0.13 -0.07,-0.25 -0.18,-0.33z"/>
   <circle class="fil1" cx="0.35" cy="0.35" r="0.35"/>
   <path class="fil2" d="M0.35 0.01c0.12,0 0.24,0.06 0.3,0.17l-0.46 0.48c-0.11,-0.06 -0.19,-0.17 -0.19,-0.31 0,-0.19 0.16,-0.34 0.35,-0.34z"/>
   <path class="fil3" d="M0.69 0.09l0.57 0 0 0.84 -0.33 0 0 -0.68 -0.11 0.12c0,0.14 0,0.28 0,0.42 0,0.06 0.01,0.14 -0.09,0.15l-0.47 0 0 -0.16c0.03,0 0.06,0.01 0.1,0.01 0.23,0 0.43,-0.19 0.43,-0.43 0,-0.11 -0.04,-0.2 -0.1,-0.27z"/>
   <path class="fil4 str0" d="M1.61 0.89l0 -0.7 0.2 0 0 0.5 0.19 0c-0.01,-0.02 -0.01,-0.05 -0.01,-0.08l0 -0.42 0.19 0 0 0.36c0,0.16 0.01,0.16 0.06,0.16 0.05,0 0.05,-0.01 0.05,-0.17l0 -0.35 0.19 0 0 0.42c0,0.09 -0.02,0.17 -0.06,0.22 -0.05,0.04 -0.1,0.07 -0.18,0.07 -0.09,0 -0.15,-0.03 -0.19,-0.07 0,-0.01 -0.01,-0.01 -0.01,-0.02l0 0.08 -0.43 0zm1.61 0l0.21 0 0 -0.84 -0.47 0.53 0 -0.06 -0.19 0 0 0.1 0.03 0 0 0.08c-0.13,0.02 -0.13,-0.04 -0.13,-0.16 0,-0.06 -0.01,-0.18 0.06,-0.17 0.04,0 0.05,0.02 0.05,0.07l0.19 0c0,-0.18 -0.07,-0.27 -0.19,-0.27 -0.22,-0.01 -0.29,0.13 -0.29,0.36 0,0.12 0.01,0.22 0.05,0.28 0.05,0.06 0.14,0.08 0.23,0.08 0.02,0 0.04,-0.01 0.05,-0.01l0 0.11 0.26 -0.28 0.14 0 0 0.18zm-0.07 -0.31l0.11 -0.11 0 0.11 -0.11 0z"/>
   <path class="fil5" d="M3.94 0.15l0.23 0c0.04,0 0.07,0.01 0.1,0.01 0.02,0.01 0.04,0.02 0.06,0.03 0.01,0.02 0.03,0.04 0.04,0.06 0.01,0.03 0.02,0.06 0.02,0.09 0,0.03 -0.01,0.06 -0.03,0.09 -0.01,0.03 -0.03,0.05 -0.05,0.07 0.03,0.01 0.06,0.03 0.08,0.06 0.01,0.04 0.02,0.07 0.02,0.11 0,0.04 0,0.07 -0.02,0.1 -0.01,0.03 -0.02,0.06 -0.04,0.08 -0.02,0.02 -0.05,0.03 -0.08,0.03 -0.02,0.01 -0.06,0.01 -0.14,0.01l-0.19 0 0 -0.74zm0.13 0.13l0 0.16 0.07 0c0.07,0 0.12,0 0.12,-0.08 0,-0.07 -0.06,-0.08 -0.13,-0.08l-0.06 0zm0 0.29l0 0.19 0.1 0c0.08,0 0.11,-0.02 0.11,-0.09 0,-0.08 -0.04,-0.1 -0.12,-0.1l-0.09 0z"/>
   <path class="fil5" d="M4.45 0.89l0 -0.74 0.24 0c0.06,0 0.11,0.01 0.13,0.02 0.03,0.02 0.05,0.04 0.07,0.07 0.01,0.04 0.02,0.08 0.02,0.12 0,0.06 -0.01,0.1 -0.03,0.14 -0.03,0.03 -0.09,0.06 -0.14,0.06l0.15 0.22 -0.07 0.11c-0.1,-0.14 -0.14,-0.2 -0.24,-0.33l0 0.33 -0.13 0zm0.13 -0.42l0.07 0c0.08,0 0.13,-0.01 0.13,-0.1 0,-0.09 -0.05,-0.09 -0.12,-0.09l-0.08 0 0 0.19z"/>
   <path class="fil5" d="M5.76 0.47c0.07,0.03 0.16,0.11 0.16,0.2 0,0.16 -0.13,0.22 -0.25,0.22 -0.11,0 -0.22,-0.02 -0.25,-0.22l0.14 0.01c0.01,0.1 0.09,0.1 0.11,0.1 0.03,0 0.12,-0.02 0.13,-0.1 0,-0.05 -0.04,-0.09 -0.11,-0.12 -0.06,-0.03 -0.15,-0.04 -0.2,-0.1 -0.02,-0.03 -0.04,-0.11 -0.03,-0.15 0.01,-0.12 0.12,-0.18 0.22,-0.17 0.15,0 0.22,0.1 0.22,0.23 -0.04,0 -0.09,-0.01 -0.12,-0.01 -0.01,-0.06 -0.02,-0.13 -0.11,-0.12 -0.06,0 -0.09,0.05 -0.08,0.11 0,0.07 0.11,0.09 0.17,0.12z"/>
   <polygon class="fil2" points="5.98,0.15 6.11,0.15 6.11,0.89 5.98,0.89 "/>
   <polygon class="fil2" points="6.2,0.15 6.34,0.15 6.34,0.62 6.8,0.09 6.8,0.28 6.2,0.96 "/>
   <path class="fil2" d="M5.26 0.89l0.14 0 0 -0.84 -0.61 0.7 0 0.23 0.23 -0.26 0.24 0 0 0.17zm-0.17 -0.26l0.17 0 0 -0.2 -0.17 0.2z"/>
   <path class="fil2" d="M3.7 0.89l0.14 0 0 -0.84 -0.61 0.7 0 0.23 0.23 -0.26 0.24 0 0 0.17zm-0.17 -0.26l0.17 0 0 -0.2 -0.17 0.2z"/>
  </g>
 </g>
</svg>
