<?xml version="1.0" encoding="UTF-8"?>
<!DOCTYPE svg PUBLIC "-//W3C//DTD SVG 1.1//EN" "http://www.w3.org/Graphics/SVG/1.1/DTD/svg11.dtd">
<!-- Creator: CorelDRAW 2020 (64-Bit) -->
<svg xmlns="http://www.w3.org/2000/svg" xml:space="preserve" width="68px" height="27px" version="1.1" style="shape-rendering:geometricPrecision; text-rendering:geometricPrecision; image-rendering:optimizeQuality; fill-rule:evenodd; clip-rule:evenodd"
viewBox="0 0 5.51 2.18"
 xmlns:xlink="http://www.w3.org/1999/xlink"
 xmlns:xodm="http://www.corel.com/coreldraw/odm/2003">
 <defs>
  <style type="text/css">
   <![CDATA[
    .str0 {stroke:#2B2A29;stroke-width:0.05;stroke-miterlimit:22.9256}
    .fil0 {fill:#2B2A29}
    .fil2 {fill:#FFED00}
    .fil1 {fill:#FEFEFE;fill-rule:nonzero}
    .fil3 {fill:#2B2A29;fill-rule:nonzero}
   ]]>
  </style>
 </defs>
 <g id="Layer_x0020_1">
  <metadata id="CorelCorpID_0Corel-Layer"/>
  <g id="_2448791065488">
   <path class="fil0" d="M0 0.35l5.32 0c0.12,0.2 0.19,0.43 0.19,0.67 0,0.21 -0.05,0.4 -0.14,0.58l-5.01 0c-0.02,-0.18 -0.06,-0.36 -0.11,-0.55 -0.06,-0.26 -0.15,-0.49 -0.25,-0.7zm0.37 1.33l4.96 0c-0.03,0.04 -0.06,0.08 -0.09,0.13l-4.86 0c0,-0.05 0,-0.09 -0.01,-0.13z"/>
   <path class="fil1" d="M1.5 0.71l-0.01 0 0 0.25 0.02 0c0.07,0 0.18,-0.02 0.19,-0.12 0.01,-0.04 -0.01,-0.08 -0.04,-0.1 -0.04,-0.02 -0.09,-0.03 -0.16,-0.03zm-0.28 0.76l0 -0.97 0.26 0c0.09,0 0.16,0.01 0.2,0.02 0.12,0.03 0.26,0.09 0.28,0.27 0.01,0.06 -0.02,0.14 -0.05,0.19 -0.03,0.04 -0.08,0.08 -0.14,0.11l0.25 0.38 -0.32 0 -0.21 -0.35 0 0.35 -0.27 0z"/>
   <path class="fil1" d="M2.08 0.62c0,-0.03 0.02,-0.06 0.04,-0.08 0.02,-0.02 0.05,-0.03 0.09,-0.03 0.03,0 0.06,0.01 0.08,0.03 0.03,0.02 0.04,0.05 0.04,0.08 0,0.04 -0.01,0.06 -0.04,0.09 -0.02,0.02 -0.05,0.03 -0.08,0.03 -0.04,0 -0.07,-0.01 -0.09,-0.03 -0.02,-0.03 -0.04,-0.05 -0.04,-0.09zm0.26 0.85l-0.26 0 0 -0.65 0.26 0 0 0.65z"/>
   <path class="fil1" d="M2.73 1.47l-0.24 0 0 -0.65 0.23 -0.01 0 0.1c0.07,-0.08 0.11,-0.13 0.23,-0.13 0.07,0 0.12,0.03 0.16,0.07 0.03,0.04 0.05,0.09 0.05,0.16l0 0.46 -0.24 0 0 -0.4c0,-0.03 0,-0.06 -0.02,-0.07 -0.01,-0.02 -0.03,-0.03 -0.06,-0.03 -0.09,0 -0.11,0.08 -0.11,0.15l0 0.35z"/>
   <path class="fil2 str0" d="M4.29 0.03c0.5,0 0.92,0.37 0.99,0.86l-0.33 0c-0.06,-0.31 -0.34,-0.54 -0.66,-0.54 -0.38,0 -0.68,0.3 -0.68,0.68 0,0.37 0.3,0.67 0.68,0.67 0.23,0 0.44,-0.12 0.56,-0.3l-0.25 0 0 -0.22c0.22,0 0.45,0 0.68,0 -0.08,0.48 -0.49,0.85 -0.99,0.85 -0.56,0 -1,-0.45 -1,-1 0,-0.56 0.44,-1 1,-1z"/>
   <path class="fil3" d="M1.29 2.11l-0.02 0 0 -0.02 0 0c-0.01,0.02 -0.03,0.03 -0.05,0.03 -0.01,0 -0.02,-0.01 -0.03,-0.01 -0.01,-0.01 -0.01,-0.02 -0.01,-0.03 0,-0.03 0.01,-0.05 0.05,-0.05l0.04 -0.01c0,-0.02 -0.01,-0.03 -0.03,-0.03 -0.02,0 -0.03,0 -0.05,0.02l0 -0.03c0.02,-0.01 0.03,-0.01 0.05,-0.01 0.03,0 0.05,0.02 0.05,0.05l0 0.09zm-0.02 -0.07l-0.04 0.01c-0.01,0 -0.01,0 -0.02,0.01 -0.01,0 -0.01,0.01 -0.01,0.02 0,0 0,0.01 0.01,0.01 0,0.01 0.01,0.01 0.02,0.01 0.01,0 0.02,-0.01 0.03,-0.01 0.01,-0.01 0.01,-0.02 0.01,-0.03l0 -0.02zm0.09 0.05l0 0 0 0.02 -0.03 0 0 -0.21 0.03 0 0 0.1 0 0c0.01,-0.02 0.03,-0.03 0.05,-0.03 0.02,0 0.03,0.01 0.04,0.02 0.01,0.01 0.02,0.03 0.02,0.05 0,0.02 -0.01,0.04 -0.02,0.06 -0.01,0.01 -0.03,0.02 -0.05,0.02 -0.02,0 -0.03,-0.01 -0.04,-0.03zm0 -0.05l0 0.02c0,0.01 0,0.02 0.01,0.03 0.01,0 0.02,0.01 0.03,0.01 0.01,0 0.02,-0.01 0.03,-0.02 0.01,-0.01 0.01,-0.02 0.01,-0.04 0,-0.02 0,-0.03 -0.01,-0.04 -0.01,-0.01 -0.02,-0.01 -0.03,-0.01 -0.01,0 -0.02,0 -0.03,0.01 -0.01,0.01 -0.01,0.02 -0.01,0.04zm0.22 -0.04c-0.01,-0.01 -0.01,-0.01 -0.02,-0.01 -0.01,0 -0.02,0.01 -0.02,0.01 -0.01,0.01 -0.01,0.03 -0.01,0.04l0 0.07 -0.03 0 0 -0.14 0.03 0 0 0.03 0 0c0,-0.01 0,-0.02 0.01,-0.02 0.01,-0.01 0.02,-0.01 0.02,-0.01 0.01,0 0.01,0 0.02,0l0 0.03zm0.12 0.11l-0.02 0 0 -0.02 0 0c-0.01,0.02 -0.02,0.03 -0.04,0.03 -0.02,0 -0.03,-0.01 -0.04,-0.01 0,-0.01 -0.01,-0.02 -0.01,-0.03 0,-0.03 0.02,-0.05 0.05,-0.05l0.04 -0.01c0,-0.02 -0.01,-0.03 -0.03,-0.03 -0.02,0 -0.03,0 -0.04,0.02l0 -0.03c0.01,-0.01 0.03,-0.01 0.04,-0.01 0.04,0 0.05,0.02 0.05,0.05l0 0.09zm-0.02 -0.07l-0.03 0.01c-0.01,0 -0.02,0 -0.03,0.01 0,0 -0.01,0.01 -0.01,0.02 0,0 0.01,0.01 0.01,0.01 0.01,0.01 0.01,0.01 0.02,0.01 0.01,0 0.02,-0.01 0.03,-0.01 0.01,-0.01 0.01,-0.02 0.01,-0.03l0 -0.02zm0.06 0.07l0 -0.02c0.01,0 0.02,0.01 0.04,0.01 0.02,0 0.03,-0.01 0.03,-0.02 0,0 0,-0.01 0,-0.01 0,0 -0.01,-0.01 -0.01,-0.01 0,0 -0.01,0 -0.01,0 0,0 -0.01,-0.01 -0.01,-0.01 -0.01,0 -0.01,0 -0.02,-0.01 0,0 -0.01,0 -0.01,0 0,-0.01 -0.01,-0.01 -0.01,-0.02 0,0 0,0 0,-0.01 0,-0.01 0,-0.01 0,-0.02 0.01,0 0.01,-0.01 0.02,-0.01 0,0 0.01,-0.01 0.01,-0.01 0.01,0 0.02,0 0.02,0 0.02,0 0.03,0 0.04,0.01l0 0.02c-0.01,-0.01 -0.03,-0.01 -0.04,-0.01 0,0 -0.01,0 -0.01,0 0,0 -0.01,0 -0.01,0 0,0.01 0,0.01 -0.01,0.01 0,0 0,0.01 0,0.01 0,0 0,0 0,0.01 0.01,0 0.01,0 0.01,0 0,0.01 0.01,0.01 0.01,0.01 0,0 0.01,0 0.01,0 0.01,0.01 0.01,0.01 0.02,0.01 0,0 0.01,0.01 0.01,0.01 0.01,0 0.01,0.01 0.01,0.01 0,0.01 0,0.01 0,0.02 0,0 0,0.01 0,0.02 0,0 -0.01,0 -0.01,0.01 -0.01,0 -0.02,0 -0.02,0.01 -0.01,0 -0.02,0 -0.02,0 -0.02,0 -0.03,0 -0.04,-0.01zm0.14 -0.17c0,0 -0.01,-0.01 -0.01,-0.01 0,0 0,0 0,-0.01 0,0 0,-0.01 0,-0.01 0,0 0.01,0 0.01,0 0,0 0.01,0 0.01,0 0,0 0.01,0.01 0.01,0.01 0,0.01 -0.01,0.01 -0.01,0.01 0,0 -0.01,0.01 -0.01,0.01zm0.01 0.17l-0.02 0 0 -0.14 0.02 0 0 0.14zm0.16 -0.14l-0.06 0.14 -0.02 0 -0.05 -0.14 0.02 0 0.04 0.11c0,0 0,0.01 0,0.02l0 0c0,-0.01 0.01,-0.02 0.01,-0.02l0.04 -0.11 0.02 0zm0.14 0.08l-0.1 0c0,0.02 0,0.03 0.01,0.04 0.01,0 0.02,0.01 0.04,0.01 0.01,0 0.03,-0.01 0.04,-0.02l0 0.02c-0.01,0.01 -0.03,0.02 -0.05,0.02 -0.02,0 -0.04,-0.01 -0.05,-0.02 -0.01,-0.01 -0.02,-0.03 -0.02,-0.06 0,-0.02 0.01,-0.04 0.02,-0.05 0.02,-0.01 0.03,-0.02 0.05,-0.02 0.02,0 0.03,0 0.04,0.02 0.01,0.01 0.02,0.03 0.02,0.05l0 0.01zm-0.02 -0.02c0,-0.01 -0.01,-0.02 -0.01,-0.03 -0.01,-0.01 -0.02,-0.01 -0.03,-0.01 -0.01,0 -0.02,0 -0.03,0.01 0,0.01 -0.01,0.02 -0.01,0.03l0.08 0zm0.2 0.08c-0.01,0.01 -0.01,0.01 -0.02,0.01 -0.03,0 -0.04,-0.02 -0.04,-0.04l0 -0.09 -0.02 0 0 -0.02 0.02 0 0 -0.03 0.02 -0.01 0 0.04 0.04 0 0 0.02 -0.04 0 0 0.08c0,0.01 0,0.02 0.01,0.02 0,0.01 0.01,0.01 0.01,0.01 0.01,0 0.01,0 0.02,-0.01l0 0.02zm0.14 -0.06l-0.1 0c0,0.02 0.01,0.03 0.02,0.04 0,0 0.02,0.01 0.03,0.01 0.02,0 0.03,-0.01 0.04,-0.02l0 0.02c-0.01,0.01 -0.03,0.02 -0.05,0.02 -0.02,0 -0.03,-0.01 -0.04,-0.02 -0.01,-0.01 -0.02,-0.03 -0.02,-0.06 0,-0.02 0.01,-0.04 0.02,-0.05 0.01,-0.01 0.03,-0.02 0.05,-0.02 0.01,0 0.03,0 0.04,0.02 0.01,0.01 0.01,0.03 0.01,0.05l0 0.01zm-0.02 -0.02c0,-0.01 0,-0.02 -0.01,-0.03 -0.01,-0.01 -0.01,-0.01 -0.03,-0.01 -0.01,0 -0.02,0 -0.02,0.01 -0.01,0.01 -0.01,0.02 -0.02,0.03l0.08 0zm0.16 0.08c-0.02,0 -0.03,0.01 -0.04,0.01 -0.02,0 -0.04,-0.01 -0.05,-0.02 -0.01,-0.01 -0.02,-0.03 -0.02,-0.05 0,-0.03 0.01,-0.05 0.02,-0.06 0.01,-0.01 0.03,-0.02 0.05,-0.02 0.02,0 0.03,0 0.04,0.01l0 0.02c-0.01,-0.01 -0.03,-0.01 -0.04,-0.01 -0.01,0 -0.02,0 -0.03,0.01 -0.01,0.01 -0.02,0.03 -0.02,0.04 0,0.02 0.01,0.03 0.02,0.04 0,0.01 0.02,0.02 0.03,0.02 0.01,0 0.02,-0.01 0.04,-0.01l0 0.02zm0.15 0l-0.02 0 0 -0.08c0,-0.03 -0.01,-0.04 -0.04,-0.04 -0.01,0 -0.02,0 -0.03,0.01 0,0.01 -0.01,0.02 -0.01,0.03l0 0.08 -0.02 0 0 -0.21 0.02 0 0 0.1 0 0c0.01,-0.02 0.03,-0.03 0.05,-0.03 0.03,0 0.05,0.02 0.05,0.06l0 0.08zm0.16 0l-0.02 0 0 -0.08c0,-0.03 -0.01,-0.04 -0.04,-0.04 -0.01,0 -0.02,0 -0.02,0.01 -0.01,0.01 -0.01,0.02 -0.01,0.03l0 0.08 -0.03 0 0 -0.14 0.03 0 0 0.03 0 0c0.01,-0.02 0.02,-0.03 0.04,-0.03 0.02,0 0.03,0 0.04,0.01 0.01,0.01 0.01,0.03 0.01,0.05l0 0.08zm0.1 0.01c-0.02,0 -0.03,-0.01 -0.05,-0.02 -0.01,-0.02 -0.02,-0.03 -0.02,-0.05 0,-0.03 0.01,-0.05 0.02,-0.06 0.02,-0.01 0.03,-0.02 0.06,-0.02 0.02,0 0.03,0.01 0.05,0.02 0.01,0.01 0.01,0.03 0.01,0.05 0,0.03 0,0.04 -0.01,0.06 -0.02,0.01 -0.03,0.02 -0.06,0.02zm0.01 -0.13c-0.02,0 -0.03,0 -0.04,0.01 -0.01,0.01 -0.01,0.03 -0.01,0.04 0,0.02 0,0.03 0.01,0.04 0.01,0.01 0.02,0.02 0.04,0.02 0.01,0 0.02,-0.01 0.03,-0.02 0.01,0 0.01,-0.02 0.01,-0.04 0,-0.01 0,-0.03 -0.01,-0.04 -0.01,-0.01 -0.02,-0.01 -0.03,-0.01zm0.12 0.12l-0.02 0 0 -0.21 0.02 0 0 0.21zm0.11 0.01c-0.02,0 -0.04,-0.01 -0.05,-0.02 -0.01,-0.02 -0.02,-0.03 -0.02,-0.05 0,-0.03 0.01,-0.05 0.02,-0.06 0.01,-0.01 0.03,-0.02 0.05,-0.02 0.03,0 0.04,0.01 0.05,0.02 0.02,0.01 0.02,0.03 0.02,0.05 0,0.03 0,0.04 -0.02,0.06 -0.01,0.01 -0.03,0.02 -0.05,0.02zm0 -0.13c-0.01,0 -0.02,0 -0.03,0.01 -0.01,0.01 -0.02,0.03 -0.02,0.04 0,0.02 0.01,0.03 0.02,0.04 0.01,0.01 0.02,0.02 0.03,0.02 0.02,0 0.03,-0.01 0.04,-0.02 0,0 0.01,-0.02 0.01,-0.04 0,-0.01 -0.01,-0.03 -0.01,-0.04 -0.01,-0.01 -0.02,-0.01 -0.04,-0.01zm0.23 0.11c0,0.06 -0.03,0.08 -0.08,0.08 -0.01,0 -0.03,0 -0.04,-0.01l0 -0.02c0.01,0.01 0.03,0.01 0.04,0.01 0.04,0 0.06,-0.02 0.06,-0.05l0 -0.02 0 0c-0.01,0.02 -0.03,0.03 -0.05,0.03 -0.02,0 -0.03,-0.01 -0.05,-0.02 -0.01,-0.01 -0.01,-0.03 -0.01,-0.05 0,-0.03 0,-0.05 0.02,-0.06 0.01,-0.01 0.02,-0.02 0.04,-0.02 0.02,0 0.04,0.01 0.05,0.02l0 0 0 -0.02 0.02 0 0 0.13zm-0.02 -0.05l0 -0.02c0,-0.01 -0.01,-0.02 -0.01,-0.03 -0.01,-0.01 -0.02,-0.01 -0.03,-0.01 -0.02,0 -0.03,0 -0.04,0.01 0,0.01 -0.01,0.03 -0.01,0.05 0,0.01 0.01,0.03 0.01,0.03 0.01,0.01 0.02,0.02 0.03,0.02 0.02,0 0.03,-0.01 0.04,-0.01 0,-0.01 0.01,-0.03 0.01,-0.04zm0.18 -0.08l-0.07 0.17c-0.01,0.03 -0.02,0.04 -0.05,0.04 0,0 -0.01,0 -0.01,0l0 -0.02c0,0 0.01,0 0.01,0 0.02,0 0.02,0 0.03,-0.02l0.01 -0.03 -0.05 -0.14 0.02 0 0.04 0.11c0,0 0,0.01 0,0.01l0 0c0,0 0,0 0.01,-0.01l0.04 -0.11 0.02 0z"/>
  </g>
 </g>
</svg>
