<svg version="1.0" xmlns="http://www.w3.org/2000/svg" width="130.667" height="122.667" viewBox="0 0 98 92"><path d="M42 5.1C27.3 8 14.4 20.4 10.4 35.5c-5.8 21.4 7.5 44.4 28.8 50.1 19.4 5.1 39.7-3.9 48.3-21.4C102.6 33.3 75.8-1.5 42 5.1zm16.9 2c11.8 2.7 22.8 11.7 27.8 22.6 2.3 5 2.7 7.2 2.7 15.8.1 9.2-.1 10.5-3.1 16.8-3.9 8.2-11 15.4-19 19.4-5.3 2.6-6.7 2.8-16.8 2.8-10.1 0-11.5-.2-16.9-2.9-24.4-12-30.3-43.1-12-62.7 5.8-6.1 11-9.3 18.4-11.3 6.5-1.7 12.9-1.9 18.9-.5z"/><path d="M47 34c0 .5.9 1 2 1 1.9 0 2 .7 2 10 0 9.2-.1 10-1.9 10-1.1 0-2.3.4-2.6 1-.4.6 1.7 1 5.4 1 3.4 0 6.1-.4 6.1-1s-.9-1-2-1c-1.9 0-2-.7-2-11V33h-3.5c-1.9 0-3.5.4-3.5 1z"/></svg>