<?xml version="1.0" standalone="no"?>
<!DOCTYPE svg PUBLIC "-//W3C//DTD SVG 20010904//EN"
 "http://www.w3.org/TR/2001/REC-SVG-20010904/DTD/svg10.dtd">
<svg version="1.0" xmlns="http://www.w3.org/2000/svg"
 width="98.000000pt" height="92.000000pt" viewBox="0 0 98.000000 92.000000"
 preserveAspectRatio="xMidYMid meet">
<metadata>
Created by potrace 1.16, written by Peter Selinger 2001-2019
</metadata>
<g transform="translate(0.000000,92.000000) scale(0.100000,-0.100000)"
fill="#000000" stroke="none">
<path d="M420 869 c-147 -29 -276 -153 -316 -304 -58 -214 75 -444 288 -501
194 -51 397 39 483 214 151 309 -117 657 -455 591z m169 -20 c118 -27 228
-117 278 -226 23 -50 27 -72 27 -158 1 -92 -1 -105 -31 -168 -39 -82 -110
-154 -190 -194 -53 -26 -67 -28 -168 -28 -101 0 -115 2 -169 29 -244 120 -303
431 -120 627 58 61 110 93 184 113 65 17 129 19 189 5z"/>
<path d="M470 580 c0 -5 9 -10 20 -10 19 0 20 -7 20 -100 0 -92 -1 -100 -19
-100 -11 0 -23 -4 -26 -10 -4 -6 17 -10 54 -10 34 0 61 4 61 10 0 6 -9 10 -20
10 -19 0 -20 7 -20 110 l0 110 -35 0 c-19 0 -35 -4 -35 -10z"/>
</g>
</svg>
