<svg version="1.0" xmlns="http://www.w3.org/2000/svg" width="130.667" height="122.667" viewBox="0 0 98 92"><path d="M38.5 7.4C17.4 12.6 3.2 33.5 6.8 53.9c2.5 14 10.4 24.6 23 30.8 7.3 3.7 8 3.8 18.1 3.8 9.8 0 11.1-.2 17.3-3.2 8.6-4 15.5-10.9 19.8-19.7 9.9-20.1.8-45.9-19.4-55.2-9.3-4.3-18.1-5.2-27.1-3zM59.2 10c10.6 3.2 19.4 10.8 24.5 21 2.5 5 2.8 6.5 2.8 16.5 0 9.8-.3 11.6-2.6 16.5-3.8 8.1-10.9 15.4-18.7 19.2-5.7 2.9-7.9 3.3-15.7 3.6-7.3.3-10.1 0-14.6-1.7-12.7-4.8-21.2-13.8-25.1-26.4C.8 29 29.5.8 59.2 10z"/><path d="M43.6 37.3c-1.3.9-1.6 2.3-1.4 4.7.3 2.9.5 3.2 1.2 1.5 1.6-4.1 2.4-5 4.9-5.3 1.8-.2 2.9.3 3.7 1.7 1.3 2.5.5 4.2-5.7 12.3-2.3 3.1-4.3 6.1-4.3 6.7 0 .7 2.7 1.1 7 1.1 4 0 7-.4 7-1s-2.2-1-5-1c-2.7 0-5-.3-5-.8 0-.4 2.1-3.4 4.5-6.6 4.8-6.3 5.7-10.3 2.9-13-1.9-1.9-7.4-2.1-9.8-.3z"/></svg>