<?xml version="1.0" standalone="no"?>
<!DOCTYPE svg PUBLIC "-//W3C//DTD SVG 20010904//EN"
 "http://www.w3.org/TR/2001/REC-SVG-20010904/DTD/svg10.dtd">
<svg version="1.0" xmlns="http://www.w3.org/2000/svg"
 width="98.000000pt" height="92.000000pt" viewBox="0 0 98.000000 92.000000"
 preserveAspectRatio="xMidYMid meet">
<metadata>
Created by potrace 1.16, written by Peter Selinger 2001-2019
</metadata>
<g transform="translate(0.000000,92.000000) scale(0.100000,-0.100000)"
fill="#000000" stroke="none">
<path d="M385 846 c-211 -52 -353 -261 -317 -465 25 -140 104 -246 230 -308
73 -37 80 -38 181 -38 98 0 111 2 173 32 86 40 155 109 198 197 99 201 8 459
-194 552 -93 43 -181 52 -271 30z m207 -26 c106 -32 194 -108 245 -210 25 -50
28 -65 28 -165 0 -98 -3 -116 -26 -165 -38 -81 -109 -154 -187 -192 -57 -29
-79 -33 -157 -36 -73 -3 -101 0 -146 17 -127 48 -212 138 -251 264 -90 297
197 579 494 487z"/>
<path d="M436 547 c-13 -9 -16 -23 -14 -47 3 -29 5 -32 12 -15 16 41 24 50 49
53 18 2 29 -3 37 -17 13 -25 5 -42 -57 -123 -23 -31 -43 -61 -43 -67 0 -7 27
-11 70 -11 40 0 70 4 70 10 0 6 -22 10 -50 10 -27 0 -50 3 -50 8 0 4 21 34 45
66 48 63 57 103 29 130 -19 19 -74 21 -98 3z"/>
</g>
</svg>
