<svg version="1.0" xmlns="http://www.w3.org/2000/svg" width="130.667" height="124" viewBox="0 0 98 93"><path d="M40 5.1C28 7.4 15.5 17.3 10.2 28.7c-2.4 5.2-2.7 6.9-2.7 16.9 0 10.7.1 11.2 3.7 18.6 4.5 9.1 10.3 14.7 19.6 19.1 6.2 3 7.5 3.2 17.3 3.2 10.1 0 10.8-.1 18.1-3.8 12.4-6.1 20.2-16.6 22.7-30.4C92.8 31 77.3 9.1 55.5 5.1c-6.7-1.2-9.1-1.2-15.5 0zm24.2 4.7c12.5 5.8 20.2 15.9 22.9 29.5 3.3 16.2-6 33.8-22.2 42.3-5 2.7-6.2 2.9-16.4 2.9-9.8 0-11.6-.3-16.7-2.7C20 76.3 11.2 64.7 8.9 51.5c-2.7-15.7 6.5-33.6 21.1-41 10.5-5.4 23.8-5.7 34.2-.7z"/><path d="M45.3 34.5c-2.2.9-3.3 2.1-3.3 3.4 0 3 1.7 3.4 2.4.6.5-2.1 1.2-2.5 4.1-2.5 2.5 0 3.5.5 4 2 .8 2.6-1.1 6-3.5 6-3.1 0-2.3 1.5 1.3 2.5 2.5.8 3.3 1.6 3.5 4 .7 5.6-5.9 7.5-10.1 2.9-1.6-1.7-2.7-2.2-3.1-1.5-.4.6.4 2.2 1.8 3.6 3 2.9 8.9 3.4 12.4.9 2.9-2 3-7.7.3-10.1-1.8-1.5-1.8-1.8-.4-3.9 2.2-3.4 1-7-2.8-8.3-1.8-.6-3.2-1.1-3.3-1.1-.1.1-1.6.7-3.3 1.5z"/></svg>