<?xml version="1.0" standalone="no"?>
<!DOCTYPE svg PUBLIC "-//W3C//DTD SVG 20010904//EN"
 "http://www.w3.org/TR/2001/REC-SVG-20010904/DTD/svg10.dtd">
<svg version="1.0" xmlns="http://www.w3.org/2000/svg"
 width="98.000000pt" height="93.000000pt" viewBox="0 0 98.000000 93.000000"
 preserveAspectRatio="xMidYMid meet">
<metadata>
Created by potrace 1.16, written by Peter Selinger 2001-2019
</metadata>
<g transform="translate(0.000000,93.000000) scale(0.100000,-0.100000)"
fill="#000000" stroke="none">
<path d="M400 879 c-120 -23 -245 -122 -298 -236 -24 -52 -27 -69 -27 -169 0
-107 1 -112 37 -186 45 -91 103 -147 196 -191 62 -30 75 -32 173 -32 101 0
108 1 181 38 124 61 202 166 227 304 39 213 -116 432 -334 472 -67 12 -91 12
-155 0z m242 -47 c125 -58 202 -159 229 -295 33 -162 -60 -338 -222 -423 -50
-27 -62 -29 -164 -29 -98 0 -116 3 -167 27 -118 55 -206 171 -229 303 -27 157
65 336 211 410 105 54 238 57 342 7z"/>
<path d="M453 585 c-22 -9 -33 -21 -33 -34 0 -30 17 -34 24 -6 5 21 12 25 41
25 25 0 35 -5 40 -20 8 -26 -11 -60 -35 -60 -31 0 -23 -15 13 -25 25 -8 33
-16 35 -40 7 -56 -59 -75 -101 -29 -16 17 -27 22 -31 15 -4 -6 4 -22 18 -36
30 -29 89 -34 124 -9 29 20 30 77 3 101 -18 15 -18 18 -4 39 22 34 10 70 -28
83 -18 6 -32 11 -33 11 -1 -1 -16 -7 -33 -15z"/>
</g>
</svg>
