<svg version="1.0" xmlns="http://www.w3.org/2000/svg" width="130.667" height="124" viewBox="0 0 98 93"><path d="M36.9 5.8C24.6 9.1 15.3 17 9.6 28.9c-2.8 6-3.1 7.4-3.1 16.6.1 7.9.5 11.1 2.3 15.5 4.4 11 15 20.8 26.6 24.4 8.9 2.8 21.1 1.9 29.7-2.2 8.3-4 15.9-11.9 20.2-20.9 2.9-6.2 3.2-7.6 3.1-16.3 0-7.3-.5-10.8-2.2-15.2C78.5 11.3 57 .4 36.9 5.8zm19 1.3C68 9.9 79.7 19.7 84.1 30.7c1.8 4.6 2.3 7.8 2.4 15.3 0 8.7-.3 10.1-3.2 16.3-3.9 8.2-11 15.4-19 19.4-5.3 2.6-6.7 2.8-16.8 2.8-9.3 0-11.8-.3-15.9-2.3C7.1 70.9.1 39 18 19.6 28.1 8.6 42.3 3.9 55.9 7.1z"/><path d="M49.7 34.3C48 35.6 40 48.5 40 50c0 1.2 2.9 1.9 6.2 1.5 3-.3 4 .6 4.2 3.8.2 3.4 2.6 3.3 2.6-.1 0-1.9.6-3.2 1.8-3.7 1.6-.6 1.6-.7 0-1.9-1.4-1-1.8-2.8-1.8-8.4 0-7.4-.7-8.9-3.3-6.9zm.6 8.6c.3 5.4-.3 6.3-4.2 5.9l-3.1-.3 3.2-5.2c1.8-2.9 3.4-5.1 3.6-4.9.1.2.4 2.2.5 4.5z"/></svg>