<?xml version="1.0" standalone="no"?>
<!DOCTYPE svg PUBLIC "-//W3C//DTD SVG 20010904//EN"
 "http://www.w3.org/TR/2001/REC-SVG-20010904/DTD/svg10.dtd">
<svg version="1.0" xmlns="http://www.w3.org/2000/svg"
 width="98.000000pt" height="93.000000pt" viewBox="0 0 98.000000 93.000000"
 preserveAspectRatio="xMidYMid meet">
<metadata>
Created by potrace 1.16, written by Peter Selinger 2001-2019
</metadata>
<g transform="translate(0.000000,93.000000) scale(0.100000,-0.100000)"
fill="#000000" stroke="none">
<path d="M369 872 c-123 -33 -216 -112 -273 -231 -28 -60 -31 -74 -31 -166 1
-79 5 -111 23 -155 44 -110 150 -208 266 -244 89 -28 211 -19 297 22 83 40
159 119 202 209 29 62 32 76 31 163 0 73 -5 108 -22 152 -77 195 -292 304
-493 250z m190 -13 c121 -28 238 -126 282 -236 18 -46 23 -78 24 -153 0 -87
-3 -101 -32 -163 -39 -82 -110 -154 -190 -194 -53 -26 -67 -28 -168 -28 -93 0
-118 3 -159 23 -245 113 -315 432 -136 626 101 110 243 157 379 125z"/>
<path d="M497 587 c-17 -13 -97 -142 -97 -157 0 -12 29 -19 62 -15 30 3 40 -6
42 -38 2 -34 26 -33 26 1 0 19 6 32 18 37 16 6 16 7 0 19 -14 10 -18 28 -18
84 0 74 -7 89 -33 69z m6 -86 c3 -54 -3 -63 -42 -59 l-31 3 32 52 c18 29 34
51 36 49 1 -2 4 -22 5 -45z"/>
</g>
</svg>
