<svg version="1.0" xmlns="http://www.w3.org/2000/svg" width="132" height="125.333" viewBox="0 0 99 94"><path d="M41 4.4C24.1 8.2 12.1 20.8 8.9 38.3c-3.2 17.6 6.7 36 23.9 44.4 5.2 2.5 6.7 2.8 16.7 2.8 10.6 0 11.3-.1 18-3.4 8.6-4.3 15.3-11 19.6-19.6C93.2 50 92 33.1 84 21.5 77.9 12.6 67.8 6 57.1 4 50.5 2.8 48 2.8 41 4.4zm18.5 2.2C71.2 9.6 80 16.9 85.4 28c2.9 6 3.1 7.3 3.1 17 0 9.9-.2 11-3.3 17.2-3.8 7.8-11 14.9-19.2 18.7-4.9 2.3-6.7 2.6-16.5 2.6-10 0-11.5-.3-16.7-2.9-19.6-9.7-28-32.8-18.9-52.1C22.2 10.6 40.8 1.7 59.5 6.6z"/><path d="M47.6 33.4c-.7.6-1.6 3.2-2 5.8L45 44h3.8c2.1 0 4.3.5 5 1.2 1.8 1.8 1.4 6.3-.6 8.1-2.3 2.1-4.1 2.1-7 .1-3.2-2.2-4.3-.7-1.3 1.7s7.2 2.4 10.2 0c3.4-2.7 3.3-9.5-.1-12.3-1.4-1.1-3.4-1.8-4.7-1.5-1.7.3-2.3 0-2.3-1.4 0-3.6 1.2-4.9 4.5-4.9 1.9 0 3.7-.5 4-1 .3-.6.3-1-.2-1.1-.4 0-2.2-.2-4-.3-1.8-.2-3.9.1-4.7.8z"/></svg>