<?xml version="1.0" standalone="no"?>
<!DOCTYPE svg PUBLIC "-//W3C//DTD SVG 20010904//EN"
 "http://www.w3.org/TR/2001/REC-SVG-20010904/DTD/svg10.dtd">
<svg version="1.0" xmlns="http://www.w3.org/2000/svg"
 width="99.000000pt" height="94.000000pt" viewBox="0 0 99.000000 94.000000"
 preserveAspectRatio="xMidYMid meet">
<metadata>
Created by potrace 1.16, written by Peter Selinger 2001-2019
</metadata>
<g transform="translate(0.000000,94.000000) scale(0.100000,-0.100000)"
fill="#000000" stroke="none">
<path d="M410 896 c-169 -38 -289 -164 -321 -339 -32 -176 67 -360 239 -444
52 -25 67 -28 167 -28 106 0 113 1 180 34 86 43 153 110 196 196 61 125 49
294 -31 410 -61 89 -162 155 -269 175 -66 12 -91 12 -161 -4z m185 -22 c117
-30 205 -103 259 -214 29 -60 31 -73 31 -170 0 -99 -2 -110 -33 -172 -38 -78
-110 -149 -192 -187 -49 -23 -67 -26 -165 -26 -100 0 -115 3 -167 29 -196 97
-280 328 -189 521 83 179 269 268 456 219z"/>
<path d="M476 606 c-7 -6 -16 -32 -20 -58 l-6 -48 38 0 c21 0 43 -5 50 -12 18
-18 14 -63 -6 -81 -23 -21 -41 -21 -70 -1 -32 22 -43 7 -13 -17 30 -24 72 -24
102 0 34 27 33 95 -1 123 -14 11 -34 18 -47 15 -17 -3 -23 0 -23 14 0 36 12
49 45 49 19 0 37 5 40 10 3 6 3 10 -2 11 -4 0 -22 2 -40 3 -18 2 -39 -1 -47
-8z"/>
</g>
</svg>
