<svg xmlns="http://www.w3.org/2000/svg" xml:space="preserve" width="80" height="80" style="shape-rendering:geometricPrecision;text-rendering:geometricPrecision;image-rendering:optimizeQuality;fill-rule:evenodd;clip-rule:evenodd"><defs><style>.fil0{fill:#00a890}</style></defs><g id="Слой_x0020_1"><g id="_2476687348832"><path class="fil0" d="M74.24 38.94c0 18.65-15.14 33.77-33.81 33.77-18.68 0-33.82-15.12-33.82-33.77 0-18.65 15.14-33.77 33.82-33.77 18.67 0 33.81 15.12 33.81 33.77z"/><path d="M16.42 15.16C22.56 8.93 31.09 5.07 40.53 5.07c7.44 0 14.32 2.41 19.9 6.47-.08 0-.17-.01-.25-.01-5.56-4-12.38-6.36-19.75-6.36-9.39 0-17.88 3.82-24.01 9.99z" style="fill:#e7e5e5"/><path d="M10.43 54.25a33.553 33.553 0 0 1-3.72-15.41c0-9.23 3.71-17.59 9.71-23.68 6.13-6.17 14.62-9.99 24.01-9.99 7.37 0 14.19 2.36 19.75 6.36-1.02-.04-2.01-.06-2.99-.06-45.24 0-46.75 42.46-46.76 42.78z" style="fill:#148778"/><path d="M56.68 33.11c-1.17 3.84-2.38 7.67-3.57 11.5-.3.96-1.04 1.13-1.9 1.13-5.09-.01-10.19.03-15.28.03h-1.09c.36 1.7.36 1.83 2.07 1.83 4.26 0 8.52-.02 12.78-.01 1.6 0 2.85.65 3.61 2.07.71 1.3.64 2.62-.13 3.88-.9 1.47-2.7 2.15-4.34 1.67a3.922 3.922 0 0 1-2.84-3.71c0-.39.05-.84.08-1.26h-7.65c-.07.85-.03 1.57-.21 2.28-.41 1.63-1.86 2.74-3.49 2.81-1.72.07-3.24-.9-3.84-2.46-.6-1.54-.21-3.32 1.11-4.32.66-.5.64-.9.38-1.57-2.19-5.63-4.35-11.27-6.49-16.92-.25-.66-.57-.93-1.28-.87-.79.07-1.6.02-2.39.01-.83-.02-1.32-.45-1.38-1.27-.07-.76.52-1.33 1.4-1.35 1.33-.02 2.66.02 3.99-.01.82-.02 1.31.34 1.58 1.09.34.94.75 1.85 1.04 2.8.22.7.6.88 1.3.88 8.13-.03 16.25-.02 24.37-.02.3 0 .6-.01.9.01 1.04.08 1.58.78 1.27 1.78z" style="fill:#fefefe"/><path class="fil0" d="M32.31 39.38c.44 1.28.82 2.22 1.26 3.25.06.16.33.34.51.35 1.39.02 2.77-.01 4.29-.01-.11-1.3-.21-2.31-.3-3.59h-5.76zM33.28 51.47c.04.72.45 1.16 1.17 1.23.66.07 1.29-.56 1.3-1.27-.09-.66-.45-1.12-1.19-1.17-.69-.05-1.32.53-1.28 1.21zM49.92 52.7c.73-.07 1.14-.51 1.19-1.22.05-.68-.58-1.25-1.27-1.23-.74.08-1.14.5-1.19 1.22-.04.65.62 1.29 1.27 1.23zM36.32 38.11h1.67c-.13-1.49-.24-2.77-.35-4.05h-7.41c.47 1.07.91 2.26 1.27 3.35.19.55.5.7 1.03.69 1.26-.03 2.53.01 3.79.01zM39.71 43h4.95c.1-1.27.19-2.34.29-3.62h-5.53c.1 1.28.2 2.35.29 3.62zM39.35 38.11h5.75l.04-.78s.15-2.2.23-3.27h-6.36c.08 1.07.33 4.05.34 4.05zM46.41 38.05c1.89 0 3.65.02 5.41-.03.24 0 .61-.27.7-.5.39-1.12.72-2.18 1.08-3.46h-6.9c-.1 1.28-.19 2.63-.29 3.99zM46 42.99c1.55 0 2.94.02 4.33 0 .19-.01.51-.15.56-.3.36-1.07.68-2.24 1.03-3.31H46.3c-.1 1.28-.19 2.33-.3 3.61z"/></g></g></svg>