<?xml version="1.0" encoding="UTF-8"?>
<!DOCTYPE svg PUBLIC "-//W3C//DTD SVG 1.1//EN" "http://www.w3.org/Graphics/SVG/1.1/DTD/svg11.dtd">
<!-- Creator: CorelDRAW 2020 (64-Bit) -->
<svg xmlns="http://www.w3.org/2000/svg" xml:space="preserve" width="80px" height="80px" version="1.1" style="shape-rendering:geometricPrecision; text-rendering:geometricPrecision; image-rendering:optimizeQuality; fill-rule:evenodd; clip-rule:evenodd"
viewBox="0 0 80 80"
 xmlns:xlink="http://www.w3.org/1999/xlink"
 xmlns:xodm="http://www.corel.com/coreldraw/odm/2003">
 <defs>
  <style type="text/css">
   <![CDATA[
    .fil3 {fill:#FEFEFE}
    .fil1 {fill:#E7E5E5}
    .fil0 {fill:#00A890}
    .fil2 {fill:#148778}
   ]]>
  </style>
 </defs>
 <g id="Слой_x0020_1">
  <metadata id="CorelCorpID_0Corel-Layer"/>
  <g id="_2476687348832">
   <path class="fil0" d="M74.24 38.94c0,18.65 -15.14,33.77 -33.81,33.77 -18.68,0 -33.82,-15.12 -33.82,-33.77 0,-18.65 15.14,-33.77 33.82,-33.77 18.67,0 33.81,15.12 33.81,33.77z"/>
   <path class="fil1" d="M16.42 15.16c6.14,-6.23 14.67,-10.09 24.11,-10.09 7.44,0 14.32,2.41 19.9,6.47 -0.08,0 -0.17,-0.01 -0.25,-0.01 -5.56,-4 -12.38,-6.36 -19.75,-6.36 -9.39,0 -17.88,3.82 -24.01,9.99z"/>
   <path class="fil2" d="M10.43 54.25c-2.38,-4.62 -3.72,-9.86 -3.72,-15.41 0,-9.23 3.71,-17.59 9.71,-23.68 6.13,-6.17 14.62,-9.99 24.01,-9.99 7.37,0 14.19,2.36 19.75,6.36 -1.02,-0.04 -2.01,-0.06 -2.99,-0.06 -45.24,0 -46.75,42.46 -46.76,42.78z"/>
   <path class="fil3" d="M56.68 33.11c-1.17,3.84 -2.38,7.67 -3.57,11.5 -0.3,0.96 -1.04,1.13 -1.9,1.13 -5.09,-0.01 -10.19,0.03 -15.28,0.03 -0.36,0 -0.71,0 -1.09,0 0.36,1.7 0.36,1.83 2.07,1.83 4.26,0 8.52,-0.02 12.78,-0.01 1.6,0 2.85,0.65 3.61,2.07 0.71,1.3 0.64,2.62 -0.13,3.88 -0.9,1.47 -2.7,2.15 -4.34,1.67 -1.67,-0.49 -2.82,-1.99 -2.84,-3.71 0,-0.39 0.05,-0.84 0.08,-1.26 -2.58,0 -5.13,0 -7.65,0 -0.07,0.85 -0.03,1.57 -0.21,2.28 -0.41,1.63 -1.86,2.74 -3.49,2.81 -1.72,0.07 -3.24,-0.9 -3.84,-2.46 -0.6,-1.54 -0.21,-3.32 1.11,-4.32 0.66,-0.5 0.64,-0.9 0.38,-1.57 -2.19,-5.63 -4.35,-11.27 -6.49,-16.92 -0.25,-0.66 -0.57,-0.93 -1.28,-0.87 -0.79,0.07 -1.6,0.02 -2.39,0.01 -0.83,-0.02 -1.32,-0.45 -1.38,-1.27 -0.07,-0.76 0.52,-1.33 1.4,-1.35 1.33,-0.02 2.66,0.02 3.99,-0.01 0.82,-0.02 1.31,0.34 1.58,1.09 0.34,0.94 0.75,1.85 1.04,2.8 0.22,0.7 0.6,0.88 1.3,0.88 8.13,-0.03 16.25,-0.02 24.37,-0.02 0.3,0 0.6,-0.01 0.9,0.01 1.04,0.08 1.58,0.78 1.27,1.78z"/>
   <path class="fil0" d="M32.31 39.38c0.44,1.28 0.82,2.22 1.26,3.25 0.06,0.16 0.33,0.34 0.51,0.35 1.39,0.02 2.77,-0.01 4.29,-0.01 -0.11,-1.3 -0.21,-2.31 -0.3,-3.59 -1.96,0 -3.79,0 -5.76,0z"/>
   <path class="fil0" d="M33.28 51.47c0.04,0.72 0.45,1.16 1.17,1.23 0.66,0.07 1.29,-0.56 1.3,-1.27 -0.09,-0.66 -0.45,-1.12 -1.19,-1.17 -0.69,-0.05 -1.32,0.53 -1.28,1.21z"/>
   <path class="fil0" d="M49.92 52.7c0.73,-0.07 1.14,-0.51 1.19,-1.22 0.05,-0.68 -0.58,-1.25 -1.27,-1.23 -0.74,0.08 -1.14,0.5 -1.19,1.22 -0.04,0.65 0.62,1.29 1.27,1.23z"/>
   <path class="fil0" d="M36.32 38.11c0.54,0 1.08,0 1.67,0 -0.13,-1.49 -0.24,-2.77 -0.35,-4.05 -2.5,0 -4.88,0 -7.41,0 0.47,1.07 0.91,2.26 1.27,3.35 0.19,0.55 0.5,0.7 1.03,0.69 1.26,-0.03 2.53,0.01 3.79,0.01z"/>
   <path class="fil0" d="M39.71 43c1.69,0 3.27,0 4.95,0 0.1,-1.27 0.19,-2.34 0.29,-3.62 -1.87,0 -3.67,0 -5.53,0 0.1,1.28 0.2,2.35 0.29,3.62z"/>
   <path class="fil0" d="M39.35 38.11l5.75 0 0.04 -0.78c0,0 0.15,-2.2 0.23,-3.27 -2.16,0 -4.23,0 -6.36,0 0.08,1.07 0.33,4.05 0.34,4.05z"/>
   <path class="fil0" d="M46.41 38.05c1.89,0 3.65,0.02 5.41,-0.03 0.24,0 0.61,-0.27 0.7,-0.5 0.39,-1.12 0.72,-2.18 1.08,-3.46 -2.37,0 -4.61,0 -6.9,0 -0.1,1.28 -0.19,2.63 -0.29,3.99z"/>
   <path class="fil0" d="M46 42.99c1.55,0 2.94,0.02 4.33,0 0.19,-0.01 0.51,-0.15 0.56,-0.3 0.36,-1.07 0.68,-2.24 1.03,-3.31 -1.95,0 -3.74,0 -5.62,0 -0.1,1.28 -0.19,2.33 -0.3,3.61z"/>
  </g>
 </g>
</svg>
