<svg xmlns="http://www.w3.org/2000/svg" xml:space="preserve" width="80" height="80" style="shape-rendering:geometricPrecision;text-rendering:geometricPrecision;image-rendering:optimizeQuality;fill-rule:evenodd;clip-rule:evenodd"><defs><style>.fil3{fill:#fefefe}</style></defs><g id="Слой_x0020_1"><g id="_2476797016896"><path d="M73.82 40.03c0 18.66-15.09 33.79-33.69 33.79-18.61 0-33.7-15.13-33.7-33.79 0-18.66 15.09-33.78 33.7-33.78 18.6 0 33.69 15.12 33.69 33.78z" style="fill:#00a890"/><path d="M9.89 55.38a33.671 33.671 0 0 1-3.71-15.41c0-18.66 15.09-33.79 33.7-33.79 2.9 0 5.72.37 8.42 1.07-2.62-.66-5.36-1-8.17-1-18.61 0-33.7 15.12-33.7 33.78 0 5.37 1.25 10.45 3.48 14.96-.02.24-.02.38-.02.39z" style="fill:#e7e5e5"/><path d="M9.91 54.99a33.66 33.66 0 0 1-3.48-14.96c0-18.66 15.09-33.78 33.7-33.78 2.81 0 5.55.34 8.17 1 4.17 1.07 8.03 2.93 11.41 5.4-1.1-.05-2.18-.07-3.23-.07-42.7 0-46.3 38.13-46.57 42.41z" style="fill:#148778"/><path class="fil3" d="M25.16 33.98c5.15 9.54 26.88 8.91 30.64-.29.66 3.35-.66 5.75-3.3 7.55-6.11 4.15-17.74 4.19-23.88.1-2.52-1.69-4.05-3.86-3.46-7.36z"/><path class="fil3" d="M25.16 39.88c5.15 9.55 26.88 8.91 30.64-.28.66 3.35-.66 5.75-3.3 7.54-6.11 4.16-17.74 4.2-23.88.1-2.52-1.68-4.05-3.85-3.46-7.36zM25.34 52.25c3.58 5.5 9.26 6.6 15.17 6.57 6.03-.03 11.85-1.08 15.34-7.03.53 3.08-.57 5.43-3.07 7.23-6.19 4.44-18.33 4.48-24.53.06-2.78-1.99-3.77-4.41-2.91-6.83z"/><path class="fil3" d="M25.16 46.02c5.15 9.54 26.88 8.91 30.64-.28.66 3.35-.66 5.75-3.3 7.54-6.11 4.16-17.74 4.2-23.88.1-2.52-1.68-4.05-3.85-3.46-7.36zM55.98 29.51c0 4.74-6.93 8.58-15.47 8.58-8.55 0-15.47-3.84-15.47-8.58 0-4.73 6.92-8.58 15.47-8.58 8.54 0 15.47 3.85 15.47 8.58z"/></g></g></svg>