<?xml version="1.0" encoding="UTF-8"?>
<!DOCTYPE svg PUBLIC "-//W3C//DTD SVG 1.1//EN" "http://www.w3.org/Graphics/SVG/1.1/DTD/svg11.dtd">
<!-- Creator: CorelDRAW 2020 (64-Bit) -->
<svg xmlns="http://www.w3.org/2000/svg" xml:space="preserve" width="80px" height="80px" version="1.1" style="shape-rendering:geometricPrecision; text-rendering:geometricPrecision; image-rendering:optimizeQuality; fill-rule:evenodd; clip-rule:evenodd"
viewBox="0 0 80 80"
 xmlns:xlink="http://www.w3.org/1999/xlink"
 xmlns:xodm="http://www.corel.com/coreldraw/odm/2003">
 <defs>
  <style type="text/css">
   <![CDATA[
    .fil1 {fill:#E7E5E5}
    .fil0 {fill:#00A890}
    .fil2 {fill:#148778}
    .fil3 {fill:#FEFEFE;fill-rule:nonzero}
   ]]>
  </style>
 </defs>
 <g id="Слой_x0020_1">
  <metadata id="CorelCorpID_0Corel-Layer"/>
  <g id="_2476795976496">
   <path class="fil0" d="M73.82 40.03c0,18.66 -15.09,33.79 -33.69,33.79 -18.61,0 -33.7,-15.13 -33.7,-33.79 0,-18.66 15.09,-33.78 33.7,-33.78 18.6,0 33.69,15.12 33.69,33.78z"/>
   <path class="fil1" d="M9.89 55.38c-2.37,-4.62 -3.71,-9.86 -3.71,-15.41 0,-18.66 15.09,-33.79 33.7,-33.79 2.9,0 5.72,0.37 8.42,1.07 -2.62,-0.66 -5.36,-1 -8.17,-1 -18.61,0 -33.7,15.12 -33.7,33.78 0,5.37 1.25,10.45 3.48,14.96 -0.02,0.24 -0.02,0.38 -0.02,0.39z"/>
   <path class="fil2" d="M9.91 54.99c-2.23,-4.51 -3.48,-9.59 -3.48,-14.96 0,-18.66 15.09,-33.78 33.7,-33.78 2.81,0 5.55,0.34 8.17,1 4.17,1.07 8.03,2.93 11.41,5.4 -1.1,-0.04 -2.18,-0.07 -3.23,-0.07 -42.7,0 -46.3,38.13 -46.57,42.41z"/>
   <path class="fil3" d="M38.48 33.26c0,1.04 -0.17,1.98 -0.52,2.83 -0.35,0.86 -0.81,1.58 -1.39,2.18 -0.58,0.6 -1.25,1.07 -2,1.39 -0.76,0.33 -1.56,0.49 -2.38,0.49 -0.9,0 -1.74,-0.16 -2.5,-0.49 -0.77,-0.32 -1.44,-0.79 -2,-1.39 -0.55,-0.6 -0.99,-1.32 -1.3,-2.18 -0.32,-0.85 -0.47,-1.79 -0.47,-2.83 0,-1.08 0.15,-2.05 0.47,-2.91 0.31,-0.87 0.75,-1.61 1.3,-2.22 0.56,-0.61 1.23,-1.08 2,-1.41 0.76,-0.33 1.6,-0.49 2.5,-0.49 0.9,0 1.74,0.16 2.51,0.49 0.78,0.33 1.44,0.8 2,1.41 0.56,0.61 0.99,1.35 1.31,2.22 0.31,0.86 0.47,1.83 0.47,2.91zm-3.91 0c0,-0.72 -0.07,-1.32 -0.18,-1.8 -0.12,-0.48 -0.29,-0.86 -0.51,-1.15 -0.21,-0.3 -0.46,-0.51 -0.75,-0.63 -0.3,-0.13 -0.61,-0.19 -0.94,-0.19 -0.34,0 -0.66,0.06 -0.94,0.19 -0.28,0.12 -0.53,0.33 -0.74,0.63 -0.21,0.29 -0.37,0.67 -0.49,1.15 -0.11,0.48 -0.16,1.08 -0.16,1.8 0,0.69 0.05,1.27 0.16,1.74 0.12,0.47 0.28,0.83 0.49,1.11 0.21,0.28 0.46,0.49 0.74,0.6 0.28,0.13 0.6,0.19 0.94,0.19 0.33,0 0.64,-0.06 0.94,-0.19 0.29,-0.11 0.54,-0.32 0.75,-0.6 0.22,-0.28 0.39,-0.64 0.51,-1.11 0.11,-0.47 0.18,-1.05 0.18,-1.74zm19.13 14.6c0,1.04 -0.18,1.98 -0.52,2.84 -0.34,0.85 -0.81,1.58 -1.39,2.18 -0.58,0.61 -1.24,1.07 -2.01,1.4 -0.76,0.33 -1.55,0.49 -2.39,0.49 -0.91,0 -1.74,-0.16 -2.5,-0.49 -0.76,-0.33 -1.41,-0.79 -1.97,-1.4 -0.56,-0.6 -1,-1.33 -1.31,-2.18 -0.32,-0.86 -0.47,-1.8 -0.47,-2.84 0,-1.08 0.15,-2.05 0.47,-2.92 0.31,-0.86 0.75,-1.6 1.31,-2.21 0.56,-0.62 1.21,-1.08 1.97,-1.41 0.76,-0.33 1.59,-0.49 2.5,-0.49 0.92,0 1.76,0.16 2.53,0.49 0.78,0.33 1.44,0.79 2,1.41 0.56,0.61 1,1.35 1.31,2.21 0.32,0.87 0.47,1.84 0.47,2.92zm-3.92 0c0,-0.7 -0.05,-1.3 -0.18,-1.78 -0.12,-0.48 -0.28,-0.87 -0.51,-1.16 -0.22,-0.29 -0.47,-0.5 -0.76,-0.63 -0.29,-0.12 -0.61,-0.19 -0.94,-0.19 -0.34,0 -0.64,0.07 -0.92,0.19 -0.28,0.13 -0.53,0.34 -0.73,0.63 -0.21,0.29 -0.37,0.68 -0.49,1.16 -0.12,0.48 -0.18,1.08 -0.18,1.78 0,0.69 0.06,1.27 0.18,1.74 0.12,0.46 0.28,0.84 0.49,1.12 0.2,0.28 0.45,0.47 0.73,0.6 0.28,0.12 0.58,0.17 0.92,0.17 0.33,0 0.65,-0.05 0.94,-0.17 0.29,-0.13 0.54,-0.32 0.76,-0.6 0.23,-0.28 0.39,-0.66 0.51,-1.12 0.13,-0.47 0.18,-1.05 0.18,-1.74zm-16.59 5.13c-0.35,0.56 -0.72,0.94 -1.13,1.14 -0.4,0.2 -0.88,0.3 -1.41,0.3l-2.16 0 17 -26.26c0.33,-0.54 0.71,-0.95 1.13,-1.23 0.42,-0.29 0.93,-0.43 1.53,-0.43l2.17 0 -17.13 26.48z"/>
  </g>
 </g>
</svg>
