<?xml version="1.0" encoding="UTF-8"?>
<!DOCTYPE svg PUBLIC "-//W3C//DTD SVG 1.1//EN" "http://www.w3.org/Graphics/SVG/1.1/DTD/svg11.dtd">
<!-- Creator: CorelDRAW 2020 (64-Bit) -->
<svg xmlns="http://www.w3.org/2000/svg" xml:space="preserve" width="280px" height="256px" version="1.1" style="shape-rendering:geometricPrecision; text-rendering:geometricPrecision; image-rendering:optimizeQuality; fill-rule:evenodd; clip-rule:evenodd"
viewBox="0 0 280 255.99"
 xmlns:xlink="http://www.w3.org/1999/xlink"
 xmlns:xodm="http://www.corel.com/coreldraw/odm/2003">
 <defs>
  <style type="text/css">
   <![CDATA[
    .fil0 {fill:#EDFAF8}
   ]]>
  </style>
 </defs>
 <g id="Слой_x0020_1">
  <metadata id="CorelCorpID_0Corel-Layer"/>
  <polygon class="fil0" points="18.93,194.16 121.47,17.49 123.2,14.23 124.92,11.35 126.46,9.04 128.19,6.93 129.92,5.4 131.65,4.44 132.41,4.05 133.37,3.67 134.14,3.47 135.1,3.47 135.87,3.47 136.83,3.67 137.6,4.05 138.37,4.44 140.09,5.4 141.82,6.93 143.55,9.04 145.28,11.35 147.01,14.23 148.54,17.49 272.98,230.83 273.75,232.56 274.51,234.29 275.09,236.02 275.47,237.75 275.86,239.28 276.05,241.01 276.24,242.55 276.05,244.08 275.86,245.62 275.47,246.96 274.71,248.12 273.94,249.27 272.98,250.23 271.83,251.19 270.29,251.96 268.75,252.53 199.62,252.53 197.13,252.34 194.63,251.96 192.33,251.38 190.02,250.61 187.72,249.84 185.41,248.69 183.3,247.54 181,246.2 178.88,244.85 176.77,243.31 174.66,241.59 172.55,239.86 168.51,236.21 164.48,232.18 156.61,223.92 148.74,215.28 144.7,211.05 140.67,207.02 136.64,203.37 132.61,199.92 129.92,198.19 127.42,196.65 126.27,196.08 125.12,195.69 123.77,195.12 122.43,194.92 121.08,194.54 119.36,194.54 117.63,194.35 115.51,194.54 110.52,194.92 104.19,195.69 100.73,196.08 97.85,196.27 96.7,196.27 95.74,196.08 94.97,195.89 94.39,195.69 94.01,195.31 93.82,194.73 93.82,193.96 94.01,193.2 94.78,190.89 96.5,188.01 98.04,185.52 99.58,183.02 101.11,180.52 102.65,178.03 104.95,174.76 107.26,171.69 109.76,169.19 112.44,167.08 113.79,166.12 115.13,165.35 116.47,164.58 118.01,164.01 119.36,163.43 120.89,163.05 122.43,162.66 123.96,162.47 127.04,162.28 130.11,162.47 133.37,163.05 136.64,164.01 139.9,165.35 143.17,167.08 146.63,169.19 150.08,171.69 152.96,174.38 155.84,177.07 158.53,179.95 161.22,183.02 166.59,188.97 171.97,195.12 174.66,198 177.54,200.88 180.23,203.76 183.3,206.45 186.37,208.94 189.45,211.25 192.9,213.55 196.36,215.47 198.28,216.43 200.2,217.01 202.12,217.58 204.23,218.16 208.26,218.74 212.49,218.93 216.71,218.93 220.94,218.74 225.16,218.54 229.39,218.54 151.23,84.7 150.08,82.4 148.93,80.48 147.78,78.75 146.63,77.4 145.47,76.06 144.32,74.72 143.17,73.76 142.02,72.99 140.86,72.41 139.71,71.84 138.75,71.45 137.6,71.26 136.45,71.07 135.49,71.07 134.33,71.26 133.37,71.45 131.45,72.22 129.53,73.18 127.61,74.53 125.89,76.06 124.16,77.79 122.62,79.52 121.08,81.44 119.74,83.17 113.79,93.34 107.83,103.52 101.88,113.51 96.12,123.49 90.36,133.09 84.79,142.89 79.03,152.49 73.46,162.09 67.7,171.69 62.13,181.29 56.37,191.08 50.61,200.88 44.85,210.67 39.09,220.66 33.14,230.83 26.99,241.01 25.65,243.51 24.3,245.81 22.77,247.92 21.23,249.46 20.46,250.23 19.69,250.61 18.73,251 17.97,251 17.01,250.8 16.05,250.42 15.09,249.65 14.13,248.69 11.24,244.85 8.75,241.39 6.83,238.13 5.29,235.06 4.72,233.71 4.33,232.18 4.14,230.83 3.95,229.3 3.76,227.95 3.76,226.61 3.95,225.07 4.14,223.73 4.91,220.66 6.06,217.78 7.41,214.51 9.33,211.05 13.55,203.37 "/>
 </g>
</svg>
