<svg xmlns="http://www.w3.org/2000/svg" xml:space="preserve" width="80" height="80" style="shape-rendering:geometricPrecision;text-rendering:geometricPrecision;image-rendering:optimizeQuality;fill-rule:evenodd;clip-rule:evenodd"><defs><style>.fil3{fill:#fefefe}.fil0{fill:#00a890}</style></defs><g id="Слой_x0020_1"><g id="_2476279976240"><path class="fil0" d="M73.82 40.01c0 18.67-15.14 33.81-33.81 33.81-18.68 0-33.81-15.14-33.81-33.81s15.13-33.8 33.81-33.8c18.67 0 33.81 15.13 33.81 33.8z"/><path d="M9.35 54.29a33.713 33.713 0 0 1-3.17-14.3c0-18.67 15.14-33.81 33.81-33.81 7.44 0 14.32 2.41 19.9 6.48h-.02a33.63 33.63 0 0 0-19.86-6.45C21.33 6.21 6.2 21.34 6.2 40.01c0 5.1 1.13 9.94 3.15 14.28z" style="fill:#e7e5e5"/><path d="M9.9 55.41c-.19-.37-.38-.75-.55-1.12A33.759 33.759 0 0 1 6.2 40.01c0-18.67 15.13-33.8 33.81-33.8 7.42 0 14.28 2.39 19.86 6.45-1.09-.05-2.17-.07-3.21-.07-45.24 0-46.75 42.5-46.76 42.82z" style="fill:#148778"/><path class="fil3" d="M36.63 23.33a3.495 3.495 0 1 0 6.99 0 3.495 3.495 0 1 0-6.99 0zM36.93 42.61h7.16c.25 0 .46-.21.46-.46V27.7c0-.26-.21-.47-.46-.47h-7.16a.47.47 0 0 0-.47.47v14.45c0 .25.21.46.47.46z"/><path class="fil3" d="M42.73 59.22c1.02 0 1.85-.83 1.85-1.85V42.4c0-1.02-.83-1.85-1.85-1.85s-1.85.83-1.85 1.85v14.97c0 1.02.83 1.85 1.85 1.85zM38.31 59.15c1.01 0 1.84-.83 1.84-1.85V42.32c0-1.02-.83-1.85-1.84-1.85-1.02 0-1.85.83-1.85 1.85V57.3c0 1.02.83 1.85 1.85 1.85zM31.71 35.09l.03.02c.61.5 1.53.41 2.03-.2l4.34-5.31c.5-.61.41-1.52-.21-2.02l-.02-.02c-.61-.51-1.53-.42-2.03.2l-4.34 5.3c-.5.62-.41 1.53.2 2.03zM43.13 27.63l-.14.14c-.42.43-.42 1.14.01 1.56l5.54 5.45c.44.42 1.14.42 1.56-.01l.14-.15c.43-.43.42-1.13-.01-1.56l-5.54-5.45c-.43-.42-1.13-.41-1.56.02z"/><path class="fil3" d="m43.02 40 .11.11c.42.43 1.11.43 1.54.01l5.54-5.48c.43-.43.43-1.12.01-1.54l-.12-.12c-.42-.42-1.11-.43-1.53-.01l-5.55 5.49a1.09 1.09 0 0 0 0 1.54zM26.74 27.53c-.56.5-.6 1.36-.11 1.91l4.93 5.51c.5.55 1.36.6 1.91.1.56-.49.61-1.35.11-1.91l-4.93-5.5c-.5-.56-1.36-.6-1.91-.11z"/><path class="fil0" d="M39.66 30.19h.97l.54 7.22-1.03.99-1.02-.98zM40.14 27.96l.84.64-.32 1.04h-1.03l-.33-1.04z"/></g></g></svg>