<?xml version="1.0" encoding="UTF-8"?>
<!DOCTYPE svg PUBLIC "-//W3C//DTD SVG 1.1//EN" "http://www.w3.org/Graphics/SVG/1.1/DTD/svg11.dtd">
<!-- Creator: CorelDRAW 2020 (64-Bit) -->
<svg xmlns="http://www.w3.org/2000/svg" xml:space="preserve" width="80px" height="80px" version="1.1" style="shape-rendering:geometricPrecision; text-rendering:geometricPrecision; image-rendering:optimizeQuality; fill-rule:evenodd; clip-rule:evenodd"
viewBox="0 0 80 80"
 xmlns:xlink="http://www.w3.org/1999/xlink"
 xmlns:xodm="http://www.corel.com/coreldraw/odm/2003">
 <defs>
  <style type="text/css">
   <![CDATA[
    .fil3 {fill:#FEFEFE}
    .fil1 {fill:#E7E5E5}
    .fil0 {fill:#00A890}
    .fil2 {fill:#148778}
   ]]>
  </style>
 </defs>
 <g id="Слой_x0020_1">
  <metadata id="CorelCorpID_0Corel-Layer"/>
  <g id="_2476279976240">
   <path class="fil0" d="M73.82 40.01c0,18.67 -15.14,33.81 -33.81,33.81 -18.68,0 -33.81,-15.14 -33.81,-33.81 0,-18.67 15.13,-33.8 33.81,-33.8 18.67,0 33.81,15.13 33.81,33.8z"/>
   <path class="fil1" d="M9.35 54.29c-2.03,-4.35 -3.17,-9.19 -3.17,-14.3 0,-18.67 15.14,-33.81 33.81,-33.81 7.44,0 14.32,2.41 19.9,6.48 0,0 -0.01,0 -0.02,0 -5.58,-4.06 -12.44,-6.45 -19.86,-6.45 -18.68,0 -33.81,15.13 -33.81,33.8 0,5.1 1.13,9.94 3.15,14.28z"/>
   <path class="fil2" d="M9.9 55.41c-0.19,-0.37 -0.38,-0.75 -0.55,-1.12 -2.02,-4.34 -3.15,-9.18 -3.15,-14.28 0,-18.67 15.13,-33.8 33.81,-33.8 7.42,0 14.28,2.39 19.86,6.45 -1.09,-0.05 -2.17,-0.07 -3.21,-0.07 -45.24,0 -46.75,42.5 -46.76,42.82z"/>
   <path class="fil3" d="M36.63 23.33c0,1.93 1.56,3.5 3.49,3.5 1.94,0 3.5,-1.57 3.5,-3.5 0,-1.93 -1.56,-3.5 -3.5,-3.5 -1.93,0 -3.49,1.57 -3.49,3.5z"/>
   <path class="fil3" d="M36.93 42.61l7.16 0c0.25,0 0.46,-0.21 0.46,-0.46l0 -14.45c0,-0.26 -0.21,-0.47 -0.46,-0.47l-7.16 0c-0.26,0 -0.47,0.21 -0.47,0.47l0 14.45c0,0.25 0.21,0.46 0.47,0.46z"/>
   <path class="fil3" d="M42.73 59.22l0 0c1.02,0 1.85,-0.83 1.85,-1.85l0 -14.97c0,-1.02 -0.83,-1.85 -1.85,-1.85 -1.02,0 -1.85,0.83 -1.85,1.85l0 14.97c0,1.02 0.83,1.85 1.85,1.85z"/>
   <path class="fil3" d="M38.31 59.15l0 0c1.01,0 1.84,-0.83 1.84,-1.85l0 -14.98c0,-1.02 -0.83,-1.85 -1.84,-1.85 -1.02,0 -1.85,0.83 -1.85,1.85l0 14.98c0,1.02 0.83,1.85 1.85,1.85z"/>
   <path class="fil3" d="M31.71 35.09l0.03 0.02c0.61,0.5 1.53,0.41 2.03,-0.2l4.34 -5.31c0.5,-0.61 0.41,-1.52 -0.21,-2.02l-0.02 -0.02c-0.61,-0.51 -1.53,-0.42 -2.03,0.2l-4.34 5.3c-0.5,0.62 -0.41,1.53 0.2,2.03z"/>
   <path class="fil3" d="M43.13 27.63l-0.14 0.14c-0.42,0.43 -0.42,1.14 0.01,1.56l5.54 5.45c0.44,0.42 1.14,0.42 1.56,-0.01l0.14 -0.15c0.43,-0.43 0.42,-1.13 -0.01,-1.56l-5.54 -5.45c-0.43,-0.42 -1.13,-0.41 -1.56,0.02z"/>
   <path class="fil3" d="M43.02 40l0.11 0.11c0.42,0.43 1.11,0.43 1.54,0.01l5.54 -5.48c0.43,-0.43 0.43,-1.12 0.01,-1.54l-0.12 -0.12c-0.42,-0.42 -1.11,-0.43 -1.53,-0.01l-5.55 5.49c-0.42,0.42 -0.43,1.11 0,1.54z"/>
   <path class="fil3" d="M26.74 27.53l0 0c-0.56,0.5 -0.6,1.36 -0.11,1.91l4.93 5.51c0.5,0.55 1.36,0.6 1.91,0.1 0.56,-0.49 0.61,-1.35 0.11,-1.91l-4.93 -5.5c-0.5,-0.56 -1.36,-0.6 -1.91,-0.11z"/>
   <polygon class="fil0" points="39.66,30.19 40.14,30.19 40.63,30.19 41.17,37.41 40.14,38.4 39.12,37.42 "/>
   <polygon class="fil0" points="40.14,27.96 40.98,28.6 40.66,29.64 40.14,29.64 39.63,29.64 39.3,28.6 "/>
  </g>
 </g>
</svg>
