<svg xmlns="http://www.w3.org/2000/svg" xml:space="preserve" width="80" height="80" style="shape-rendering:geometricPrecision;text-rendering:geometricPrecision;image-rendering:optimizeQuality;fill-rule:evenodd;clip-rule:evenodd"><defs><style>.fil3{fill:#fefefe}</style></defs><g id="Слой_x0020_1"><g id="_2476799917040"><path d="M73.82 40.01c0 18.67-15.14 33.81-33.82 33.81S6.18 58.68 6.18 40.01 21.32 6.21 40 6.21s33.82 15.13 33.82 33.8z" style="fill:#00a890"/><path d="M8.91 26.7c5.16-12.06 17.14-20.52 31.1-20.52 7.44 0 14.32 2.41 19.91 6.48-.02 0-.04 0-.05-.01A33.721 33.721 0 0 0 40 6.21c-13.95 0-25.92 8.44-31.09 20.49z" style="fill:#e7e5e5"/><path d="M9.91 55.41A33.618 33.618 0 0 1 6.2 39.99c0-4.72.96-9.21 2.71-13.29C14.08 14.65 26.05 6.21 40 6.21c7.42 0 14.29 2.39 19.87 6.44-1.09-.04-2.15-.06-3.19-.06-45.24 0-46.76 42.5-46.77 42.82z" style="fill:#148778"/><path class="fil3" d="M42.6 26.21c0 1.96-1.59 3.55-3.56 3.55s-3.56-1.59-3.56-3.55c0-1.97 1.59-3.56 3.56-3.56s3.56 1.59 3.56 3.56zM37.98 62.72h-.02a2.141 2.141 0 0 1-1.95-2.29l.87-11.03a2.133 2.133 0 0 1 2.28-1.96l.02.01c1.16.09 2.04 1.11 1.95 2.28l-.87 11.04a2.132 2.132 0 0 1-2.28 1.95zM47.72 52.7v-.01A2.125 2.125 0 0 1 50 50.74l11.04.86c1.17.1 2.05 1.12 1.95 2.29v.01a2.125 2.125 0 0 1-2.28 1.95l-11.04-.87a2.112 2.112 0 0 1-1.95-2.28z"/><path class="fil3" d="m46.42 44.91.62-.23c.93-.34 1.97.14 2.32 1.07l2.46 6.66c.35.93-.13 1.97-1.06 2.32l-.62.22c-.93.35-1.97-.13-2.31-1.06l-2.47-6.67c-.34-.92.13-1.96 1.06-2.31z"/><path class="fil3" d="m46.22 44.51.41.64c.55.85.3 1.99-.54 2.54l-5.91 3.82c-.85.55-2 .3-2.54-.54l-.42-.64c-.54-.85-.3-1.99.55-2.54l5.91-3.82c.85-.55 1.99-.3 2.54.54z"/><path class="fil3" d="m48.6 43.9-3.93 1.65c-.69.29-1.5-.03-1.79-.72l-3.59-8.54c-.3-.69.03-1.5.72-1.79l3.94-1.65c.69-.29 1.49.03 1.78.72l3.6 8.54c.29.69-.04 1.5-.73 1.79z"/><path class="fil3" d="M48.7 40.61s2.08 3.5.68 5.91l-3.53-.96 1.85-3.99 1-.96zM40.45 30.65l-8.58 5.6c-.53.34-.68 1.05-.33 1.58l.95 1.46c.34.53 1.06.68 1.58.33l8.59-5.59c.52-.34.67-1.05.33-1.58l-.95-1.46c-.35-.53-1.06-.68-1.59-.34z"/><path class="fil3" d="M51.68 30.41H41.19c-.63 0-1.14.51-1.14 1.14v1.67c0 .62.51 1.14 1.14 1.14h10.49c.63 0 1.14-.52 1.14-1.14v-1.67c0-.63-.51-1.14-1.14-1.14zM34.16 36.43l-6.02-5.04c-.84-.7-2.1-.59-2.8.25l-.1.11c-.7.83-.59 2.1.25 2.8l6.02 5.04c.84.7 2.1.59 2.8-.25l.1-.11c.7-.84.59-2.1-.25-2.8z"/><path class="fil3" d="m56.04 41.05-.03.02c-.93.47-2.08.1-2.56-.83l-3.61-7.05a1.89 1.89 0 0 1 .82-2.55l.04-.02a1.89 1.89 0 0 1 2.55.82l3.62 7.05c.47.93.1 2.08-.83 2.56zM21.08 27.55h10.15v8.24H21.08z"/></g></g></svg>