<?xml version="1.0" encoding="UTF-8"?>
<!DOCTYPE svg PUBLIC "-//W3C//DTD SVG 1.1//EN" "http://www.w3.org/Graphics/SVG/1.1/DTD/svg11.dtd">
<!-- Creator: CorelDRAW 2020 (64-Bit) -->
<svg xmlns="http://www.w3.org/2000/svg" xml:space="preserve" width="80px" height="80px" version="1.1" style="shape-rendering:geometricPrecision; text-rendering:geometricPrecision; image-rendering:optimizeQuality; fill-rule:evenodd; clip-rule:evenodd"
viewBox="0 0 80 80"
 xmlns:xlink="http://www.w3.org/1999/xlink"
 xmlns:xodm="http://www.corel.com/coreldraw/odm/2003">
 <defs>
  <style type="text/css">
   <![CDATA[
    .fil3 {fill:#FEFEFE}
    .fil1 {fill:#E7E5E5}
    .fil0 {fill:#00A890}
    .fil2 {fill:#148778}
   ]]>
  </style>
 </defs>
 <g id="Слой_x0020_1">
  <metadata id="CorelCorpID_0Corel-Layer"/>
  <g id="_2476799917040">
   <path class="fil0" d="M73.82 40.01c0,18.67 -15.14,33.81 -33.82,33.81 -18.68,0 -33.82,-15.14 -33.82,-33.81 0,-18.67 15.14,-33.8 33.82,-33.8 18.68,0 33.82,15.13 33.82,33.8z"/>
   <path class="fil1" d="M8.91 26.7c5.16,-12.06 17.14,-20.52 31.1,-20.52 7.44,0 14.32,2.41 19.91,6.48 -0.02,0 -0.04,0 -0.05,-0.01 -5.58,-4.05 -12.45,-6.44 -19.87,-6.44 -13.95,0 -25.92,8.44 -31.09,20.49z"/>
   <path class="fil2" d="M9.91 55.41c-2.38,-4.63 -3.71,-9.87 -3.71,-15.42 0,-4.72 0.96,-9.21 2.71,-13.29 5.17,-12.05 17.14,-20.49 31.09,-20.49 7.42,0 14.29,2.39 19.87,6.44 -1.09,-0.04 -2.15,-0.06 -3.19,-0.06 -45.24,0 -46.76,42.5 -46.77,42.82z"/>
   <g>
    <path class="fil3" d="M42.6 26.21c0,1.96 -1.59,3.55 -3.56,3.55 -1.97,0 -3.56,-1.59 -3.56,-3.55 0,-1.97 1.59,-3.56 3.56,-3.56 1.97,0 3.56,1.59 3.56,3.56z"/>
    <path class="fil3" d="M37.98 62.72l-0.02 0c-1.16,-0.1 -2.04,-1.12 -1.95,-2.29l0.87 -11.03c0.09,-1.17 1.12,-2.05 2.28,-1.96l0.02 0.01c1.16,0.09 2.04,1.11 1.95,2.28l-0.87 11.04c-0.09,1.16 -1.12,2.04 -2.28,1.95z"/>
    <path class="fil3" d="M47.72 52.7l0 -0.01c0.09,-1.17 1.12,-2.04 2.28,-1.95l11.04 0.86c1.17,0.1 2.05,1.12 1.95,2.29l0 0.01c-0.09,1.17 -1.12,2.04 -2.28,1.95l-11.04 -0.87c-1.17,-0.09 -2.05,-1.11 -1.95,-2.28z"/>
    <path class="fil3" d="M46.42 44.91l0.62 -0.23c0.93,-0.34 1.97,0.14 2.32,1.07l2.46 6.66c0.35,0.93 -0.13,1.97 -1.06,2.32l-0.62 0.22c-0.93,0.35 -1.97,-0.13 -2.31,-1.06l-2.47 -6.67c-0.34,-0.92 0.13,-1.96 1.06,-2.31z"/>
    <path class="fil3" d="M46.22 44.51l0.41 0.64c0.55,0.85 0.3,1.99 -0.54,2.54l-5.91 3.82c-0.85,0.55 -2,0.3 -2.54,-0.54l-0.42 -0.64c-0.54,-0.85 -0.3,-1.99 0.55,-2.54l5.91 -3.82c0.85,-0.55 1.99,-0.3 2.54,0.54z"/>
    <path class="fil3" d="M48.6 43.9l-3.93 1.65c-0.69,0.29 -1.5,-0.03 -1.79,-0.72l-3.59 -8.54c-0.3,-0.69 0.03,-1.5 0.72,-1.79l3.94 -1.65c0.69,-0.29 1.49,0.03 1.78,0.72l3.6 8.54c0.29,0.69 -0.04,1.5 -0.73,1.79z"/>
    <path class="fil3" d="M48.7 40.61c0,0 2.08,3.5 0.68,5.91l-3.53 -0.96 1.85 -3.99 1 -0.96z"/>
    <path class="fil3" d="M40.45 30.65l-8.58 5.6c-0.53,0.34 -0.68,1.05 -0.33,1.58l0.95 1.46c0.34,0.53 1.06,0.68 1.58,0.33l8.59 -5.59c0.52,-0.34 0.67,-1.05 0.33,-1.58l-0.95 -1.46c-0.35,-0.53 -1.06,-0.68 -1.59,-0.34z"/>
    <path class="fil3" d="M51.68 30.41l-10.49 0c-0.63,0 -1.14,0.51 -1.14,1.14l0 1.67c0,0.62 0.51,1.14 1.14,1.14l10.49 0c0.63,0 1.14,-0.52 1.14,-1.14l0 -1.67c0,-0.63 -0.51,-1.14 -1.14,-1.14z"/>
    <path class="fil3" d="M34.16 36.43l-6.02 -5.04c-0.84,-0.7 -2.1,-0.59 -2.8,0.25l-0.1 0.11c-0.7,0.83 -0.59,2.1 0.25,2.8l6.02 5.04c0.84,0.7 2.1,0.59 2.8,-0.25l0.1 -0.11c0.7,-0.84 0.59,-2.1 -0.25,-2.8z"/>
    <path class="fil3" d="M56.04 41.05l-0.03 0.02c-0.93,0.47 -2.08,0.1 -2.56,-0.83l-3.61 -7.05c-0.48,-0.93 -0.11,-2.08 0.82,-2.55l0.04 -0.02c0.93,-0.48 2.08,-0.11 2.55,0.82l3.62 7.05c0.47,0.93 0.1,2.08 -0.83,2.56z"/>
    <rect class="fil3" x="21.08" y="27.55" width="10.15" height="8.24"/>
   </g>
  </g>
 </g>
</svg>
