<svg xmlns="http://www.w3.org/2000/svg" xml:space="preserve" width="80" height="80" style="shape-rendering:geometricPrecision;text-rendering:geometricPrecision;image-rendering:optimizeQuality;fill-rule:evenodd;clip-rule:evenodd"><defs><style>.fil3{fill:#fefefe}</style></defs><g id="Слой_x0020_1"><g id="_2476278314608"><path d="M73.82 40c0 18.68-15.14 33.82-33.82 33.82S6.18 58.68 6.18 40 21.32 6.18 40 6.18 73.82 21.32 73.82 40z" style="fill:#00a890"/><path d="M60.01 12.66c-.04 0-.07 0-.11-.01a33.778 33.778 0 0 0-19.79-6.47c7.44.01 14.31 2.41 19.9 6.48z" style="fill:#e7e5e5"/><path d="M10 55.43A33.636 33.636 0 0 1 6.28 40c0-18.68 15.14-33.82 33.82-33.82h.01c7.4.03 14.23 2.43 19.79 6.47-1.06-.04-2.11-.06-3.13-.06-45.25 0-46.76 42.52-46.77 42.84z" style="fill:#148778"/><path class="fil3" d="M26.77 32.99V56.43h26.36V21.17H38.7L26.77 32.99zm12.38.55-.03-10.74H51.5v32H28.4V33.54h10.75z"/><path class="fil3" d="M30.73 38.67H48.6v-1.43H30.73zM30.73 44.33H48.6V42.9H30.73zM30.73 50.01H48.6v-1.43H30.73z"/></g></g></svg>