<?xml version="1.0" encoding="UTF-8"?>
<!DOCTYPE svg PUBLIC "-//W3C//DTD SVG 1.1//EN" "http://www.w3.org/Graphics/SVG/1.1/DTD/svg11.dtd">
<!-- Creator: CorelDRAW 2020 (64-Bit) -->
<svg xmlns="http://www.w3.org/2000/svg" xml:space="preserve" width="80px" height="80px" version="1.1" style="shape-rendering:geometricPrecision; text-rendering:geometricPrecision; image-rendering:optimizeQuality; fill-rule:evenodd; clip-rule:evenodd"
viewBox="0 0 80 80"
 xmlns:xlink="http://www.w3.org/1999/xlink"
 xmlns:xodm="http://www.corel.com/coreldraw/odm/2003">
 <defs>
  <style type="text/css">
   <![CDATA[
    .fil3 {fill:#FEFEFE}
    .fil1 {fill:#E7E5E5}
    .fil0 {fill:#00A890}
    .fil2 {fill:#148778}
   ]]>
  </style>
 </defs>
 <g id="Слой_x0020_1">
  <metadata id="CorelCorpID_0Corel-Layer"/>
  <g id="_2476692026432">
   <path class="fil0" d="M73.82 40.08c0,18.63 -15.14,33.74 -33.82,33.74 -18.68,0 -33.82,-15.11 -33.82,-33.74 0,-18.64 15.14,-33.75 33.82,-33.75 18.68,0 33.82,15.11 33.82,33.75l0 0z"/>
   <path class="fil1" d="M17.95 14.49c5.95,-5.17 13.72,-8.31 22.22,-8.31 7.44,0 14.32,2.4 19.91,6.47 -0.14,-0.01 -0.27,-0.02 -0.41,-0.02 -5.54,-3.96 -12.33,-6.3 -19.67,-6.3 -8.42,0 -16.13,3.08 -22.05,8.16z"/>
   <path class="fil2" d="M10.07 55.32c-2.37,-4.62 -3.71,-9.85 -3.71,-15.39 0,-10.15 4.49,-19.25 11.59,-25.44 5.92,-5.08 13.63,-8.16 22.05,-8.16 7.34,0 14.13,2.34 19.67,6.3 -0.96,-0.04 -1.9,-0.06 -2.83,-0.06 -45.24,0 -46.76,42.43 -46.77,42.75z"/>
   <path class="fil3" d="M49.24 57.58c0.53,-4.21 -0.68,-7.63 -3.8,-10.3 -0.85,-0.73 -1.65,-1.53 -2.44,-2.33 -1.08,-1.12 -1.59,-2.46 -1.45,-4.07 0.12,-1.26 0.72,-2.23 1.53,-3.07 1.11,-1.14 2.29,-2.21 3.42,-3.33 2.57,-2.54 3.11,-5.73 2.77,-9.19 -5.87,0 -11.69,0 -17.54,0 0,0.75 0.01,1.43 0,2.1 -0.05,2.83 0.93,5.22 2.9,7.18 1.04,1.04 2.15,2.01 3.18,3.07 0.87,0.9 1.57,1.9 1.68,3.27 0.14,1.66 -0.41,2.99 -1.53,4.12 -1.3,1.32 -2.68,2.56 -3.92,3.92 -2.24,2.44 -2.53,5.46 -2.26,8.63 5.86,0 11.66,0 17.46,0zm-18.73 -32.3c-0.55,-0.07 -0.94,-0.11 -1.33,-0.19 -0.74,-0.15 -1.26,-0.84 -1.23,-1.58 0.04,-0.8 0.62,-1.44 1.42,-1.47 1.62,-0.04 3.24,-0.07 4.87,-0.07 5.7,0 11.4,0 17.1,0.01 1.01,0 1.7,0.6 1.76,1.5 0.05,0.86 -0.57,1.52 -1.54,1.66 -0.31,0.04 -0.61,0.09 -0.92,0.13 -0.08,1.42 -0.09,2.77 -0.24,4.1 -0.24,2.14 -1.14,4 -2.6,5.53 -1.19,1.26 -2.48,2.43 -3.7,3.66 -1,1.02 -1.7,2.21 -1.23,3.7 0.23,0.7 0.66,1.38 1.16,1.91 1.1,1.19 2.32,2.26 3.45,3.42 2.07,2.1 3.09,4.67 3.06,7.67 0,0.76 0,1.52 0,2.29 0.53,0.07 0.93,0.1 1.32,0.19 0.75,0.16 1.3,0.93 1.23,1.66 -0.08,0.86 -0.68,1.46 -1.53,1.46 -7.35,0 -14.71,0 -22.06,0 -0.86,0 -1.45,-0.58 -1.54,-1.45 -0.08,-0.78 0.49,-1.53 1.31,-1.68 0.36,-0.07 0.73,-0.11 1.24,-0.18 0,-0.7 0.01,-1.4 -0.01,-2.09 -0.08,-3.36 1.18,-6.11 3.52,-8.37 0.98,-0.95 2,-1.85 2.95,-2.82 1.82,-1.88 1.82,-3.82 -0.01,-5.7 -1.13,-1.16 -2.34,-2.24 -3.47,-3.4 -2.04,-2.09 -3.01,-4.65 -2.98,-7.62 0.01,-0.73 0,-1.46 0,-2.27z"/>
   <path class="fil3" d="M48.32 30.09c-0.43,1.76 -1.39,3.08 -2.58,4.24 -0.91,0.89 -1.85,1.75 -2.76,2.63 -1.19,1.14 -1.65,2.54 -2.17,4.17 -0.06,0.18 -0.17,0.54 -0.28,0.88 -0.12,-0.35 -0.23,-0.74 -0.29,-0.97 -0.45,-1.57 -0.98,-2.92 -2.1,-4.02 -1.14,-1.11 -2.31,-2.19 -3.42,-3.33 -0.97,-0.98 -1.6,-2.17 -2.01,-3.6 5.22,0 10.36,0 15.61,0z"/>
   <path class="fil3" d="M48.1 56.88c-5.05,0 -10.09,0 -15.33,0 0.32,-0.28 0.49,-0.46 0.68,-0.6 1.93,-1.4 3.85,-2.82 5.79,-4.2 1.25,-0.89 1.26,-0.88 2.4,-0.13 0.51,0.34 0.44,0.31 0.99,0.7 1.73,1.26 3.64,2.65 5.55,4.04 -0.03,0.06 -0.05,0.13 -0.08,0.19z"/>
   <path class="fil3" d="M40.76 43.59c0,0.31 -0.25,0.56 -0.55,0.56 -0.3,0 -0.54,-0.25 -0.54,-0.56 0,-0.31 0.24,-0.56 0.54,-0.56 0.3,0 0.55,0.25 0.55,0.56z"/>
   <path class="fil3" d="M41.69 44.83c0,0.42 -0.33,0.76 -0.74,0.76 -0.4,0 -0.74,-0.34 -0.74,-0.76 0,-0.43 0.33,-0.77 0.74,-0.77 0.41,0 0.74,0.34 0.74,0.77z"/>
   <path class="fil3" d="M40.06 45.83c0,0.15 -0.12,0.28 -0.27,0.28 -0.15,0 -0.27,-0.13 -0.27,-0.28 0,-0.16 0.12,-0.28 0.27,-0.28 0.15,0 0.27,0.12 0.27,0.28z"/>
   <path class="fil3" d="M41.69 47.65c0,0.29 -0.22,0.53 -0.51,0.53 -0.28,0 -0.51,-0.24 -0.51,-0.53 0,-0.29 0.23,-0.53 0.51,-0.53 0.29,0 0.51,0.24 0.51,0.53z"/>
   <path class="fil3" d="M40.33 47.91c0,0.38 -0.3,0.68 -0.66,0.68 -0.36,0 -0.65,-0.3 -0.65,-0.68 0,-0.37 0.29,-0.67 0.65,-0.67 0.36,0 0.66,0.3 0.66,0.67z"/>
   <path class="fil3" d="M41.55 49.86c0,0.34 -0.26,0.61 -0.6,0.61 -0.33,0 -0.59,-0.27 -0.59,-0.61 0,-0.35 0.26,-0.62 0.59,-0.62 0.34,0 0.6,0.27 0.6,0.62z"/>
   <path class="fil3" d="M39.67 50.62c0,0.16 -0.13,0.29 -0.28,0.29 -0.16,0 -0.29,-0.13 -0.29,-0.29 0,-0.16 0.13,-0.29 0.29,-0.29 0.15,0 0.28,0.13 0.28,0.29z"/>
  </g>
 </g>
</svg>
