<svg xmlns="http://www.w3.org/2000/svg" xml:space="preserve" width="84" height="84" style="shape-rendering:geometricPrecision;text-rendering:geometricPrecision;image-rendering:optimizeQuality;fill-rule:evenodd;clip-rule:evenodd" viewBox="0 0 6.89 6.89"><path d="M3.45 6.89v-.21h.16l.17-.02.16-.02.16-.03.15-.03.16-.05.15-.05.15-.05.14-.07.14-.07.13-.08.13-.08.13-.09.12-.1.12-.1.11-.11.11-.11.1-.12.1-.12.09-.13.08-.13.08-.13.07-.14.07-.15.05-.14.06-.15.04-.16.04-.15.02-.16.02-.16.02-.17v-.16h.21v.17l-.02.18-.02.17-.03.17-.04.17-.04.16-.06.16-.06.16-.07.15-.07.15-.09.14-.09.14-.09.14-.11.13-.1.12-.12.12-.12.12-.12.1-.13.11-.14.09-.14.09-.14.08-.15.08-.15.07-.16.06-.16.06-.16.04-.17.04-.17.03-.17.02-.18.02h-.17zM0 3.45h.21v.16l.02.17.02.16.03.16.03.15.05.16.05.15.05.14.07.15.07.14.08.13.08.13.09.13.1.12.1.12.11.11.11.11.12.1.12.1.13.09.13.08.13.08.14.07.15.07.14.05.15.05.16.05.15.03.16.03.16.02.17.02h.17v.21h-.18l-.18-.02-.17-.02-.17-.03-.17-.04-.16-.04-.16-.06-.16-.06-.15-.07-.15-.08-.14-.08-.14-.09-.14-.09-.13-.11-.12-.1-.12-.12-.11-.12-.11-.12-.11-.13-.09-.14-.09-.14-.08-.14-.08-.15-.07-.15-.06-.16-.06-.16-.04-.16-.04-.17-.03-.17-.02-.17L0 3.62v-.17zM3.45 0v.21h-.17l-.17.02-.16.02-.16.03-.15.03-.16.05-.15.05-.14.05-.15.07L1.9.6l-.13.08-.13.08-.13.09-.12.1-.12.1-.11.11-.11.11-.1.12-.1.12-.09.13-.08.13-.08.13-.07.14-.07.15-.05.14-.05.15-.05.16-.03.15-.03.16-.02.16-.02.17v.17H0v-.18l.02-.18.02-.17.03-.17.04-.17.04-.16.06-.16.06-.16.07-.15.08-.15.08-.14.09-.14.09-.14.11-.13.11-.12.11-.12.12-.12.12-.1.13-.11.14-.09.14-.09.14-.08.15-.08.15-.07.16-.06.16-.06.16-.04.17-.04.17-.03.17-.02.18-.02h.18zm3.44 3.45h-.21v-.17l-.02-.17-.02-.16-.02-.16-.04-.15-.04-.16-.06-.15-.05-.14-.07-.15-.07-.14-.08-.13-.08-.13-.09-.13-.1-.12-.1-.12-.11-.11-.11-.11-.12-.1-.12-.1-.13-.09-.13-.08L4.99.6 4.85.53 4.71.46 4.56.41 4.41.36 4.25.31 4.1.28 3.94.25 3.78.23 3.61.21h-.16V0h.17l.18.02.17.02.17.03.17.04.16.04.16.06.16.06.15.07.15.08.14.08.14.09.14.09.13.11.12.1.12.12.12.12.1.12.11.13.09.14.09.14.09.14.07.15.07.15.06.16.06.16.04.16.04.17.03.17.02.17.02.18v.18z" style="fill:#00a890;fill-rule:nonzero"/><path d="M3.5 4.2V2.59h-.26c-.03 0-.06-.01-.08-.03a.09.09 0 0 1-.04-.08c0-.03.01-.06.04-.08.02-.02.05-.03.08-.03h.44c.03 0 .05 0 .06.01 0 .01.01.03.01.06V4.2H4c.08 0 .12.03.12.11 0 .03-.01.05-.03.07-.03.03-.05.04-.08.04H3.2c-.03 0-.06-.01-.09-.04a.09.09 0 0 1-.03-.07c0-.03.01-.06.03-.08.03-.02.06-.03.09-.03h.3z" style="fill:#148778;fill-rule:nonzero"/></svg>