<?xml version="1.0" encoding="UTF-8"?>
<!DOCTYPE svg PUBLIC "-//W3C//DTD SVG 1.1//EN" "http://www.w3.org/Graphics/SVG/1.1/DTD/svg11.dtd">
<!-- Creator: CorelDRAW 2020 (64-Bit) -->
<svg xmlns="http://www.w3.org/2000/svg" xml:space="preserve" width="84px" height="84px" version="1.1" style="shape-rendering:geometricPrecision; text-rendering:geometricPrecision; image-rendering:optimizeQuality; fill-rule:evenodd; clip-rule:evenodd"
viewBox="0 0 6.89 6.89"
 xmlns:xlink="http://www.w3.org/1999/xlink"
 xmlns:xodm="http://www.corel.com/coreldraw/odm/2003">
 <defs>
  <style type="text/css">
   <![CDATA[
    .fil0 {fill:#00A890;fill-rule:nonzero}
    .fil1 {fill:#148778;fill-rule:nonzero}
   ]]>
  </style>
 </defs>
 <g id="Layer_x0020_1">
  <metadata id="CorelCorpID_0Corel-Layer"/>
  <g id="_2536816861104">
   <g>
    <path class="fil0" d="M3.45 6.89l0 -0.21 0 0 0.16 0 0.17 -0.02 0.16 -0.02 0.16 -0.03 0.15 -0.03 0.16 -0.05 0.15 -0.05 0.15 -0.05 0.14 -0.07 0.14 -0.07 0.13 -0.08 0.13 -0.08 0.13 -0.09 0.12 -0.1 0.12 -0.1 0.11 -0.11 0.11 -0.11 0.1 -0.12 0.1 -0.12 0.09 -0.13 0.08 -0.13 0.08 -0.13 0.07 -0.14 0.07 -0.15 0.05 -0.14 0.06 -0.15 0.04 -0.16 0.04 -0.15 0.02 -0.16 0.02 -0.16 0.02 -0.17 0 -0.16 0.21 0 0 0.17 -0.02 0.18 -0.02 0.17 -0.03 0.17 -0.04 0.17 -0.04 0.16 -0.06 0.16 -0.06 0.16 -0.07 0.15 -0.07 0.15 -0.09 0.14 -0.09 0.14 -0.09 0.14 -0.11 0.13 -0.1 0.12 -0.12 0.12 -0.12 0.12 -0.12 0.1 -0.13 0.11 -0.14 0.09 -0.14 0.09 -0.14 0.08 -0.15 0.08 -0.15 0.07 -0.16 0.06 -0.16 0.06 -0.16 0.04 -0.17 0.04 -0.17 0.03 -0.17 0.02 -0.18 0.02 -0.17 0 0 0zm-3.45 -3.44l0.21 0 0 0 0 0.16 0.02 0.17 0.02 0.16 0.03 0.16 0.03 0.15 0.05 0.16 0.05 0.15 0.05 0.14 0.07 0.15 0.07 0.14 0.08 0.13 0.08 0.13 0.09 0.13 0.1 0.12 0.1 0.12 0.11 0.11 0.11 0.11 0.12 0.1 0.12 0.1 0.13 0.09 0.13 0.08 0.13 0.08 0.14 0.07 0.15 0.07 0.14 0.05 0.15 0.05 0.16 0.05 0.15 0.03 0.16 0.03 0.16 0.02 0.17 0.02 0.17 0 0 0.21 -0.18 0 -0.18 -0.02 -0.17 -0.02 -0.17 -0.03 -0.17 -0.04 -0.16 -0.04 -0.16 -0.06 -0.16 -0.06 -0.15 -0.07 -0.15 -0.08 -0.14 -0.08 -0.14 -0.09 -0.14 -0.09 -0.13 -0.11 -0.12 -0.1 -0.12 -0.12 -0.11 -0.12 -0.11 -0.12 -0.11 -0.13 -0.09 -0.14 -0.09 -0.14 -0.08 -0.14 -0.08 -0.15 -0.07 -0.15 -0.06 -0.16 -0.06 -0.16 -0.04 -0.16 -0.04 -0.17 -0.03 -0.17 -0.02 -0.17 -0.02 -0.18 0 -0.17 0 0zm3.45 -3.45l0 0.21 0 0 -0.17 0 -0.17 0.02 -0.16 0.02 -0.16 0.03 -0.15 0.03 -0.16 0.05 -0.15 0.05 -0.14 0.05 -0.15 0.07 -0.14 0.07 -0.13 0.08 -0.13 0.08 -0.13 0.09 -0.12 0.1 -0.12 0.1 -0.11 0.11 -0.11 0.11 -0.1 0.12 -0.1 0.12 -0.09 0.13 -0.08 0.13 -0.08 0.13 -0.07 0.14 -0.07 0.15 -0.05 0.14 -0.05 0.15 -0.05 0.16 -0.03 0.15 -0.03 0.16 -0.02 0.16 -0.02 0.17 0 0.17 -0.21 0 0 -0.18 0.02 -0.18 0.02 -0.17 0.03 -0.17 0.04 -0.17 0.04 -0.16 0.06 -0.16 0.06 -0.16 0.07 -0.15 0.08 -0.15 0.08 -0.14 0.09 -0.14 0.09 -0.14 0.11 -0.13 0.11 -0.12 0.11 -0.12 0.12 -0.12 0.12 -0.1 0.13 -0.11 0.14 -0.09 0.14 -0.09 0.14 -0.08 0.15 -0.08 0.15 -0.07 0.16 -0.06 0.16 -0.06 0.16 -0.04 0.17 -0.04 0.17 -0.03 0.17 -0.02 0.18 -0.02 0.18 0 0 0zm3.44 3.45l-0.21 0 0 0 0 -0.17 -0.02 -0.17 -0.02 -0.16 -0.02 -0.16 -0.04 -0.15 -0.04 -0.16 -0.06 -0.15 -0.05 -0.14 -0.07 -0.15 -0.07 -0.14 -0.08 -0.13 -0.08 -0.13 -0.09 -0.13 -0.1 -0.12 -0.1 -0.12 -0.11 -0.11 -0.11 -0.11 -0.12 -0.1 -0.12 -0.1 -0.13 -0.09 -0.13 -0.08 -0.13 -0.08 -0.14 -0.07 -0.14 -0.07 -0.15 -0.05 -0.15 -0.05 -0.16 -0.05 -0.15 -0.03 -0.16 -0.03 -0.16 -0.02 -0.17 -0.02 -0.16 0 0 -0.21 0.17 0 0.18 0.02 0.17 0.02 0.17 0.03 0.17 0.04 0.16 0.04 0.16 0.06 0.16 0.06 0.15 0.07 0.15 0.08 0.14 0.08 0.14 0.09 0.14 0.09 0.13 0.11 0.12 0.1 0.12 0.12 0.12 0.12 0.1 0.12 0.11 0.13 0.09 0.14 0.09 0.14 0.09 0.14 0.07 0.15 0.07 0.15 0.06 0.16 0.06 0.16 0.04 0.16 0.04 0.17 0.03 0.17 0.02 0.17 0.02 0.18 0 0.18 0 0z"/>
   </g>
   <path class="fil1" d="M3.5 4.2l0 -1.61 -0.26 0c-0.03,0 -0.06,-0.01 -0.08,-0.03 -0.03,-0.02 -0.04,-0.05 -0.04,-0.08 0,-0.03 0.01,-0.06 0.04,-0.08 0.02,-0.02 0.05,-0.03 0.08,-0.03l0.44 0c0.03,0 0.05,0 0.06,0.01 0,0.01 0.01,0.03 0.01,0.06l0 1.76 0.25 0c0.08,0 0.12,0.03 0.12,0.11 0,0.03 -0.01,0.05 -0.03,0.07 -0.03,0.03 -0.05,0.04 -0.08,0.04l-0.81 0c-0.03,0 -0.06,-0.01 -0.09,-0.04 -0.02,-0.02 -0.03,-0.04 -0.03,-0.07 0,-0.03 0.01,-0.06 0.03,-0.08 0.03,-0.02 0.06,-0.03 0.09,-0.03l0.3 0z"/>
  </g>
 </g>
</svg>
