<svg xmlns="http://www.w3.org/2000/svg" xml:space="preserve" width="84" height="84" style="shape-rendering:geometricPrecision;text-rendering:geometricPrecision;image-rendering:optimizeQuality;fill-rule:evenodd;clip-rule:evenodd" viewBox="0 0 12.69 12.69"><path d="M6.35 12.69v-.39h.3l.31-.03.3-.03.29-.06.29-.06.28-.08.28-.1.27-.1.26-.12.26-.13.25-.15.24-.15.23-.17.23-.18.21-.18.21-.2.2-.21.19-.21.17-.23.17-.23.15-.24.15-.25.13-.26.12-.27.11-.27.09-.27.08-.29.07-.28.05-.3.04-.29.02-.31.01-.3h.38v.32l-.03.32-.04.32-.05.31-.08.31-.08.3-.1.3-.11.29-.13.28-.14.27-.15.27-.17.25-.18.25-.19.24-.19.23-.21.22-.23.21-.23.2-.24.19-.24.18-.26.16-.27.16-.27.14-.28.12-.29.12-.3.1-.3.08-.3.07-.32.06-.31.04-.33.02-.32.01zM0 6.35h.39l.01.3.02.31.04.29.05.3.07.28.08.29.09.27.11.28.11.26.14.26.14.25.16.24.16.23.18.23.19.21.19.21.21.2.22.18.22.18.24.17.24.15.25.15.25.13.27.12.27.1.27.1.29.08.29.06.29.06.3.03.3.03h.31v.39l-.33-.01-.32-.02-.32-.04-.31-.06-.31-.07-.3-.08-.3-.1-.28-.12-.28-.12-.28-.14-.26-.16-.26-.16-.25-.18-.24-.19-.23-.2-.22-.21-.21-.22-.2-.23-.19-.24-.18-.25-.16-.25-.15-.27-.14-.27-.13-.28-.11-.29-.1-.3-.09-.3-.07-.31-.06-.31-.04-.32-.02-.32L0 6.35zM6.35 0v.39L6.04.4l-.3.02-.3.04-.29.05-.29.07-.29.08-.27.09-.27.11-.27.11-.25.14-.25.14-.24.15-.24.17-.22.18-.22.19-.21.19-.19.21-.19.22-.18.22-.16.23-.16.25-.14.25-.14.25-.11.27-.11.27-.09.27-.08.29-.07.28-.05.3-.04.3-.02.3-.01.31H0l.01-.33.02-.32.04-.32.06-.31.07-.31.09-.3.1-.3.11-.28.13-.29.14-.27.15-.26.16-.26.18-.25.19-.24.2-.23.21-.22.22-.21.23-.2.24-.19.25-.18.26-.16.26-.15.28-.14.28-.13.28-.11.3-.1.3-.09.31-.07.31-.06.32-.04.32-.02.33-.01zm6.34 6.35h-.38l-.01-.31-.02-.3-.04-.3-.05-.3-.07-.28-.08-.29-.09-.27-.11-.27-.12-.27-.13-.25-.15-.25-.15-.25-.17-.23-.17-.22-.19-.22-.2-.21-.21-.19-.21-.19-.23-.18-.23-.17-.24-.15-.25-.14-.26-.14-.26-.11L8.4.75 8.12.66 7.84.58 7.55.51 7.26.46l-.3-.04L6.65.4l-.3-.01V0l.32.01.33.02.31.04.32.06.3.07.3.09.3.1.29.11.28.13.27.14.27.15.26.16.24.18.24.19.23.2.23.21.21.22.19.23.19.24.18.25.17.26.15.26.14.27.13.29.11.28.1.3.08.3.08.31.05.31.04.32.03.32v.33z" style="fill:#00a890;fill-rule:nonzero"/><path d="M5.36 5.62c0-.78.39-1.18 1.17-1.18.28 0 .52.1.72.28.19.19.29.42.29.71 0 .26-.09.52-.28.76L6.01 7.84h1.44c.13 0 .19.07.19.21 0 .13-.07.2-.2.2H5.58c-.06 0-.11-.02-.16-.05a.204.204 0 0 1-.06-.15c0-.04.01-.08.05-.13l1.43-1.93c.13-.17.19-.36.19-.55 0-.17-.05-.31-.17-.42a.597.597 0 0 0-.42-.16c-.43 0-.64.25-.64.76 0 .1-.02.18-.06.23-.04.05-.09.07-.16.07-.15 0-.22-.1-.22-.3z" style="fill:#148778;fill-rule:nonzero"/></svg>