<?xml version="1.0" encoding="UTF-8"?>
<!DOCTYPE svg PUBLIC "-//W3C//DTD SVG 1.1//EN" "http://www.w3.org/Graphics/SVG/1.1/DTD/svg11.dtd">
<!-- Creator: CorelDRAW 2020 (64-Bit) -->
<svg xmlns="http://www.w3.org/2000/svg" xml:space="preserve" width="84px" height="84px" version="1.1" style="shape-rendering:geometricPrecision; text-rendering:geometricPrecision; image-rendering:optimizeQuality; fill-rule:evenodd; clip-rule:evenodd"
viewBox="0 0 12.69 12.69"
 xmlns:xlink="http://www.w3.org/1999/xlink"
 xmlns:xodm="http://www.corel.com/coreldraw/odm/2003">
 <defs>
  <style type="text/css">
   <![CDATA[
    .fil0 {fill:#00A890;fill-rule:nonzero}
    .fil1 {fill:#148778;fill-rule:nonzero}
   ]]>
  </style>
 </defs>
 <g id="Layer_x0020_1">
  <metadata id="CorelCorpID_0Corel-Layer"/>
  <g id="_2572746704832">
   <g>
    <path class="fil0" d="M6.35 12.69l0 -0.39 0 0 0.3 0 0.31 -0.03 0.3 -0.03 0.29 -0.06 0.29 -0.06 0.28 -0.08 0.28 -0.1 0.27 -0.1 0.26 -0.12 0.26 -0.13 0.25 -0.15 0.24 -0.15 0.23 -0.17 0.23 -0.18 0.21 -0.18 0.21 -0.2 0.2 -0.21 0.19 -0.21 0.17 -0.23 0.17 -0.23 0.15 -0.24 0.15 -0.25 0.13 -0.26 0.12 -0.27 0.11 -0.27 0.09 -0.27 0.08 -0.29 0.07 -0.28 0.05 -0.3 0.04 -0.29 0.02 -0.31 0.01 -0.3 0.38 0 0 0.32 -0.03 0.32 -0.04 0.32 -0.05 0.31 -0.08 0.31 -0.08 0.3 -0.1 0.3 -0.11 0.29 -0.13 0.28 -0.14 0.27 -0.15 0.27 -0.17 0.25 -0.18 0.25 -0.19 0.24 -0.19 0.23 -0.21 0.22 -0.23 0.21 -0.23 0.2 -0.24 0.19 -0.24 0.18 -0.26 0.16 -0.27 0.16 -0.27 0.14 -0.28 0.12 -0.29 0.12 -0.3 0.1 -0.3 0.08 -0.3 0.07 -0.32 0.06 -0.31 0.04 -0.33 0.02 -0.32 0.01 0 0zm-6.35 -6.34l0.39 0 0 0 0.01 0.3 0.02 0.31 0.04 0.29 0.05 0.3 0.07 0.28 0.08 0.29 0.09 0.27 0.11 0.28 0.11 0.26 0.14 0.26 0.14 0.25 0.16 0.24 0.16 0.23 0.18 0.23 0.19 0.21 0.19 0.21 0.21 0.2 0.22 0.18 0.22 0.18 0.24 0.17 0.24 0.15 0.25 0.15 0.25 0.13 0.27 0.12 0.27 0.1 0.27 0.1 0.29 0.08 0.29 0.06 0.29 0.06 0.3 0.03 0.3 0.03 0.31 0 0 0.39 -0.33 -0.01 -0.32 -0.02 -0.32 -0.04 -0.31 -0.06 -0.31 -0.07 -0.3 -0.08 -0.3 -0.1 -0.28 -0.12 -0.28 -0.12 -0.28 -0.14 -0.26 -0.16 -0.26 -0.16 -0.25 -0.18 -0.24 -0.19 -0.23 -0.2 -0.22 -0.21 -0.21 -0.22 -0.2 -0.23 -0.19 -0.24 -0.18 -0.25 -0.16 -0.25 -0.15 -0.27 -0.14 -0.27 -0.13 -0.28 -0.11 -0.29 -0.1 -0.3 -0.09 -0.3 -0.07 -0.31 -0.06 -0.31 -0.04 -0.32 -0.02 -0.32 -0.01 -0.32 0 0zm6.35 -6.35l0 0.39 0 0 -0.31 0.01 -0.3 0.02 -0.3 0.04 -0.29 0.05 -0.29 0.07 -0.29 0.08 -0.27 0.09 -0.27 0.11 -0.27 0.11 -0.25 0.14 -0.25 0.14 -0.24 0.15 -0.24 0.17 -0.22 0.18 -0.22 0.19 -0.21 0.19 -0.19 0.21 -0.19 0.22 -0.18 0.22 -0.16 0.23 -0.16 0.25 -0.14 0.25 -0.14 0.25 -0.11 0.27 -0.11 0.27 -0.09 0.27 -0.08 0.29 -0.07 0.28 -0.05 0.3 -0.04 0.3 -0.02 0.3 -0.01 0.31 -0.39 0 0.01 -0.33 0.02 -0.32 0.04 -0.32 0.06 -0.31 0.07 -0.31 0.09 -0.3 0.1 -0.3 0.11 -0.28 0.13 -0.29 0.14 -0.27 0.15 -0.26 0.16 -0.26 0.18 -0.25 0.19 -0.24 0.2 -0.23 0.21 -0.22 0.22 -0.21 0.23 -0.2 0.24 -0.19 0.25 -0.18 0.26 -0.16 0.26 -0.15 0.28 -0.14 0.28 -0.13 0.28 -0.11 0.3 -0.1 0.3 -0.09 0.31 -0.07 0.31 -0.06 0.32 -0.04 0.32 -0.02 0.33 -0.01 0 0zm6.34 6.35l-0.38 0 0 0 -0.01 -0.31 -0.02 -0.3 -0.04 -0.3 -0.05 -0.3 -0.07 -0.28 -0.08 -0.29 -0.09 -0.27 -0.11 -0.27 -0.12 -0.27 -0.13 -0.25 -0.15 -0.25 -0.15 -0.25 -0.17 -0.23 -0.17 -0.22 -0.19 -0.22 -0.2 -0.21 -0.21 -0.19 -0.21 -0.19 -0.23 -0.18 -0.23 -0.17 -0.24 -0.15 -0.25 -0.14 -0.26 -0.14 -0.26 -0.11 -0.27 -0.11 -0.28 -0.09 -0.28 -0.08 -0.29 -0.07 -0.29 -0.05 -0.3 -0.04 -0.31 -0.02 -0.3 -0.01 0 -0.39 0.32 0.01 0.33 0.02 0.31 0.04 0.32 0.06 0.3 0.07 0.3 0.09 0.3 0.1 0.29 0.11 0.28 0.13 0.27 0.14 0.27 0.15 0.26 0.16 0.24 0.18 0.24 0.19 0.23 0.2 0.23 0.21 0.21 0.22 0.19 0.23 0.19 0.24 0.18 0.25 0.17 0.26 0.15 0.26 0.14 0.27 0.13 0.29 0.11 0.28 0.1 0.3 0.08 0.3 0.08 0.31 0.05 0.31 0.04 0.32 0.03 0.32 0 0.33 0 0z"/>
   </g>
   <path class="fil1" d="M5.36 5.62c0,-0.78 0.39,-1.18 1.17,-1.18 0.28,0 0.52,0.1 0.72,0.28 0.19,0.19 0.29,0.42 0.29,0.71 0,0.26 -0.09,0.52 -0.28,0.76l-1.25 1.65 1.44 0c0.13,0 0.19,0.07 0.19,0.21 0,0.13 -0.07,0.2 -0.2,0.2l-1.86 0c-0.06,0 -0.11,-0.02 -0.16,-0.05 -0.04,-0.04 -0.06,-0.09 -0.06,-0.15 0,-0.04 0.01,-0.08 0.05,-0.13l1.43 -1.93c0.13,-0.17 0.19,-0.36 0.19,-0.55 0,-0.17 -0.05,-0.31 -0.17,-0.42 -0.12,-0.11 -0.26,-0.16 -0.42,-0.16 -0.43,0 -0.64,0.25 -0.64,0.76 0,0.1 -0.02,0.18 -0.06,0.23 -0.04,0.05 -0.09,0.07 -0.16,0.07 -0.15,0 -0.22,-0.1 -0.22,-0.3z"/>
  </g>
 </g>
</svg>
