<svg xmlns="http://www.w3.org/2000/svg" xml:space="preserve" width="84" height="84" style="shape-rendering:geometricPrecision;text-rendering:geometricPrecision;image-rendering:optimizeQuality;fill-rule:evenodd;clip-rule:evenodd" viewBox="0 0 80.35 80.33"><path d="M40.17 80.33v-2.45l1.95-.05 1.91-.14 1.89-.24 1.86-.33 1.82-.43 1.79-.5 1.75-.6 1.72-.67 1.67-.76 1.62-.83 1.58-.91 1.53-.98 1.48-1.05 1.43-1.12 1.37-1.19 1.31-1.24 1.25-1.31 1.18-1.37 1.12-1.43 1.05-1.48.99-1.53.91-1.58.83-1.62.75-1.67.68-1.72.59-1.75.51-1.79.42-1.82.33-1.86.24-1.89.15-1.91.05-1.94h2.45l-.05 2.06-.16 2.04-.25 2.01-.35 1.98-.45 1.94-.54 1.91-.64 1.87-.72 1.82-.8 1.78-.89 1.73-.97 1.69-1.04 1.63-1.12 1.57-1.19 1.52-1.27 1.46-1.33 1.39-1.39 1.33-1.46 1.26-1.52 1.19-1.57 1.12-1.63 1.05-1.68.97-1.74.88-1.78.81-1.82.72-1.87.63-1.91.54-1.94.45-1.98.35-2.01.26-2.04.15-2.07.05zM0 40.17h2.45l.05 1.94.15 1.91.24 1.89.33 1.86.42 1.82.51 1.79.59 1.75.68 1.72.75 1.67.83 1.62.91 1.58.98 1.53 1.06 1.48 1.12 1.43 1.18 1.37 1.25 1.31 1.31 1.24 1.37 1.19 1.42 1.12 1.48 1.05 1.53.98 1.58.91 1.63.83 1.67.76 1.71.67 1.76.6 1.79.5 1.82.43 1.86.33 1.89.24 1.91.14 1.94.05v2.45l-2.06-.05-2.04-.15-2.01-.26-1.98-.35-1.95-.45-1.9-.54-1.87-.63-1.83-.72-1.77-.81-1.74-.88-1.68-.97-1.63-1.05-1.57-1.12-1.52-1.19-1.46-1.26-1.39-1.33-1.33-1.39-1.27-1.46-1.19-1.52-1.12-1.57L5.82 61l-.97-1.69-.89-1.73-.8-1.78-.72-1.82-.63-1.87-.55-1.91-.45-1.94-.35-1.98-.25-2.01-.16-2.04L0 40.17zM40.17 0v2.45l-1.94.05-1.91.15-1.89.24-1.86.33-1.82.42-1.79.51-1.76.59-1.71.68-1.67.75-1.63.83-1.58.91-1.53.98-1.48 1.05-1.42 1.12-1.37 1.19-1.31 1.25-1.25 1.31-1.18 1.37-1.12 1.42-1.06 1.48-.98 1.53L7 22.19l-.83 1.63-.75 1.67-.68 1.71-.59 1.75-.51 1.79-.42 1.82-.33 1.86-.24 1.89-.15 1.91-.05 1.95H0l.05-2.07.16-2.04.25-2.01.35-1.98.45-1.94.55-1.91.63-1.86.72-1.83.8-1.78.89-1.73.97-1.68 1.04-1.63 1.12-1.58 1.19-1.51 1.27-1.46 1.33-1.4 1.39-1.33 1.46-1.26 1.52-1.19 1.57-1.12 1.63-1.04 1.68-.97 1.74-.89 1.77-.8 1.83-.72 1.87-.63 1.9-.55 1.95-.44 1.98-.36 2.01-.25 2.04-.16L40.17 0zm40.18 40.17H77.9l-.05-1.95-.15-1.91-.24-1.89-.33-1.86-.42-1.82-.51-1.79-.59-1.75-.68-1.71-.75-1.67-.83-1.63-.91-1.58-.99-1.53-1.05-1.48-1.12-1.42-1.18-1.37-1.25-1.31-1.31-1.25-1.37-1.19-1.43-1.12-1.48-1.05-1.53-.98L58.15 7l-1.62-.83-1.67-.75-1.72-.68-1.75-.59-1.79-.51-1.82-.42-1.86-.33-1.89-.24-1.91-.15-1.95-.05V0l2.07.05 2.04.16 2.01.25 1.98.36 1.94.44 1.91.55 1.87.63 1.82.72 1.78.8 1.74.89 1.68.97 1.63 1.04 1.57 1.12 1.52 1.19 1.46 1.26 1.39 1.33 1.33 1.4 1.27 1.46 1.19 1.51 1.12 1.58 1.04 1.63.97 1.68.89 1.73.8 1.78.72 1.83.64 1.86.54 1.91.45 1.94.35 1.98.25 2.01.16 2.04.05 2.07z" style="fill:#00a890;fill-rule:nonzero"/><path d="M40.46 52.3c-1.81 0-3.36-.38-4.66-1.15-2.14-1.26-3.2-2.77-3.2-4.51 0-.96.51-1.44 1.54-1.44.68 0 1.23.51 1.66 1.54.82 2.05 2.4 3.07 4.74 3.07 3.51 0 5.26-1.53 5.26-4.61 0-1.28-.39-2.33-1.16-3.14-.78-.8-1.93-1.21-3.46-1.21s-2.3-.39-2.3-1.18c0-.52.24-.86.72-1.01.2-.06.74-.21 1.61-.42 2.21-.55 3.31-2.04 3.31-4.48 0-.98-.35-1.76-1.07-2.33-.71-.56-1.63-.85-2.76-.85-2.61 0-3.92 1.16-3.92 3.47 0 .39-.15.74-.45 1.05-.3.3-.68.45-1.13.45-.52 0-.94-.25-1.24-.75-.22-.39-.34-.84-.34-1.34 0-1.13.45-2.17 1.36-3.1.83-.85 1.89-1.49 3.2-1.9.9-.28 1.91-.43 3.04-.43 1.96 0 3.57.53 4.82 1.59 1.25 1.06 1.88 2.44 1.88 4.14 0 2.46-1.05 4.3-3.16 5.52 3.06.83 4.59 2.8 4.59 5.92 0 2.25-.85 4.01-2.56 5.3-1.6 1.2-3.71 1.8-6.32 1.8z" style="fill:#148778;fill-rule:nonzero"/></svg>