<?xml version="1.0" encoding="UTF-8"?>
<!DOCTYPE svg PUBLIC "-//W3C//DTD SVG 1.1//EN" "http://www.w3.org/Graphics/SVG/1.1/DTD/svg11.dtd">
<!-- Creator: CorelDRAW 2020 (64-Bit) -->
<svg xmlns="http://www.w3.org/2000/svg" xml:space="preserve" width="84px" height="84px" version="1.1" style="shape-rendering:geometricPrecision; text-rendering:geometricPrecision; image-rendering:optimizeQuality; fill-rule:evenodd; clip-rule:evenodd"
viewBox="0 0 80.35 80.33"
 xmlns:xlink="http://www.w3.org/1999/xlink"
 xmlns:xodm="http://www.corel.com/coreldraw/odm/2003">
 <defs>
  <style type="text/css">
   <![CDATA[
    .fil0 {fill:#00A890;fill-rule:nonzero}
    .fil1 {fill:#148778;fill-rule:nonzero}
   ]]>
  </style>
 </defs>
 <g id="Layer_x0020_1">
  <metadata id="CorelCorpID_0Corel-Layer"/>
  <g id="_2572456327392">
   <g>
    <path class="fil0" d="M40.17 80.33l0 -2.45 0 0 1.95 -0.05 1.91 -0.14 1.89 -0.24 1.86 -0.33 1.82 -0.43 1.79 -0.5 1.75 -0.6 1.72 -0.67 1.67 -0.76 1.62 -0.83 1.58 -0.91 1.53 -0.98 1.48 -1.05 1.43 -1.12 1.37 -1.19 1.31 -1.24 1.25 -1.31 1.18 -1.37 1.12 -1.43 1.05 -1.48 0.99 -1.53 0.91 -1.58 0.83 -1.62 0.75 -1.67 0.68 -1.72 0.59 -1.75 0.51 -1.79 0.42 -1.82 0.33 -1.86 0.24 -1.89 0.15 -1.91 0.05 -1.94 2.45 0 -0.05 2.06 -0.16 2.04 -0.25 2.01 -0.35 1.98 -0.45 1.94 -0.54 1.91 -0.64 1.87 -0.72 1.82 -0.8 1.78 -0.89 1.73 -0.97 1.69 -1.04 1.63 -1.12 1.57 -1.19 1.52 -1.27 1.46 -1.33 1.39 -1.39 1.33 -1.46 1.26 -1.52 1.19 -1.57 1.12 -1.63 1.05 -1.68 0.97 -1.74 0.88 -1.78 0.81 -1.82 0.72 -1.87 0.63 -1.91 0.54 -1.94 0.45 -1.98 0.35 -2.01 0.26 -2.04 0.15 -2.07 0.05 0 0zm-40.17 -40.16l2.45 0 0 0 0.05 1.94 0.15 1.91 0.24 1.89 0.33 1.86 0.42 1.82 0.51 1.79 0.59 1.75 0.68 1.72 0.75 1.67 0.83 1.62 0.91 1.58 0.98 1.53 1.06 1.48 1.12 1.43 1.18 1.37 1.25 1.31 1.31 1.24 1.37 1.19 1.42 1.12 1.48 1.05 1.53 0.98 1.58 0.91 1.63 0.83 1.67 0.76 1.71 0.67 1.76 0.6 1.79 0.5 1.82 0.43 1.86 0.33 1.89 0.24 1.91 0.14 1.94 0.05 0 2.45 -2.06 -0.05 -2.04 -0.15 -2.01 -0.26 -1.98 -0.35 -1.95 -0.45 -1.9 -0.54 -1.87 -0.63 -1.83 -0.72 -1.77 -0.81 -1.74 -0.88 -1.68 -0.97 -1.63 -1.05 -1.57 -1.12 -1.52 -1.19 -1.46 -1.26 -1.39 -1.33 -1.33 -1.39 -1.27 -1.46 -1.19 -1.52 -1.12 -1.57 -1.04 -1.63 -0.97 -1.69 -0.89 -1.73 -0.8 -1.78 -0.72 -1.82 -0.63 -1.87 -0.55 -1.91 -0.45 -1.94 -0.35 -1.98 -0.25 -2.01 -0.16 -2.04 -0.05 -2.06 0 0zm40.17 -40.17l0 2.45 0 0 -1.94 0.05 -1.91 0.15 -1.89 0.24 -1.86 0.33 -1.82 0.42 -1.79 0.51 -1.76 0.59 -1.71 0.68 -1.67 0.75 -1.63 0.83 -1.58 0.91 -1.53 0.98 -1.48 1.05 -1.42 1.12 -1.37 1.19 -1.31 1.25 -1.25 1.31 -1.18 1.37 -1.12 1.42 -1.06 1.48 -0.98 1.53 -0.91 1.58 -0.83 1.63 -0.75 1.67 -0.68 1.71 -0.59 1.75 -0.51 1.79 -0.42 1.82 -0.33 1.86 -0.24 1.89 -0.15 1.91 -0.05 1.95 -2.45 0 0.05 -2.07 0.16 -2.04 0.25 -2.01 0.35 -1.98 0.45 -1.94 0.55 -1.91 0.63 -1.86 0.72 -1.83 0.8 -1.78 0.89 -1.73 0.97 -1.68 1.04 -1.63 1.12 -1.58 1.19 -1.51 1.27 -1.46 1.33 -1.4 1.39 -1.33 1.46 -1.26 1.52 -1.19 1.57 -1.12 1.63 -1.04 1.68 -0.97 1.74 -0.89 1.77 -0.8 1.83 -0.72 1.87 -0.63 1.9 -0.55 1.95 -0.44 1.98 -0.36 2.01 -0.25 2.04 -0.16 2.06 -0.05 0 0zm40.18 40.17l-2.45 0 0 0 -0.05 -1.95 -0.15 -1.91 -0.24 -1.89 -0.33 -1.86 -0.42 -1.82 -0.51 -1.79 -0.59 -1.75 -0.68 -1.71 -0.75 -1.67 -0.83 -1.63 -0.91 -1.58 -0.99 -1.53 -1.05 -1.48 -1.12 -1.42 -1.18 -1.37 -1.25 -1.31 -1.31 -1.25 -1.37 -1.19 -1.43 -1.12 -1.48 -1.05 -1.53 -0.98 -1.58 -0.91 -1.62 -0.83 -1.67 -0.75 -1.72 -0.68 -1.75 -0.59 -1.79 -0.51 -1.82 -0.42 -1.86 -0.33 -1.89 -0.24 -1.91 -0.15 -1.95 -0.05 0 -2.45 2.07 0.05 2.04 0.16 2.01 0.25 1.98 0.36 1.94 0.44 1.91 0.55 1.87 0.63 1.82 0.72 1.78 0.8 1.74 0.89 1.68 0.97 1.63 1.04 1.57 1.12 1.52 1.19 1.46 1.26 1.39 1.33 1.33 1.4 1.27 1.46 1.19 1.51 1.12 1.58 1.04 1.63 0.97 1.68 0.89 1.73 0.8 1.78 0.72 1.83 0.64 1.86 0.54 1.91 0.45 1.94 0.35 1.98 0.25 2.01 0.16 2.04 0.05 2.07 0 0z"/>
   </g>
   <path class="fil1" d="M40.46 52.3c-1.81,0 -3.36,-0.38 -4.66,-1.15 -2.14,-1.26 -3.2,-2.77 -3.2,-4.51 0,-0.96 0.51,-1.44 1.54,-1.44 0.68,0 1.23,0.51 1.66,1.54 0.82,2.05 2.4,3.07 4.74,3.07 3.51,0 5.26,-1.53 5.26,-4.61 0,-1.28 -0.39,-2.33 -1.16,-3.14 -0.78,-0.8 -1.93,-1.21 -3.46,-1.21 -1.53,0 -2.3,-0.39 -2.3,-1.18 0,-0.52 0.24,-0.86 0.72,-1.01 0.2,-0.06 0.74,-0.21 1.61,-0.42 2.21,-0.55 3.31,-2.04 3.31,-4.48 0,-0.98 -0.35,-1.76 -1.07,-2.33 -0.71,-0.56 -1.63,-0.85 -2.76,-0.85 -2.61,0 -3.92,1.16 -3.92,3.47 0,0.39 -0.15,0.74 -0.45,1.05 -0.3,0.3 -0.68,0.45 -1.13,0.45 -0.52,0 -0.94,-0.25 -1.24,-0.75 -0.22,-0.39 -0.34,-0.84 -0.34,-1.34 0,-1.13 0.45,-2.17 1.36,-3.1 0.83,-0.85 1.89,-1.49 3.2,-1.9 0.9,-0.28 1.91,-0.43 3.04,-0.43 1.96,0 3.57,0.53 4.82,1.59 1.25,1.06 1.88,2.44 1.88,4.14 0,2.46 -1.05,4.3 -3.16,5.52 3.06,0.83 4.59,2.8 4.59,5.92 0,2.25 -0.85,4.01 -2.56,5.3 -1.6,1.2 -3.71,1.8 -6.32,1.8z"/>
  </g>
 </g>
</svg>
