<svg xmlns="http://www.w3.org/2000/svg" xml:space="preserve" width="84" height="132" style="shape-rendering:geometricPrecision;text-rendering:geometricPrecision;image-rendering:optimizeQuality;fill-rule:evenodd;clip-rule:evenodd" viewBox="0 0 18.56 29.15"><path d="M9.28 18.55v-.56l.45-.01.44-.04.44-.05.43-.08.42-.1.41-.11.4-.14.4-.16.39-.17.37-.19.37-.21.35-.23.34-.24.33-.26.32-.27.3-.29.29-.31.27-.31.26-.33.24-.34.23-.36.21-.36.19-.38.18-.38.15-.4.14-.4.12-.42.09-.42.08-.43.06-.43.03-.44.01-.45h.57l-.01.47-.04.48-.06.46-.08.46-.1.45-.13.44-.14.43-.17.42-.19.41-.2.4-.23.39-.24.37-.26.37-.27.35-.29.34-.31.32-.32.3-.34.3-.35.27-.36.26-.38.24-.39.22-.4.21-.41.19-.42.16-.43.15-.44.12-.45.11-.46.08-.46.06-.47.03-.48.01zM0 9.28h.57l.01.45.03.44.06.43.07.43.1.42.12.42.14.4.15.4.18.38.19.38.21.36.22.36.25.34.26.33.27.31.29.31.3.29.32.27.33.26.34.24.35.23.37.21.37.19.39.17.39.16.41.14.41.11.42.1.43.08.44.05.44.04.45.01v.56l-.48-.01-.47-.03-.46-.06-.46-.08-.45-.11-.44-.12-.43-.15-.42-.16-.41-.19-.4-.21-.39-.22-.38-.24-.36-.26-.35-.27-.34-.3-.32-.3-.31-.32-.29-.34-.28-.35-.26-.37-.24-.37-.22-.39-.21-.4-.18-.41-.17-.42-.14-.43-.13-.44-.1-.45-.08-.46-.06-.46-.04-.48L0 9.28zM9.28 0v.57l-.45.01-.44.03-.44.06-.43.07-.42.1-.41.12-.41.13-.39.16-.39.18-.37.19-.37.21-.35.22-.34.25-.33.26-.32.27-.3.29-.29.3-.27.32-.26.33-.25.34-.22.35-.21.37-.19.37-.18.39-.15.39-.14.41-.12.41-.1.42-.07.43-.06.44-.03.44-.01.45H0l.01-.48.04-.47.06-.47.08-.45.1-.45.13-.44.14-.43.17-.42.18-.42.21-.4.22-.38.24-.38.26-.36.28-.35.29-.34.31-.32.32-.31.34-.29.35-.28.36-.26.38-.24.39-.22.4-.21.41-.18.42-.17.43-.14.44-.13.45-.1.46-.08.46-.06.47-.04.48-.01zm9.28 9.28h-.57l-.01-.45-.03-.44-.06-.44-.08-.43-.09-.42-.12-.41-.14-.41-.15-.39-.18-.39-.19-.37-.21-.37-.23-.35-.24-.34-.26-.33-.27-.32-.29-.3-.3-.29-.32-.27-.33-.26-.34-.25-.35-.22-.37-.21-.37-.19-.39-.18-.4-.16-.4-.13-.41-.12-.42-.1-.43-.07-.44-.06-.44-.03-.45-.01V0l.48.01.47.04.46.06.46.08.45.1.44.13.43.14.42.17.41.18.4.21.39.22.38.24.36.26.35.28.34.29.32.31.31.32.29.34.27.35.26.36.24.38.23.38.2.4.19.42.17.42.14.43.13.44.1.45.08.45.06.47.04.47.01.48z" style="fill:#00a890;fill-rule:nonzero"/><path d="M9.89 10.61H8.02c-.33 0-.5-.09-.5-.28 0-.17.05-.34.15-.5l1.78-2.9c.1-.16.19-.27.26-.33.1-.08.24-.13.4-.13.31 0 .46.19.46.55v3c.25 0 .39.01.43.02.15.03.22.14.22.3 0 .14-.08.23-.25.27h-.4v1.11c0 .24-.11.36-.34.36-.1 0-.18-.04-.24-.1a.374.374 0 0 1-.1-.25v-1.12zm-1.63-.59h1.63V7.4l-.01-.01-1.62 2.63z" style="fill:#148778;fill-rule:nonzero"/></svg>