<?xml version="1.0" encoding="UTF-8"?>
<!DOCTYPE svg PUBLIC "-//W3C//DTD SVG 1.1//EN" "http://www.w3.org/Graphics/SVG/1.1/DTD/svg11.dtd">
<!-- Creator: CorelDRAW 2020 (64-Bit) -->
<svg xmlns="http://www.w3.org/2000/svg" xml:space="preserve" width="84px" height="132px" version="1.1" style="shape-rendering:geometricPrecision; text-rendering:geometricPrecision; image-rendering:optimizeQuality; fill-rule:evenodd; clip-rule:evenodd"
viewBox="0 0 18.56 29.15"
 xmlns:xlink="http://www.w3.org/1999/xlink"
 xmlns:xodm="http://www.corel.com/coreldraw/odm/2003">
 <defs>
  <style type="text/css">
   <![CDATA[
    .fil0 {fill:#00A890;fill-rule:nonzero}
    .fil1 {fill:#148778;fill-rule:nonzero}
   ]]>
  </style>
 </defs>
 <g id="Layer_x0020_1">
  <metadata id="CorelCorpID_0Corel-Layer"/>
  <g id="_2536816451424">
   <g>
    <path class="fil0" d="M9.28 18.55l0 -0.56 0 0 0.45 -0.01 0.44 -0.04 0.44 -0.05 0.43 -0.08 0.42 -0.1 0.41 -0.11 0.4 -0.14 0.4 -0.16 0.39 -0.17 0.37 -0.19 0.37 -0.21 0.35 -0.23 0.34 -0.24 0.33 -0.26 0.32 -0.27 0.3 -0.29 0.29 -0.31 0.27 -0.31 0.26 -0.33 0.24 -0.34 0.23 -0.36 0.21 -0.36 0.19 -0.38 0.18 -0.38 0.15 -0.4 0.14 -0.4 0.12 -0.42 0.09 -0.42 0.08 -0.43 0.06 -0.43 0.03 -0.44 0.01 -0.45 0.57 0 -0.01 0.47 -0.04 0.48 -0.06 0.46 -0.08 0.46 -0.1 0.45 -0.13 0.44 -0.14 0.43 -0.17 0.42 -0.19 0.41 -0.2 0.4 -0.23 0.39 -0.24 0.37 -0.26 0.37 -0.27 0.35 -0.29 0.34 -0.31 0.32 -0.32 0.3 -0.34 0.3 -0.35 0.27 -0.36 0.26 -0.38 0.24 -0.39 0.22 -0.4 0.21 -0.41 0.19 -0.42 0.16 -0.43 0.15 -0.44 0.12 -0.45 0.11 -0.46 0.08 -0.46 0.06 -0.47 0.03 -0.48 0.01 0 0zm-9.28 -9.27l0.57 0 0 0 0.01 0.45 0.03 0.44 0.06 0.43 0.07 0.43 0.1 0.42 0.12 0.42 0.14 0.4 0.15 0.4 0.18 0.38 0.19 0.38 0.21 0.36 0.22 0.36 0.25 0.34 0.26 0.33 0.27 0.31 0.29 0.31 0.3 0.29 0.32 0.27 0.33 0.26 0.34 0.24 0.35 0.23 0.37 0.21 0.37 0.19 0.39 0.17 0.39 0.16 0.41 0.14 0.41 0.11 0.42 0.1 0.43 0.08 0.44 0.05 0.44 0.04 0.45 0.01 0 0.56 -0.48 -0.01 -0.47 -0.03 -0.46 -0.06 -0.46 -0.08 -0.45 -0.11 -0.44 -0.12 -0.43 -0.15 -0.42 -0.16 -0.41 -0.19 -0.4 -0.21 -0.39 -0.22 -0.38 -0.24 -0.36 -0.26 -0.35 -0.27 -0.34 -0.3 -0.32 -0.3 -0.31 -0.32 -0.29 -0.34 -0.28 -0.35 -0.26 -0.37 -0.24 -0.37 -0.22 -0.39 -0.21 -0.4 -0.18 -0.41 -0.17 -0.42 -0.14 -0.43 -0.13 -0.44 -0.1 -0.45 -0.08 -0.46 -0.06 -0.46 -0.04 -0.48 -0.01 -0.47 0 0zm9.28 -9.28l0 0.57 0 0 -0.45 0.01 -0.44 0.03 -0.44 0.06 -0.43 0.07 -0.42 0.1 -0.41 0.12 -0.41 0.13 -0.39 0.16 -0.39 0.18 -0.37 0.19 -0.37 0.21 -0.35 0.22 -0.34 0.25 -0.33 0.26 -0.32 0.27 -0.3 0.29 -0.29 0.3 -0.27 0.32 -0.26 0.33 -0.25 0.34 -0.22 0.35 -0.21 0.37 -0.19 0.37 -0.18 0.39 -0.15 0.39 -0.14 0.41 -0.12 0.41 -0.1 0.42 -0.07 0.43 -0.06 0.44 -0.03 0.44 -0.01 0.45 -0.57 0 0.01 -0.48 0.04 -0.47 0.06 -0.47 0.08 -0.45 0.1 -0.45 0.13 -0.44 0.14 -0.43 0.17 -0.42 0.18 -0.42 0.21 -0.4 0.22 -0.38 0.24 -0.38 0.26 -0.36 0.28 -0.35 0.29 -0.34 0.31 -0.32 0.32 -0.31 0.34 -0.29 0.35 -0.28 0.36 -0.26 0.38 -0.24 0.39 -0.22 0.4 -0.21 0.41 -0.18 0.42 -0.17 0.43 -0.14 0.44 -0.13 0.45 -0.1 0.46 -0.08 0.46 -0.06 0.47 -0.04 0.48 -0.01 0 0zm9.28 9.28l-0.57 0 0 0 -0.01 -0.45 -0.03 -0.44 -0.06 -0.44 -0.08 -0.43 -0.09 -0.42 -0.12 -0.41 -0.14 -0.41 -0.15 -0.39 -0.18 -0.39 -0.19 -0.37 -0.21 -0.37 -0.23 -0.35 -0.24 -0.34 -0.26 -0.33 -0.27 -0.32 -0.29 -0.3 -0.3 -0.29 -0.32 -0.27 -0.33 -0.26 -0.34 -0.25 -0.35 -0.22 -0.37 -0.21 -0.37 -0.19 -0.39 -0.18 -0.4 -0.16 -0.4 -0.13 -0.41 -0.12 -0.42 -0.1 -0.43 -0.07 -0.44 -0.06 -0.44 -0.03 -0.45 -0.01 0 -0.57 0.48 0.01 0.47 0.04 0.46 0.06 0.46 0.08 0.45 0.1 0.44 0.13 0.43 0.14 0.42 0.17 0.41 0.18 0.4 0.21 0.39 0.22 0.38 0.24 0.36 0.26 0.35 0.28 0.34 0.29 0.32 0.31 0.31 0.32 0.29 0.34 0.27 0.35 0.26 0.36 0.24 0.38 0.23 0.38 0.2 0.4 0.19 0.42 0.17 0.42 0.14 0.43 0.13 0.44 0.1 0.45 0.08 0.45 0.06 0.47 0.04 0.47 0.01 0.48 0 0z"/>
   </g>
   <path class="fil1" d="M9.89 10.61l-1.87 0c-0.33,0 -0.5,-0.09 -0.5,-0.28 0,-0.17 0.05,-0.34 0.15,-0.5l1.78 -2.9c0.1,-0.16 0.19,-0.27 0.26,-0.33 0.1,-0.08 0.24,-0.13 0.4,-0.13 0.31,0 0.46,0.19 0.46,0.55l0 3c0.25,0 0.39,0.01 0.43,0.02 0.15,0.03 0.22,0.14 0.22,0.3 0,0.14 -0.08,0.23 -0.25,0.27 -0.03,0 -0.16,0 -0.4,0l0 1.11c0,0.24 -0.11,0.36 -0.34,0.36 -0.1,0 -0.18,-0.04 -0.24,-0.1 -0.06,-0.07 -0.1,-0.15 -0.1,-0.25l0 -1.12zm-1.63 -0.59l1.63 0 0 -2.62 -0.01 -0.01 -1.62 2.63z"/>
  </g>
 </g>
</svg>
