<svg xmlns="http://www.w3.org/2000/svg" xml:space="preserve" width="84" height="84" style="shape-rendering:geometricPrecision;text-rendering:geometricPrecision;image-rendering:optimizeQuality;fill-rule:evenodd;clip-rule:evenodd" viewBox="0 0 8.32 8.32"><path d="M4.16 8.32v-.26h.2l.2-.02.19-.02.2-.04.19-.04.18-.05.18-.06.18-.07.17-.08.17-.09.16-.09.16-.1.16-.11.14-.12.15-.12.13-.13.13-.14.12-.14.12-.15.11-.15.1-.16.09-.16.09-.17.08-.17.07-.18.06-.18.05-.19.05-.18.03-.2.02-.19.02-.2v-.2h.26l-.01.21-.01.21-.03.21-.04.21-.04.2-.06.19-.06.2-.08.19-.08.18-.09.18-.1.17-.11.17-.12.17-.12.15-.13.15-.14.15-.14.14-.16.13-.15.12-.17.12-.16.1-.18.1-.18.1-.18.08-.19.07-.19.07-.2.06-.2.04-.21.04-.21.03-.21.01-.21.01zM0 4.16h.25l.01.2.01.2.03.19.03.2.05.18.05.19.06.18.07.18.08.17.09.17.09.16.1.16.11.15.12.15.12.14.13.14.13.13.15.12.14.12.16.11.15.1.17.09.17.09.17.08.18.07.18.06.18.05.19.04.19.04.2.02.2.02h.2v.26l-.21-.01-.22-.01-.2-.03-.21-.04-.2-.04-.2-.06-.19-.07-.19-.07-.18-.08-.18-.1-.18-.1-.17-.1-.16-.12-.16-.12-.15-.13-.14-.14-.14-.15-.13-.15-.12-.15-.12-.17-.11-.17-.1-.17-.09-.18-.08-.18-.08-.19-.06-.2-.06-.19L.08 5l-.03-.21-.03-.21-.01-.21L0 4.16zM4.16 0v.25l-.2.01-.2.01-.2.03-.19.03-.19.05L3 .43l-.18.06-.18.07-.17.08-.17.09-.17.09-.15.1-.16.11-.14.12-.15.12-.13.13-.13.13-.12.14-.12.15-.11.16-.1.15-.09.17-.09.17-.08.17-.07.18L.43 3l-.05.18-.05.19-.03.19-.03.2-.01.2-.01.2H0l.01-.22.01-.21.03-.2.03-.21.05-.2.06-.2.06-.19.08-.19.08-.18.09-.18L.6 2l.11-.17.12-.16.12-.16.13-.15.14-.14.14-.14.15-.13.16-.12.16-.12L2 .6l.18-.1.18-.09.18-.08.19-.08.19-.06.2-.06.2-.05.21-.03.2-.03.22-.01.21-.01zm4.16 4.16h-.26v-.2l-.02-.2-.02-.2-.03-.19-.05-.19L7.89 3l-.06-.18-.07-.18-.08-.17-.09-.17-.09-.17-.1-.15-.11-.16-.12-.15-.12-.14-.13-.13-.13-.13-.15-.12-.14-.12-.16-.11-.16-.1-.16-.09-.17-.09-.17-.08L5.5.49 5.32.43 5.14.38 4.95.33 4.75.3 4.56.27l-.2-.01-.2-.01V0l.21.01.21.01.21.03.21.03.2.05.2.06.19.06.19.08.18.08.18.09.18.1.16.11.17.12.16.12.15.13.14.14.14.14.13.15.12.16.12.16.11.17.1.18.09.18.08.18.08.19.06.19.06.2.04.2.04.21.03.2.01.21.01.22z" style="fill:#00a890;fill-rule:nonzero"/><path d="m3.67 4 .15-.95c0-.05.01-.09.03-.11.02-.02.05-.03.09-.03h.86c.08 0 .13.05.13.14 0 .08-.05.13-.14.13H4.1l-.11.67a.73.73 0 0 1 .31-.07c.2 0 .37.08.5.23.13.15.19.33.19.53 0 .19-.04.35-.13.49-.09.15-.22.26-.38.32-.1.04-.2.05-.3.05-.13 0-.27-.03-.43-.1-.18-.09-.27-.19-.27-.3 0-.09.04-.13.11-.13.04 0 .08.02.13.07.08.06.13.1.17.12.08.04.18.07.28.07.16 0 .28-.06.37-.16.08-.1.12-.23.12-.39 0-.34-.16-.52-.47-.52-.05 0-.12.02-.21.05-.09.03-.16.05-.21.05-.04 0-.07-.02-.08-.05-.02-.04-.02-.07-.02-.11z" style="fill:#148778;fill-rule:nonzero"/></svg>