<?xml version="1.0" encoding="UTF-8"?>
<!DOCTYPE svg PUBLIC "-//W3C//DTD SVG 1.1//EN" "http://www.w3.org/Graphics/SVG/1.1/DTD/svg11.dtd">
<!-- Creator: CorelDRAW 2020 (64-Bit) -->
<svg xmlns="http://www.w3.org/2000/svg" xml:space="preserve" width="84px" height="84px" version="1.1" style="shape-rendering:geometricPrecision; text-rendering:geometricPrecision; image-rendering:optimizeQuality; fill-rule:evenodd; clip-rule:evenodd"
viewBox="0 0 8.32 8.32"
 xmlns:xlink="http://www.w3.org/1999/xlink"
 xmlns:xodm="http://www.corel.com/coreldraw/odm/2003">
 <defs>
  <style type="text/css">
   <![CDATA[
    .fil0 {fill:#00A890;fill-rule:nonzero}
    .fil1 {fill:#148778;fill-rule:nonzero}
   ]]>
  </style>
 </defs>
 <g id="Layer_x0020_1">
  <metadata id="CorelCorpID_0Corel-Layer"/>
  <g id="_2572753949808">
   <g>
    <path class="fil0" d="M4.16 8.32l0 -0.26 0 0 0.2 0 0.2 -0.02 0.19 -0.02 0.2 -0.04 0.19 -0.04 0.18 -0.05 0.18 -0.06 0.18 -0.07 0.17 -0.08 0.17 -0.09 0.16 -0.09 0.16 -0.1 0.16 -0.11 0.14 -0.12 0.15 -0.12 0.13 -0.13 0.13 -0.14 0.12 -0.14 0.12 -0.15 0.11 -0.15 0.1 -0.16 0.09 -0.16 0.09 -0.17 0.08 -0.17 0.07 -0.18 0.06 -0.18 0.05 -0.19 0.05 -0.18 0.03 -0.2 0.02 -0.19 0.02 -0.2 0 -0.2 0.26 0 -0.01 0.21 -0.01 0.21 -0.03 0.21 -0.04 0.21 -0.04 0.2 -0.06 0.19 -0.06 0.2 -0.08 0.19 -0.08 0.18 -0.09 0.18 -0.1 0.17 -0.11 0.17 -0.12 0.17 -0.12 0.15 -0.13 0.15 -0.14 0.15 -0.14 0.14 -0.16 0.13 -0.15 0.12 -0.17 0.12 -0.16 0.1 -0.18 0.1 -0.18 0.1 -0.18 0.08 -0.19 0.07 -0.19 0.07 -0.2 0.06 -0.2 0.04 -0.21 0.04 -0.21 0.03 -0.21 0.01 -0.21 0.01 0 0zm-4.16 -4.16l0.25 0 0 0 0.01 0.2 0.01 0.2 0.03 0.19 0.03 0.2 0.05 0.18 0.05 0.19 0.06 0.18 0.07 0.18 0.08 0.17 0.09 0.17 0.09 0.16 0.1 0.16 0.11 0.15 0.12 0.15 0.12 0.14 0.13 0.14 0.13 0.13 0.15 0.12 0.14 0.12 0.16 0.11 0.15 0.1 0.17 0.09 0.17 0.09 0.17 0.08 0.18 0.07 0.18 0.06 0.18 0.05 0.19 0.04 0.19 0.04 0.2 0.02 0.2 0.02 0.2 0 0 0.26 -0.21 -0.01 -0.22 -0.01 -0.2 -0.03 -0.21 -0.04 -0.2 -0.04 -0.2 -0.06 -0.19 -0.07 -0.19 -0.07 -0.18 -0.08 -0.18 -0.1 -0.18 -0.1 -0.17 -0.1 -0.16 -0.12 -0.16 -0.12 -0.15 -0.13 -0.14 -0.14 -0.14 -0.15 -0.13 -0.15 -0.12 -0.15 -0.12 -0.17 -0.11 -0.17 -0.1 -0.17 -0.09 -0.18 -0.08 -0.18 -0.08 -0.19 -0.06 -0.2 -0.06 -0.19 -0.05 -0.2 -0.03 -0.21 -0.03 -0.21 -0.01 -0.21 -0.01 -0.21 0 0zm4.16 -4.16l0 0.25 0 0 -0.2 0.01 -0.2 0.01 -0.2 0.03 -0.19 0.03 -0.19 0.05 -0.18 0.05 -0.18 0.06 -0.18 0.07 -0.17 0.08 -0.17 0.09 -0.17 0.09 -0.15 0.1 -0.16 0.11 -0.14 0.12 -0.15 0.12 -0.13 0.13 -0.13 0.13 -0.12 0.14 -0.12 0.15 -0.11 0.16 -0.1 0.15 -0.09 0.17 -0.09 0.17 -0.08 0.17 -0.07 0.18 -0.06 0.18 -0.05 0.18 -0.05 0.19 -0.03 0.19 -0.03 0.2 -0.01 0.2 -0.01 0.2 -0.25 0 0.01 -0.22 0.01 -0.21 0.03 -0.2 0.03 -0.21 0.05 -0.2 0.06 -0.2 0.06 -0.19 0.08 -0.19 0.08 -0.18 0.09 -0.18 0.1 -0.18 0.11 -0.17 0.12 -0.16 0.12 -0.16 0.13 -0.15 0.14 -0.14 0.14 -0.14 0.15 -0.13 0.16 -0.12 0.16 -0.12 0.17 -0.11 0.18 -0.1 0.18 -0.09 0.18 -0.08 0.19 -0.08 0.19 -0.06 0.2 -0.06 0.2 -0.05 0.21 -0.03 0.2 -0.03 0.22 -0.01 0.21 -0.01 0 0zm4.16 4.16l-0.26 0 0 0 0 -0.2 -0.02 -0.2 -0.02 -0.2 -0.03 -0.19 -0.05 -0.19 -0.05 -0.18 -0.06 -0.18 -0.07 -0.18 -0.08 -0.17 -0.09 -0.17 -0.09 -0.17 -0.1 -0.15 -0.11 -0.16 -0.12 -0.15 -0.12 -0.14 -0.13 -0.13 -0.13 -0.13 -0.15 -0.12 -0.14 -0.12 -0.16 -0.11 -0.16 -0.1 -0.16 -0.09 -0.17 -0.09 -0.17 -0.08 -0.18 -0.07 -0.18 -0.06 -0.18 -0.05 -0.19 -0.05 -0.2 -0.03 -0.19 -0.03 -0.2 -0.01 -0.2 -0.01 0 -0.25 0.21 0.01 0.21 0.01 0.21 0.03 0.21 0.03 0.2 0.05 0.2 0.06 0.19 0.06 0.19 0.08 0.18 0.08 0.18 0.09 0.18 0.1 0.16 0.11 0.17 0.12 0.16 0.12 0.15 0.13 0.14 0.14 0.14 0.14 0.13 0.15 0.12 0.16 0.12 0.16 0.11 0.17 0.1 0.18 0.09 0.18 0.08 0.18 0.08 0.19 0.06 0.19 0.06 0.2 0.04 0.2 0.04 0.21 0.03 0.2 0.01 0.21 0.01 0.22 0 0z"/>
   </g>
   <path class="fil1" d="M3.67 4l0.15 -0.95c0,-0.05 0.01,-0.09 0.03,-0.11 0.02,-0.02 0.05,-0.03 0.09,-0.03l0.86 0c0.08,0 0.13,0.05 0.13,0.14 0,0.08 -0.05,0.13 -0.14,0.13l-0.69 0 -0.11 0.67c0.11,-0.05 0.21,-0.07 0.31,-0.07 0.2,0 0.37,0.08 0.5,0.23 0.13,0.15 0.19,0.33 0.19,0.53 0,0.19 -0.04,0.35 -0.13,0.49 -0.09,0.15 -0.22,0.26 -0.38,0.32 -0.1,0.04 -0.2,0.05 -0.3,0.05 -0.13,0 -0.27,-0.03 -0.43,-0.1 -0.18,-0.09 -0.27,-0.19 -0.27,-0.3 0,-0.09 0.04,-0.13 0.11,-0.13 0.04,0 0.08,0.02 0.13,0.07 0.08,0.06 0.13,0.1 0.17,0.12 0.08,0.04 0.18,0.07 0.28,0.07 0.16,0 0.28,-0.06 0.37,-0.16 0.08,-0.1 0.12,-0.23 0.12,-0.39 0,-0.34 -0.16,-0.52 -0.47,-0.52 -0.05,0 -0.12,0.02 -0.21,0.05 -0.09,0.03 -0.16,0.05 -0.21,0.05 -0.04,0 -0.07,-0.02 -0.08,-0.05 -0.02,-0.04 -0.02,-0.07 -0.02,-0.11z"/>
  </g>
 </g>
</svg>
