<?xml version="1.0" encoding="UTF-8"?>
<!DOCTYPE svg PUBLIC "-//W3C//DTD SVG 1.1//EN" "http://www.w3.org/Graphics/SVG/1.1/DTD/svg11.dtd">
<!-- Creator: CorelDRAW 2020 (64-Bit) -->
<svg xmlns="http://www.w3.org/2000/svg" xml:space="preserve" width="80px" height="80px" version="1.1" style="shape-rendering:geometricPrecision; text-rendering:geometricPrecision; image-rendering:optimizeQuality; fill-rule:evenodd; clip-rule:evenodd"
viewBox="0 0 80 80"
 xmlns:xlink="http://www.w3.org/1999/xlink"
 xmlns:xodm="http://www.corel.com/coreldraw/odm/2003">
 <defs>
  <style type="text/css">
   <![CDATA[
    .fil3 {fill:#FEFEFE}
    .fil1 {fill:#E7E5E5}
    .fil0 {fill:#00A890}
    .fil2 {fill:#148778}
   ]]>
  </style>
 </defs>
 <g id="Слой_x0020_1">
  <metadata id="CorelCorpID_0Corel-Layer"/>
  <g id="_2476797016896">
   <path class="fil0" d="M73.82 40.03c0,18.66 -15.09,33.79 -33.69,33.79 -18.61,0 -33.7,-15.13 -33.7,-33.79 0,-18.66 15.09,-33.78 33.7,-33.78 18.6,0 33.69,15.12 33.69,33.78z"/>
   <path class="fil1" d="M9.89 55.38c-2.37,-4.62 -3.71,-9.86 -3.71,-15.41 0,-18.66 15.09,-33.79 33.7,-33.79 2.9,0 5.72,0.37 8.42,1.07 -2.62,-0.66 -5.36,-1 -8.17,-1 -18.61,0 -33.7,15.12 -33.7,33.78 0,5.37 1.25,10.45 3.48,14.96 -0.02,0.24 -0.02,0.38 -0.02,0.39z"/>
   <path class="fil2" d="M9.91 54.99c-2.23,-4.51 -3.48,-9.59 -3.48,-14.96 0,-18.66 15.09,-33.78 33.7,-33.78 2.81,0 5.55,0.34 8.17,1 4.17,1.07 8.03,2.93 11.41,5.4 -1.1,-0.05 -2.18,-0.07 -3.23,-0.07 -42.7,0 -46.3,38.13 -46.57,42.41z"/>
   <path class="fil3" d="M25.16 33.98c5.15,9.54 26.88,8.91 30.64,-0.29 0.66,3.35 -0.66,5.75 -3.3,7.55 -6.11,4.15 -17.74,4.19 -23.88,0.1 -2.52,-1.69 -4.05,-3.86 -3.46,-7.36z"/>
   <path class="fil3" d="M25.16 39.88c5.15,9.55 26.88,8.91 30.64,-0.28 0.66,3.35 -0.66,5.75 -3.3,7.54 -6.11,4.16 -17.74,4.2 -23.88,0.1 -2.52,-1.68 -4.05,-3.85 -3.46,-7.36z"/>
   <path class="fil3" d="M25.34 52.25c3.58,5.5 9.26,6.6 15.17,6.57 6.03,-0.03 11.85,-1.08 15.34,-7.03 0.53,3.08 -0.57,5.43 -3.07,7.23 -6.19,4.44 -18.33,4.48 -24.53,0.06 -2.78,-1.99 -3.77,-4.41 -2.91,-6.83z"/>
   <path class="fil3" d="M25.16 46.02c5.15,9.54 26.88,8.91 30.64,-0.28 0.66,3.35 -0.66,5.75 -3.3,7.54 -6.11,4.16 -17.74,4.2 -23.88,0.1 -2.52,-1.68 -4.05,-3.85 -3.46,-7.36z"/>
   <path class="fil3" d="M55.98 29.51c0,4.74 -6.93,8.58 -15.47,8.58 -8.55,0 -15.47,-3.84 -15.47,-8.58 0,-4.73 6.92,-8.58 15.47,-8.58 8.54,0 15.47,3.85 15.47,8.58z"/>
  </g>
 </g>
</svg>
