<svg xmlns="http://www.w3.org/2000/svg" xml:space="preserve" width="80" height="80" style="shape-rendering:geometricPrecision;text-rendering:geometricPrecision;image-rendering:optimizeQuality;fill-rule:evenodd;clip-rule:evenodd"><path d="M73.82 40.03c0 18.66-15.09 33.79-33.69 33.79-18.61 0-33.7-15.13-33.7-33.79 0-18.66 15.09-33.78 33.7-33.78 18.6 0 33.69 15.12 33.69 33.78z" style="fill:#00a890"/><path d="M9.89 55.38a33.671 33.671 0 0 1-3.71-15.41c0-18.66 15.09-33.79 33.7-33.79 2.9 0 5.72.37 8.42 1.07-2.62-.66-5.36-1-8.17-1-18.61 0-33.7 15.12-33.7 33.78 0 5.37 1.25 10.45 3.48 14.96-.02.24-.02.38-.02.39z" style="fill:#e7e5e5"/><path d="M9.91 54.99a33.66 33.66 0 0 1-3.48-14.96c0-18.66 15.09-33.78 33.7-33.78 2.81 0 5.55.34 8.17 1 4.17 1.07 8.03 2.93 11.41 5.4-1.1-.04-2.18-.07-3.23-.07-42.7 0-46.3 38.13-46.57 42.41z" style="fill:#148778"/><path d="M38.48 33.26c0 1.04-.17 1.98-.52 2.83-.35.86-.81 1.58-1.39 2.18a6.11 6.11 0 0 1-2 1.39c-.76.33-1.56.49-2.38.49-.9 0-1.74-.16-2.5-.49-.77-.32-1.44-.79-2-1.39-.55-.6-.99-1.32-1.3-2.18-.32-.85-.47-1.79-.47-2.83 0-1.08.15-2.05.47-2.91.31-.87.75-1.61 1.3-2.22.56-.61 1.23-1.08 2-1.41.76-.33 1.6-.49 2.5-.49.9 0 1.74.16 2.51.49.78.33 1.44.8 2 1.41.56.61.99 1.35 1.31 2.22.31.86.47 1.83.47 2.91zm-3.91 0c0-.72-.07-1.32-.18-1.8-.12-.48-.29-.86-.51-1.15-.21-.3-.46-.51-.75-.63-.3-.13-.61-.19-.94-.19-.34 0-.66.06-.94.19-.28.12-.53.33-.74.63-.21.29-.37.67-.49 1.15-.11.48-.16 1.08-.16 1.8 0 .69.05 1.27.16 1.74.12.47.28.83.49 1.11.21.28.46.49.74.6.28.13.6.19.94.19.33 0 .64-.06.94-.19.29-.11.54-.32.75-.6.22-.28.39-.64.51-1.11.11-.47.18-1.05.18-1.74zm19.13 14.6c0 1.04-.18 1.98-.52 2.84-.34.85-.81 1.58-1.39 2.18-.58.61-1.24 1.07-2.01 1.4-.76.33-1.55.49-2.39.49-.91 0-1.74-.16-2.5-.49-.76-.33-1.41-.79-1.97-1.4-.56-.6-1-1.33-1.31-2.18-.32-.86-.47-1.8-.47-2.84 0-1.08.15-2.05.47-2.92.31-.86.75-1.6 1.31-2.21a5.62 5.62 0 0 1 1.97-1.41c.76-.33 1.59-.49 2.5-.49.92 0 1.76.16 2.53.49.78.33 1.44.79 2 1.41.56.61 1 1.35 1.31 2.21.32.87.47 1.84.47 2.92zm-3.92 0c0-.7-.05-1.3-.18-1.78-.12-.48-.28-.87-.51-1.16-.22-.29-.47-.5-.76-.63-.29-.12-.61-.19-.94-.19-.34 0-.64.07-.92.19-.28.13-.53.34-.73.63-.21.29-.37.68-.49 1.16-.12.48-.18 1.08-.18 1.78 0 .69.06 1.27.18 1.74.12.46.28.84.49 1.12.2.28.45.47.73.6.28.12.58.17.92.17.33 0 .65-.05.94-.17.29-.13.54-.32.76-.6.23-.28.39-.66.51-1.12.13-.47.18-1.05.18-1.74zm-16.59 5.13c-.35.56-.72.94-1.13 1.14-.4.2-.88.3-1.41.3h-2.16l17-26.26c.33-.54.71-.95 1.13-1.23.42-.29.93-.43 1.53-.43h2.17L33.19 52.99z" style="fill:#fefefe;fill-rule:nonzero"/></svg>