<svg xmlns="http://www.w3.org/2000/svg" xml:space="preserve" width="280" height="256" style="shape-rendering:geometricPrecision;text-rendering:geometricPrecision;image-rendering:optimizeQuality;fill-rule:evenodd;clip-rule:evenodd" viewBox="0 0 280 255.99"><path style="fill:#edfaf8" d="M18.93 194.16 121.47 17.49l1.73-3.26 1.72-2.88 1.54-2.31 1.73-2.11 1.73-1.53 1.73-.96.76-.39.96-.38.77-.2h1.73l.96.2.77.38.77.39 1.72.96 1.73 1.53 1.73 2.11 1.73 2.31 1.73 2.88 1.53 3.26 124.44 213.34.77 1.73.76 1.73.58 1.73.38 1.73.39 1.53.19 1.73.19 1.54-.19 1.53-.19 1.54-.39 1.34-.76 1.16-.77 1.15-.96.96-1.15.96-1.54.77-1.54.57h-69.13l-2.49-.19-2.5-.38-2.3-.58-2.31-.77-2.3-.77-2.31-1.15-2.11-1.15-2.3-1.34-2.12-1.35-2.11-1.54-2.11-1.72-2.11-1.73-4.04-3.65-4.03-4.03-7.87-8.26-7.87-8.64-4.04-4.23-4.03-4.03-4.03-3.65-4.03-3.45-2.69-1.73-2.5-1.54-1.15-.57-1.15-.39-1.35-.57-1.34-.2-1.35-.38h-1.72l-1.73-.19-2.12.19-4.99.38-6.33.77-3.46.39-2.88.19H96.7l-.96-.19-.77-.19-.58-.2-.38-.38-.19-.58v-.77l.19-.76.77-2.31 1.72-2.88 1.54-2.49 1.54-2.5 1.53-2.5 1.54-2.49 2.3-3.27 2.31-3.07 2.5-2.5 2.68-2.11 1.35-.96 1.34-.77 1.34-.77 1.54-.57 1.35-.58 1.53-.38 1.54-.39 1.53-.19 3.08-.19 3.07.19 3.26.58 3.27.96 3.26 1.34 3.27 1.73 3.46 2.11 3.45 2.5 2.88 2.69 2.88 2.69 2.69 2.88 2.69 3.07 5.37 5.95 5.38 6.15 2.69 2.88 2.88 2.88 2.69 2.88 3.07 2.69 3.07 2.49 3.08 2.31 3.45 2.3 3.46 1.92 1.92.96 1.92.58 1.92.57 2.11.58 4.03.58 4.23.19h4.22l4.23-.19 4.22-.2h4.23L151.23 84.7l-1.15-2.3-1.15-1.92-1.15-1.73-1.15-1.35-1.16-1.34-1.15-1.34-1.15-.96-1.15-.77-1.16-.58-1.15-.57-.96-.39-1.15-.19-1.15-.19h-.96l-1.16.19-.96.19-1.92.77-1.92.96-1.92 1.35-1.72 1.53-1.73 1.73-1.54 1.73-1.54 1.92-1.34 1.73-5.95 10.17-5.96 10.18-5.95 9.99-5.76 9.98-5.76 9.6-5.57 9.8-5.76 9.6-5.57 9.6-5.76 9.6-5.57 9.6-5.76 9.79-5.76 9.8-5.76 9.79-5.76 9.99-5.95 10.17-6.15 10.18-1.34 2.5-1.35 2.3-1.53 2.11-1.54 1.54-.77.77-.77.38-.96.39h-.76l-.96-.2-.96-.38-.96-.77-.96-.96-2.89-3.84-2.49-3.46-1.92-3.26-1.54-3.07-.57-1.35-.39-1.53-.19-1.35-.19-1.53-.19-1.35v-1.34l.19-1.54.19-1.34.77-3.07 1.15-2.88 1.35-3.27 1.92-3.46 4.22-7.68z"/></svg>