<svg xmlns="http://www.w3.org/2000/svg" xml:space="preserve" width="329" height="71" style="shape-rendering:geometricPrecision;text-rendering:geometricPrecision;image-rendering:optimizeQuality;fill-rule:evenodd;clip-rule:evenodd" viewBox="0 0 83.42 17.94"><defs><linearGradient id="a" gradientUnits="userSpaceOnUse" x1="6.1" y1="7.59" x2="14.68" y2="17.81"><stop offset="0" style="stop-opacity:1;stop-color:#59b99d"/><stop offset="1" style="stop-opacity:1;stop-color:#fefefe"/></linearGradient></defs><path style="fill:#59b99d" d="M1.09 13.73 8.48 1.01 8.6.77l.13-.2.11-.17.12-.15.13-.11.12-.07.06-.03.06-.03.06-.01H9.51l.07.01.06.03.05.03.13.07.12.11.13.15.12.17.13.2.11.24 8.96 15.36.05.13.06.12.04.13.03.12.03.11.01.13.01.11-.01.11-.01.11-.03.1-.06.08-.05.08-.07.07-.09.07-.11.05-.11.05h-4.97l-.18-.02-.18-.03-.17-.04-.17-.05-.16-.06-.17-.08-.15-.08-.17-.1-.15-.1-.15-.11-.15-.12-.15-.13-.29-.26-.3-.29-.56-.59-.57-.63-.29-.3-.29-.29-.29-.26-.29-.25-.19-.13-.18-.11-.09-.04-.08-.03-.1-.04-.09-.01-.1-.03h-.13l-.12-.01-.15.01-.36.03-.46.05-.25.03-.2.01h-.09l-.07-.01-.05-.01-.04-.02-.03-.03-.01-.04v-.05l.01-.06.05-.16.13-.21.11-.18.11-.18.11-.18.11-.18.17-.23.16-.23.18-.18.2-.15.09-.07.1-.05.1-.06.11-.04.09-.04.12-.03.11-.03.11-.01.22-.01.22.01.23.04.24.07.23.1.24.12.25.15.25.18.2.2.21.19.2.21.19.22.39.43.38.44.2.21.2.21.2.2.22.2.22.18.22.16.25.17.25.14.14.07.14.04.14.04.15.04.29.04.3.02h.31l.3-.02.3-.01h.31l-5.63-9.64-.08-.17-.09-.13-.08-.13-.08-.1-.08-.09-.09-.1-.08-.07-.08-.05-.09-.05-.08-.04-.07-.02-.08-.02-.08-.01h-.07l-.09.01-.07.02-.13.05-.14.07-.14.1-.12.11-.13.12-.11.13-.11.13-.1.13-.43.73-.42.73-.43.72-.42.72-.41.69-.4.71-.42.69-.4.69-.42.69-.4.7-.41.7-.42.71-.41.7-.42.72-.42.73-.45.74-.09.18-.1.16-.11.15-.11.11-.06.06-.05.03-.07.03h-.06l-.07-.02-.07-.03-.06-.05-.07-.07-.21-.28-.18-.25-.14-.23-.11-.22-.04-.1-.03-.11-.01-.1-.02-.11-.01-.09v-.1l.01-.11.02-.1.05-.22.09-.21.09-.23.14-.25.31-.55z"/><path d="M1.09 13.73 8.48 1.01 8.6.77l.13-.2.11-.17.12-.15.13-.11.12-.07.05-.03.07-.03.06-.01H9.51l.07.01.06.03.05.03.13.07.12.11.13.15.12.17.13.2.11.24 3.68 6.31c-.32.88-.7 1.73-1.14 2.55l-2.35-4.02-.08-.17-.08-.14-.09-.12-.08-.1-.08-.09-.09-.1-.08-.07-.08-.05-.09-.05-.08-.04-.07-.02-.08-.02-.08-.01h-.07l-.09.01-.07.02-.13.05-.14.07-.14.1-.12.11-.13.12-.11.13-.11.13-.1.13-.43.73-.42.73-.43.72-.42.72-.41.69-.4.71-.42.69-.4.69-.42.69-.4.7-.41.7-.42.71-.41.7-.42.72-.42.73-.45.74-.09.18-.1.16-.11.15-.11.11-.06.06-.05.03-.07.03h-.06l-.07-.02-.07-.03-.06-.05-.07-.07-.21-.28-.18-.25-.14-.23-.11-.22-.04-.1-.03-.11-.01-.1-.02-.11-.01-.09v-.1l.01-.11.02-.1.05-.22.09-.21.09-.23.14-.25.31-.55.38-.67zm8.47.66-.28-.24-.19-.13-.18-.11-.09-.04-.08-.03-.1-.04-.09-.01-.1-.03h-.12l-.13-.01-.15.01-.36.03-.46.05-.25.03-.2.01h-.09l-.07-.01-.05-.01-.04-.02-.03-.03-.01-.04v-.05l.01-.06.06-.16.12-.21.11-.18.11-.18.11-.18.11-.18.17-.23.16-.23.18-.18.2-.15.09-.07.1-.05.1-.06.11-.04.1-.04.11-.03.11-.03.11-.01.22-.01.22.01.23.04.24.07.23.1.24.12.25.15.25.18.21.2.2.19.16.17c-.48.6-1 1.17-1.55 1.72z" style="fill:url(#a)"/><path d="M28.82 12.06h-1.7v-4.5l-1.23 2.91h-1.16L23.5 7.56v4.5h-1.61V5.27h1.96l1.5 3.36 1.51-3.36h1.96v6.79zm7.38 0h-2.03l-1.81-2.74h-.43v2.74h-1.71V5.27h1.71v2.76l.18-.01.17-.04.13-.04.12-.07.09-.11.13-.15.11-.2.14-.25.08-.18.1-.19.09-.21.08-.18.09-.15.08-.14.08-.12.09-.11.09-.11.1-.09.1-.08.09-.07.11-.07.13-.05.12-.04.14-.03.15-.04.16-.02.15-.01h.55l.13.01h.11v1.45h-.4l-.14.02-.13.03-.12.05-.11.08-.11.12-.11.15-.11.2-.12.25-.08.2-.09.18-.09.14-.07.12-.08.11-.07.08-.08.06-.07.05 2.36 3.49zm2.56 0 2.3-6.79h1.86l2.3 6.79h-1.76l-.42-1.37h-2.15l-.43 1.37h-1.7zm3.9-2.61-.7-2.26-.69 2.26h1.39zm8.67.44-.01.25-.03.23-.07.22-.08.21-.1.21-.12.18-.14.16-.15.14-.21.14-.21.12-.21.1-.22.08-.25.06-.26.04-.29.03H45.88V5.27h4.94v1.3h-3.24v1.26H49l.29.01.26.03.25.04.11.03.12.03.11.04.11.04.11.05.1.07.1.06.11.07.08.08.07.07.08.08.06.09.07.08.05.1.04.09.05.1.07.21.05.22.03.23.01.24zm-1.75.05-.02-.16-.01-.16-.03-.08-.04-.07-.04-.07-.06-.05-.07-.07-.08-.04-.08-.06-.11-.03-.11-.04-.14-.01-.17-.01-.18-.02h-.86v1.73h1l.11-.01.13-.02.09-.03.11-.02.09-.04.09-.05.07-.05.07-.06.07-.07.06-.06.04-.09.02-.08.03-.08.02-.1v-.1zm7.93-2.53-.01.24-.03.23-.04.22-.07.23-.08.19-.1.19-.12.17-.13.15-.18.18-.2.15-.11.07-.12.07-.11.07-.12.05-.12.05-.14.04-.14.04-.14.03-.15.02-.17.03h-.16l-.18.02h-.9v2.21h-1.7V5.27h2.64l.27.01.27.02.25.04.22.04.21.07.19.07.19.09.18.12.1.06.08.07.08.07.07.09.09.09.05.09.07.11.06.09.04.11.04.11.04.13.03.12.03.13.01.14.01.13v.14zm-1.75.04-.02-.13-.02-.13-.05-.11-.05-.11-.07-.1-.08-.08-.09-.06-.09-.05-.11-.04-.13-.04-.11-.03-.11-.02h-.26l-.15-.01h-.43v2.03h.47l.11-.01h.19l.18-.03.14-.03.15-.05.13-.07.11-.08.07-.09.07-.08.05-.1.04-.08.02-.1.02-.12.02-.12v-.16zm1.93 4.61 2.3-6.79h1.85l2.3 6.79h-1.76l-.41-1.37h-2.16l-.42 1.37h-1.7zm3.9-2.61-.7-2.26-.69 2.26h1.39zm7.61-.61.11.11.1.11.08.14.07.13.07.16.04.16.03.18v.21l-.02.23-.02.24-.03.11-.04.11-.04.11-.05.1-.05.1-.06.09-.05.1-.09.08-.15.17-.18.14-.2.13-.24.13-.25.1-.26.06-.29.07-.32.05-.33.02-.35.02-.33-.02-.32-.01-.32-.04-.3-.06-.29-.05-.29-.09-.26-.08-.27-.1v-1.52h.16l.19.11.21.13.23.11.26.11.28.1.28.07.27.04.27.01h.16l.17-.01.14-.02.15-.02.12-.05.13-.04.11-.04.11-.07.1-.05.08-.09.07-.08.05-.08.05-.1.02-.11.03-.11V9.8l-.01-.09-.03-.1-.03-.08-.04-.08-.06-.07-.05-.06-.07-.05-.08-.06-.1-.04-.11-.04-.12-.03-.14-.03-.15-.01-.18-.02h-1.15V7.83h1.21l.13-.02.12-.02.11-.03.1-.03.1-.04.08-.04.07-.06.06-.05.04-.07.04-.07.04-.07.01-.08.02-.09.01-.09-.01-.09-.02-.08-.01-.07-.04-.05-.04-.07-.06-.06-.07-.04-.08-.04-.17-.07-.2-.04-.24-.03-.25-.01h-.15l-.15.01-.14.01-.14.03-.14.04-.14.04-.12.03-.14.06-.11.04-.12.05-.11.05-.1.05-.19.1-.13.07h-.16V5.59l.17-.07.21-.07.28-.07.3-.08.35-.07.34-.06.36-.03.36-.01.32.01.29.02.28.04.26.04.24.07.2.07.2.08.18.11.15.11.12.13.11.14.1.13.07.17.06.17.02.18.02.18-.02.15-.01.14-.03.12-.04.13-.04.12-.07.12-.07.11-.08.12-.1.09-.1.09-.09.08-.13.08-.11.07-.12.06-.13.04-.13.04v.07l.09.03.13.02.12.04.14.06.12.06.13.06.12.09.1.07zm7.4 3.22h-1.68V7.59l-2.6 4.47h-1.57V5.27h1.67v4.05l2.41-4.05h1.77v6.79zm6.82-2.08-.02.25-.04.22-.06.23-.08.19-.11.19-.11.17-.14.14-.15.14-.21.13-.19.13-.22.1-.22.06-.25.06-.28.04-.3.03h-3.06V5.27h2.41l.34.01.31.02.26.01.22.03.18.03.19.05.18.07.17.08.17.11.15.11.07.07.05.09.06.07.04.08.08.16.06.18.04.21v.32l-.01.12-.02.11-.03.12-.04.11-.04.11-.04.09-.07.11-.06.09-.06.09-.09.07-.08.09-.08.07-.1.05-.11.06-.1.05v.03l.15.04.14.04.14.06.14.07.11.07.12.08.1.08.1.1.09.11.07.11.07.12.06.14.04.14.03.15.01.17.02.16zm-2.19-2.79-.01-.08-.02-.08-.02-.09-.03-.08-.06-.08-.05-.07-.07-.06-.09-.04-.09-.04-.09-.03-.11-.01H80.36l-.17-.02h-.51v1.44h.83l.08-.01.1-.02.08-.04.1-.03.1-.05.07-.07.07-.07.04-.08.04-.08.01-.1.02-.1.01-.11zm.43 2.77-.01-.16-.02-.12-.04-.12-.06-.1-.08-.08-.08-.07-.1-.06-.12-.05-.09-.03-.09-.02-.13-.01-.12-.01h-1.04v1.7h.08l.32-.02h.61l.13-.01.13-.03.13-.03.14-.05.09-.06.1-.06.08-.09.06-.08.05-.11.03-.1.02-.11.01-.12z" style="fill:#323234"/></svg>