<svg xmlns="http://www.w3.org/2000/svg" xml:space="preserve" width="80" height="80" style="shape-rendering:geometricPrecision;text-rendering:geometricPrecision;image-rendering:optimizeQuality;fill-rule:evenodd;clip-rule:evenodd"><path d="M73.82 40.03c0 18.66-15.09 33.79-33.69 33.79-18.61 0-33.7-15.13-33.7-33.79 0-18.66 15.09-33.78 33.7-33.78 18.6 0 33.69 15.12 33.69 33.78z" style="fill:#00a890"/><path d="M9.89 55.38a33.671 33.671 0 0 1-3.71-15.41c0-18.66 15.09-33.79 33.7-33.79 2.9 0 5.72.37 8.42 1.07-2.62-.66-5.36-1-8.17-1-18.61 0-33.7 15.12-33.7 33.78 0 5.37 1.25 10.45 3.48 14.96-.02.24-.02.38-.02.39z" style="fill:#e7e5e5"/><path d="M9.91 54.99a33.66 33.66 0 0 1-3.48-14.96c0-18.66 15.09-33.78 33.7-33.78 2.81 0 5.55.34 8.17 1 4.17 1.07 8.03 2.93 11.41 5.4-1.1-.05-2.18-.07-3.23-.07-42.7 0-46.3 38.13-46.57 42.41z" style="fill:#148778"/><path d="M40.12 21.75c5.92 0 10.7 4.79 10.7 10.7 0 4.77-3.73 8.43-6.11 12.27-1.82 2.91-3.57 6.32-4.59 10.5-1.05-4.34-2.9-7.85-4.79-10.85-2.36-3.73-5.9-7.25-5.9-11.92 0-5.91 4.78-10.7 10.69-10.7zm0 5.73c2.71 0 4.9 2.19 4.9 4.89 0 2.7-2.19 4.89-4.9 4.89a4.89 4.89 0 0 1 0-9.78z" style="fill:#fefefe"/><path style="fill:none;stroke:#fefefe;stroke-width:4.17;stroke-linecap:round;stroke-linejoin:round;stroke-miterlimit:22.9256" d="m20.61 61.49 11.8.36 15.01-6.79 10.55 6.79"/></svg>