<svg xmlns="http://www.w3.org/2000/svg" xml:space="preserve" width="80" height="80" style="shape-rendering:geometricPrecision;text-rendering:geometricPrecision;image-rendering:optimizeQuality;fill-rule:evenodd;clip-rule:evenodd"><defs><style>.fil3{fill:#fefefe}</style></defs><g id="Слой_x0020_1"><g id="_2476692026432"><path d="M73.82 40.08c0 18.63-15.14 33.74-33.82 33.74S6.18 58.71 6.18 40.08C6.18 21.44 21.32 6.33 40 6.33s33.82 15.11 33.82 33.75z" style="fill:#00a890"/><path d="M17.95 14.49c5.95-5.17 13.72-8.31 22.22-8.31 7.44 0 14.32 2.4 19.91 6.47-.14-.01-.27-.02-.41-.02A33.714 33.714 0 0 0 40 6.33c-8.42 0-16.13 3.08-22.05 8.16z" style="fill:#e7e5e5"/><path d="M10.07 55.32a33.62 33.62 0 0 1-3.71-15.39c0-10.15 4.49-19.25 11.59-25.44A33.763 33.763 0 0 1 40 6.33c7.34 0 14.13 2.34 19.67 6.3-.96-.04-1.9-.06-2.83-.06-45.24 0-46.76 42.43-46.77 42.75z" style="fill:#148778"/><path class="fil3" d="M49.24 57.58c.53-4.21-.68-7.63-3.8-10.3-.85-.73-1.65-1.53-2.44-2.33-1.08-1.12-1.59-2.46-1.45-4.07.12-1.26.72-2.23 1.53-3.07 1.11-1.14 2.29-2.21 3.42-3.33 2.57-2.54 3.11-5.73 2.77-9.19H31.73c0 .75.01 1.43 0 2.1-.05 2.83.93 5.22 2.9 7.18 1.04 1.04 2.15 2.01 3.18 3.07.87.9 1.57 1.9 1.68 3.27.14 1.66-.41 2.99-1.53 4.12-1.3 1.32-2.68 2.56-3.92 3.92-2.24 2.44-2.53 5.46-2.26 8.63h17.46zm-18.73-32.3c-.55-.07-.94-.11-1.33-.19a1.56 1.56 0 0 1-1.23-1.58c.04-.8.62-1.44 1.42-1.47 1.62-.04 3.24-.07 4.87-.07 5.7 0 11.4 0 17.1.01 1.01 0 1.7.6 1.76 1.5.05.86-.57 1.52-1.54 1.66-.31.04-.61.09-.92.13-.08 1.42-.09 2.77-.24 4.1-.24 2.14-1.14 4-2.6 5.53-1.19 1.26-2.48 2.43-3.7 3.66-1 1.02-1.7 2.21-1.23 3.7.23.7.66 1.38 1.16 1.91 1.1 1.19 2.32 2.26 3.45 3.42 2.07 2.1 3.09 4.67 3.06 7.67v2.29c.53.07.93.1 1.32.19.75.16 1.3.93 1.23 1.66-.08.86-.68 1.46-1.53 1.46H29.5c-.86 0-1.45-.58-1.54-1.45-.08-.78.49-1.53 1.31-1.68.36-.07.73-.11 1.24-.18 0-.7.01-1.4-.01-2.09-.08-3.36 1.18-6.11 3.52-8.37.98-.95 2-1.85 2.95-2.82 1.82-1.88 1.82-3.82-.01-5.7-1.13-1.16-2.34-2.24-3.47-3.4-2.04-2.09-3.01-4.65-2.98-7.62.01-.73 0-1.46 0-2.27z"/><path class="fil3" d="M48.32 30.09c-.43 1.76-1.39 3.08-2.58 4.24-.91.89-1.85 1.75-2.76 2.63-1.19 1.14-1.65 2.54-2.17 4.17-.06.18-.17.54-.28.88-.12-.35-.23-.74-.29-.97-.45-1.57-.98-2.92-2.1-4.02-1.14-1.11-2.31-2.19-3.42-3.33-.97-.98-1.6-2.17-2.01-3.6h15.61zM48.1 56.88H32.77c.32-.28.49-.46.68-.6 1.93-1.4 3.85-2.82 5.79-4.2 1.25-.89 1.26-.88 2.4-.13.51.34.44.31.99.7l5.55 4.04c-.03.06-.05.13-.08.19zM40.76 43.59c0 .31-.25.56-.55.56-.3 0-.54-.25-.54-.56 0-.31.24-.56.54-.56.3 0 .55.25.55.56zM41.69 44.83c0 .42-.33.76-.74.76-.4 0-.74-.34-.74-.76 0-.43.33-.77.74-.77s.74.34.74.77zM40.06 45.83c0 .15-.12.28-.27.28-.15 0-.27-.13-.27-.28 0-.16.12-.28.27-.28.15 0 .27.12.27.28zM41.69 47.65c0 .29-.22.53-.51.53-.28 0-.51-.24-.51-.53 0-.29.23-.53.51-.53.29 0 .51.24.51.53zM40.33 47.91c0 .38-.3.68-.66.68-.36 0-.65-.3-.65-.68 0-.37.29-.67.65-.67.36 0 .66.3.66.67zM41.55 49.86c0 .34-.26.61-.6.61-.33 0-.59-.27-.59-.61 0-.35.26-.62.59-.62.34 0 .6.27.6.62zM39.67 50.62c0 .16-.13.29-.28.29a.29.29 0 0 1 0-.58c.15 0 .28.13.28.29z"/></g></g></svg>