<svg xmlns="http://www.w3.org/2000/svg" xml:space="preserve" width="80" height="80" style="shape-rendering:geometricPrecision;text-rendering:geometricPrecision;image-rendering:optimizeQuality;fill-rule:evenodd;clip-rule:evenodd"><path style="fill:#59b99d" d="m34.94 7.28.49-.82.44-.65.49-.6.49-.44.49-.27.22-.11.08-.03.19-.08.22-.05h.49l.27.05.18.09.04.02.22.11.49.27.49.44.49.6h.01l.48.65.5.82.43.93L56.66 33.1 77.5 68.83l.22.49.22.5.16.49.11.49.11.43.05.5.06.43-.06.44-.05.43-.11.39-.22.32-.22.33-.27.27-.33.28-.43.22-.44.16H56.66l-.71-.06-.71-.1-.66-.17-.65-.22-.66-.21-.65-.33-.6-.33-.66-.38-.6-.38-.6-.44-.6-.49-.6-.49-1.14-1.04-1.15-1.14-2.24-2.35-2.23-2.46-1.15-1.2-1.15-1.14-1.14-1.04-.17-.15-.98-.83-.76-.49-.71-.44-.33-.16-.33-.11-.38-.17h-.04l-.34-.05-.38-.11h-.49l-.31-.03-.18-.02-.25.02-.35.03-1.42.11-.58.07-1.22.15-.99.11-.81.05h-.33l-.27-.05-.22-.06-.06-.02-.11-.03-.1-.11-.06-.16v-.23l.06-.21.21-.66.49-.81.44-.71.12-.2.32-.51.22-.36.21-.35.22-.36.22-.35.46-.66.19-.27.66-.87.71-.71.76-.6.39-.28.25-.14.13-.07.38-.22.44-.17.38-.16.15-.04.28-.07.33-.08.11-.03.44-.05.87-.06.83.06h.04l.93.16.93.27.93.39.45.24.47.25.99.6.98.71.82.76.15.14.67.62.76.82.76.88 1.53 1.69 1.53 1.74.76.82.82.82.77.82.87.76.87.71.87.66.99.65.98.55.54.27.55.17.55.16.6.16 1.14.17 1.2.05h1.2l1.2-.05 1.2-.06h1.2L52.16 43.16l-9.25-15.85-.33-.66-.33-.54-.33-.49-.32-.38v-.01l-.33-.38-.33-.38-.25-.21-.08-.06-.32-.22-.05-.02-.28-.14-.33-.17-.16-.06-.11-.05-.33-.05-.33-.06h-.27l-.3.05-.02.01h-.01l-.27.05-.54.22-.22.11-.33.16-.55.39-.49.43-.49.49-.29.33-.14.17-.44.54-.38.49-1.69 2.89-1.7 2.9-1.69 2.83-1.63 2.84-1.64 2.73-1.58 2.78-1.64 2.73-1.58 2.73-1.64 2.73-1.58 2.73-1.64 2.78-1.64 2.78-.25.44-1.38 2.35-1.1 1.89-.54.94-1.69 2.89-1.75 2.9-.38.7-.38.66-.44.6-.44.44-.21.21-.22.11-.1.04-.18.07h-.21l-.28-.05-.27-.11-.08-.07-.19-.15-.14-.14-.14-.13-.81-1.09-.71-.99-.1-.15-.45-.77-.43-.88-.17-.38-.11-.43-.05-.39-.03-.23-.03-.2-.05-.36V67.63l.05-.43.03-.19.03-.19.13-.54.09-.34.32-.82.39-.93.54-.98.82-1.48.38-.7.72-1.24.81-1.38 29.14-50.2z"/></svg>