<svg xmlns="http://www.w3.org/2000/svg" xml:space="preserve" width="150" height="150" style="shape-rendering:geometricPrecision;text-rendering:geometricPrecision;image-rendering:optimizeQuality;fill-rule:evenodd;clip-rule:evenodd" viewBox="0 0 150 149.97"><defs><style>.fil1{fill:#00a890}</style></defs><g id="Слой_x0020_1"><g id="_1642700831440"><path d="M76.32 146.82v-2.56l3.47-.09 3.43-.26 3.38-.43 3.32-.59 3.27-.75 3.2-.91 3.14-1.06 3.07-1.21 2.98-1.35 2.92-1.49 2.82-1.63 2.74-1.76 2.65-1.88 2.55-2 2.45-2.12 2.35-2.24 2.23-2.34 2.12-2.45 2.01-2.55 1.88-2.65 1.76-2.74 1.62-2.83 1.49-2.91 1.36-2.98 1.2-3.07 1.06-3.14.92-3.2.75-3.26.59-3.33.43-3.38.26-3.42.09-3.48h2.56l-.09 3.6-.27 3.56-.45 3.51-.61 3.45-.79 3.39-.94 3.32-1.1 3.26-1.26 3.18-1.4 3.1-1.55 3.03-1.69 2.93-1.82 2.84-1.95 2.75-2.08 2.64-2.21 2.55-2.32 2.43-2.43 2.32-2.54 2.2-2.65 2.08-2.75 1.95-2.84 1.83-2.93 1.68-3.02 1.55-3.11 1.4-3.18 1.26-3.26 1.1-3.32.94-3.39.79-3.46.61-3.5.45-3.56.27-3.6.09zM6.24 76.76H8.8l.09 3.48.26 3.42.43 3.38.59 3.33.75 3.26.92 3.2 1.06 3.14 1.21 3.07 1.35 2.98 1.49 2.92 1.62 2.82 1.76 2.74 1.88 2.65 2.01 2.55 2.12 2.45 2.23 2.34 2.35 2.24 2.45 2.12 2.55 2 2.65 1.88 2.74 1.76 2.82 1.63 2.92 1.49 2.99 1.35 3.06 1.21 3.14 1.06 3.2.91 3.27.75 3.32.59 3.38.43 3.43.26 3.48.09v2.56l-3.61-.09-3.56-.27-3.5-.45-3.46-.61-3.39-.79-3.32-.94-3.26-1.1-3.18-1.26-3.1-1.4-3.03-1.55-2.93-1.68-2.84-1.83-2.75-1.95-2.65-2.08-2.54-2.2-2.43-2.32-2.32-2.43-2.21-2.54-2.08-2.65-1.95-2.75-1.82-2.84-1.69-2.94-1.55-3.02-1.4-3.1-1.25-3.18-1.11-3.26-.94-3.32-.78-3.39-.62-3.45-.44-3.51-.28-3.56-.09-3.6zM76.32 6.7v2.56l-3.48.09-3.43.26-3.38.43-3.32.59-3.27.75-3.2.91-3.14 1.06-3.06 1.21-2.99 1.36-2.92 1.49-2.82 1.62-2.74 1.76-2.65 1.88-2.55 2-2.45 2.12-2.35 2.24-2.23 2.34-2.12 2.45-2.01 2.55-1.88 2.65-1.76 2.74-1.62 2.83-1.49 2.91-1.35 2.99-1.21 3.06-1.06 3.14-.92 3.2-.75 3.27-.59 3.32-.43 3.38-.26 3.43-.09 3.47H6.24l.09-3.6.28-3.56.44-3.51.62-3.45.78-3.39.94-3.32 1.11-3.26 1.25-3.18 1.4-3.1 1.55-3.02 1.69-2.94 1.82-2.84 1.95-2.75 2.08-2.64 2.21-2.54 2.32-2.44 2.43-2.32 2.54-2.2 2.65-2.08 2.75-1.95 2.84-1.82 2.93-1.69 3.03-1.55 3.1-1.4 3.18-1.26 3.26-1.1 3.32-.94 3.39-.78 3.46-.62 3.5-.45 3.56-.27 3.61-.09zm70.07 70.06h-2.56l-.09-3.47-.26-3.43-.43-3.38-.59-3.32-.75-3.27-.92-3.2-1.06-3.14-1.2-3.06-1.36-2.99-1.49-2.91-1.62-2.83-1.76-2.74-1.88-2.65-2.01-2.55-2.12-2.45-2.23-2.34-2.35-2.24-2.45-2.12-2.55-2-2.65-1.88-2.74-1.76-2.82-1.62-2.92-1.49-2.99-1.36-3.06-1.21-3.14-1.06-3.2-.91-3.27-.75-3.32-.59-3.38-.43-3.43-.26-3.47-.09V6.7l3.6.09 3.56.27 3.5.45 3.46.62 3.39.78 3.32.94 3.26 1.1 3.18 1.26 3.11 1.4 3.02 1.55 2.93 1.69 2.84 1.82 2.75 1.95 2.65 2.08 2.54 2.2 2.43 2.32 2.32 2.44 2.21 2.54 2.08 2.64 1.95 2.75 1.82 2.84 1.69 2.94 1.55 3.02 1.4 3.1 1.26 3.18 1.1 3.26.94 3.32.79 3.39.61 3.45.45 3.51.27 3.56.09 3.6z" style="fill:#00a890;fill-rule:nonzero"/><path class="fil1" d="M44.35 60.53v48.18H98.54V36.22H68.87L44.35 60.53zm25.44 1.13-.05-22.09h25.45v65.79H47.7V61.65l22.09.01z"/><path class="fil1" d="M56.29 71.59H86.5v-1.71H56.29zM56.29 83.22h24.49v-1.71H56.29zM56.29 94.9H76.7v-1.71H56.29z"/><path d="M97.23 82.23c9.48 0 17.16 7.68 17.16 17.16 0 9.47-7.68 17.16-17.16 17.16s-17.16-7.69-17.16-17.16c0-9.48 7.68-17.16 17.16-17.16z" style="fill:#148778;stroke:#fefefe;stroke-width:4.17;stroke-miterlimit:22.9256"/><path d="m95.5 106.46-7.55-5.85 2.1-2.69 7.55 5.84.41 2.24-2.51.46zm2.51-.46-1 1.62-1.51-1.16 2.51-.46zm8.36-13.58L98.01 106l-2.91-1.78 8.36-13.59 2.91 1.79z" style="fill:#fefefe;fill-rule:nonzero"/></g></g></svg>