<svg xmlns="http://www.w3.org/2000/svg" xml:space="preserve" width="70" height="70" shape-rendering="geometricPrecision"
     text-rendering="geometricPrecision" image-rendering="optimizeQuality" fill-rule="evenodd" clip-rule="evenodd"><defs><style>.fil2{fill:#fefefe}</style></defs>
    <g id="Слой_x0020_1"><g id="_1642777459104"><path d="M68.93 34.71c0 18.66-15.13 33.79-33.8 33.79-13.11 0-24.48-7.46-30.08-18.37v-.01a33.553 33.553 0 0 1-3.72-15.41c0-18.67 15.13-33.8 33.8-33.8 7.44 0 14.31 2.4 19.89 6.47 8.43 6.15 13.91 16.1 13.91 27.33z" fill="#00a890"/><path
            d="M5.05 50.12a33.553 33.553 0 0 1-3.72-15.41c0-18.67 15.13-33.8 33.8-33.8 7.44 0 14.31 2.4 19.89 6.47-1.1-.05-2.18-.07-3.23-.07-45.22 0-46.73 42.5-46.74 42.81z"
            fill="#148778"/><path class="fil2"
                                  d="m24.31 31.5.51-.41c2.12-1.7 2.11-3.89-.05-6.58-.82-1.02-1.54-1.58-2.16-1.66-.63-.1-1.42.24-2.37 1l-.6.48c1.05.67 1.89 1.38 2.49 2.13 1.15 1.43 1.88 3.11 2.18 5.04zm16.12 18.81.66-.53c.85-.68 1.29-1.33 1.32-1.96.02-.63-.36-1.43-1.15-2.41-2.19-2.73-4.28-3.29-6.27-1.69l-.64.51c1.76.74 3.25 1.86 4.47 3.38.69.85 1.22 1.76 1.61 2.7zm-6.1 2.38c1.85-.24 3.67-.87 5.48-1.88-.48-.97-1.03-1.86-1.67-2.65-1.08-1.34-2.56-2.46-4.47-3.38l-.3.24c-1.37 1.1-3.72-.42-7.05-4.56-3.44-4.29-4.47-6.99-3.1-8.09l.3-.24c-.31-2.08-1.02-3.8-2.11-5.17a9.123 9.123 0 0 0-2.43-2.1c-1.27 1.41-2.28 3.06-3.03 4.94.76 2.28 1.72 4.49 2.92 6.66s2.63 4.27 4.28 6.33c1.69 2.1 3.46 3.98 5.32 5.63 1.86 1.64 3.82 3.07 5.86 4.27zM54.35 33.67c-.66-4.59-2.52-8.62-5.51-12.12-3.36-3.92-7.6-6.49-13.07-7.81-.24.22-1.13.83-1.04 1.03.27.64.79 1.32 1.4 1.63 2 .99 4.25 1.57 6.11 2.77 5.42 3.48 8.64 8.5 9.62 14.91.15.93.43 1.96 1.69 1.69 1.16-.25.93-1.19.8-2.1zM35.62 24.54c4.38 1.54 7.09 4.59 8.15 9.11.1.44.1 1 .38 1.3.33.37.95.76 1.36.68.42-.08.74-.71.93-.92.18-5.26-6.07-12.37-11.08-12.85-.48-.04-1.28.43-1.44.85-.13.36.39 1.03.74 1.47.19.23.63.24.96.36z"/></g></g></svg>