<svg xmlns="http://www.w3.org/2000/svg" xml:space="preserve" width="17" height="19" style="shape-rendering:geometricPrecision;text-rendering:geometricPrecision;image-rendering:optimizeQuality;fill-rule:evenodd;clip-rule:evenodd"><path d="m5.25 6.45.29-.24c1.21-.97 1.2-2.21-.02-3.74-.47-.58-.88-.9-1.24-.95-.35-.05-.8.14-1.34.58l-.34.27c.6.38 1.07.79 1.41 1.21.65.82 1.07 1.77 1.24 2.87zm9.17 10.7.38-.3c.48-.39.73-.77.74-1.12.02-.36-.2-.82-.65-1.37-1.24-1.55-2.43-1.87-3.56-.96l-.37.29a6.414 6.414 0 0 1 3.46 3.46zm-3.47 1.35c1.05-.14 2.09-.5 3.12-1.07-.27-.55-.59-1.06-.95-1.51-.61-.76-1.46-1.4-2.55-1.92l-.16.14c-.79.62-2.12-.24-4.01-2.6-1.96-2.44-2.55-3.97-1.76-4.6l.16-.14c-.18-1.18-.57-2.16-1.2-2.93a4.98 4.98 0 0 0-1.38-1.2A9.31 9.31 0 0 0 .5 5.48c.43 1.3.98 2.56 1.66 3.79.68 1.23 1.49 2.43 2.43 3.6.96 1.19 1.97 2.26 3.03 3.2 1.05.93 2.17 1.74 3.33 2.43z" style="fill:gray"/></svg>