<svg xmlns="http://www.w3.org/2000/svg" xml:space="preserve" width="16" height="21" style="shape-rendering:geometricPrecision;text-rendering:geometricPrecision;image-rendering:optimizeQuality;fill-rule:evenodd;clip-rule:evenodd"><path d="M7.24 1.44c3.62 0 6.55 2.93 6.55 6.55 0 2.92-2.29 5.16-3.74 7.51-1.12 1.78-2.19 3.87-2.81 6.43-.64-2.66-1.78-4.81-2.94-6.64C2.86 13 .69 10.85.69 7.99c0-3.62 2.93-6.55 6.55-6.55zm0 3.5c1.65 0 3 1.34 3 3a3 3 0 0 1-6 0c0-1.66 1.35-3 3-3z" style="fill:#fefefe"/></svg>